AnekTamil-SemiCondensedLight.ufo
<glyph name="exclam" format="2">
  <advance width="396.505"/>
  <unicode hex="0021"/>
  <outline>
    <contour>
      <point x="245.2" y="376.99" type="line"/>
      <point x="259.975" y="1278.0" type="line"/>
      <point x="136.295" y="1278.0" type="line"/>
      <point x="151.305" y="376.99" type="line"/>
    </contour>
    <contour>
      <point x="198.43" y="-15.27" type="curve" smooth="yes"/>
      <point x="248.28" y="-15.27"/>
      <point x="272.235" y="16.745"/>
      <point x="272.235" y="76.65" type="curve" smooth="yes"/>
      <point x="272.235" y="89.915" type="line" smooth="yes"/>
      <point x="272.235" y="148.82"/>
      <point x="248.28" y="180.835"/>
      <point x="198.43" y="180.835" type="curve" smooth="yes"/>
      <point x="147.99" y="180.835"/>
      <point x="125.33" y="148.82"/>
      <point x="125.33" y="89.915" type="curve" smooth="yes"/>
      <point x="125.33" y="76.65" type="line" smooth="yes"/>
      <point x="125.33" y="16.745"/>
      <point x="147.99" y="-15.27"/>
    </contour>
  </outline>
</glyph>
<glyph name="numbersign" format="2">
  <advance width="997.0500000000001"/>
  <unicode hex="0023"/>
  <outline>
    <contour>
      <point x="195.085" y="0.0" type="line"/>
      <point x="290.21" y="0.0" type="line"/>
      <point x="420.69" y="1278.0" type="line"/>
      <point x="325.565" y="1278.0" type="line"/>
    </contour>
    <contour>
      <point x="59.02" y="357.61" type="line"/>
      <point x="889.9999999999999" y="357.61" type="line"/>
      <point x="889.9999999999999" y="444.76" type="line"/>
      <point x="59.02" y="444.76" type="line"/>
    </contour>
    <contour>
      <point x="578.42" y="0.0" type="line"/>
      <point x="674.045" y="0.0" type="line"/>
      <point x="802.495" y="1278.0" type="line"/>
      <point x="707.105" y="1278.0" type="line"/>
    </contour>
    <contour>
      <point x="109.08" y="840.795" type="line"/>
      <point x="938.295" y="840.795" type="line"/>
      <point x="938.295" y="928.1800000000001" type="line"/>
      <point x="109.08" y="928.1800000000001" type="line"/>
    </contour>
  </outline>
</glyph>
<glyph name="dollar" format="2">
  <advance width="805.1850000000001"/>
  <unicode hex="0024"/>
  <anchor x="391.49" y="0.0" name="bottom"/>
  <anchor x="391.49" y="1278.0" name="top"/>
  <outline>
    <contour>
      <point x="448.615" y="1235.335" type="line"/>
      <point x="448.615" y="1470.905" type="line"/>
      <point x="345.54" y="1470.905" type="line"/>
      <point x="345.54" y="1235.335" type="line"/>
    </contour>
    <contour>
      <point x="448.615" y="-200.14000000000001" type="line"/>
      <point x="448.615" y="39.86" type="line"/>
      <point x="345.54" y="39.86" type="line"/>
      <point x="345.54" y="-200.14000000000001" type="line"/>
    </contour>
    <component base="S"/>
  </outline>
</glyph>
<glyph name="percent" format="2">
  <advance width="1248.155"/>
  <unicode hex="0025"/>
  <outline>
    <contour>
      <point x="257.73" y="0.0" type="line"/>
      <point x="364.19" y="0.0" type="line"/>
      <point x="991.485" y="1278.0" type="line"/>
      <point x="885.555" y="1278.0" type="line"/>
    </contour>
    <contour>
      <point x="940.935" y="-20.475" type="curve" smooth="yes"/>
      <point x="1086.665" y="-20.475"/>
      <point x="1163.53" y="70.32499999999999"/>
      <point x="1163.53" y="224.96" type="curve" smooth="yes"/>
      <point x="1163.53" y="373.91" type="line" smooth="yes"/>
      <point x="1163.53" y="529.015"/>
      <point x="1086.9" y="619.05"/>
      <point x="940.935" y="619.05" type="curve" smooth="yes"/>
      <point x="795.235" y="619.05"/>
      <point x="718.665" y="528.485"/>
      <point x="718.665" y="373.91" type="curve" smooth="yes"/>
      <point x="718.665" y="224.96" type="line" smooth="yes"/>
      <point x="718.665" y="70.32499999999999"/>
      <point x="794.735" y="-20.475"/>
    </contour>
    <contour>
      <point x="940.935" y="63.199999999999996" type="curve" smooth="yes"/>
      <point x="858.8100000000001" y="63.199999999999996"/>
      <point x="816.47" y="117.47999999999999"/>
      <point x="816.47" y="221.31" type="curve" smooth="yes"/>
      <point x="816.47" y="377.265" type="line" smooth="yes"/>
      <point x="816.47" y="481.125"/>
      <point x="858.3100000000001" y="535.64"/>
      <point x="940.935" y="535.64" type="curve" smooth="yes"/>
      <point x="1023.0899999999999" y="535.64"/>
      <point x="1064.9299999999998" y="481.125"/>
      <point x="1064.9299999999998" y="377.265" type="curve" smooth="yes"/>
      <point x="1064.9299999999998" y="221.31" type="line" smooth="yes"/>
      <point x="1064.9299999999998" y="117.47999999999999"/>
      <point x="1023.5899999999999" y="63.199999999999996"/>
    </contour>
    <contour>
      <point x="307.13" y="658.6850000000001" type="curve" smooth="yes"/>
      <point x="452.86" y="658.6850000000001"/>
      <point x="529.4599999999999" y="749.485"/>
      <point x="529.4599999999999" y="903.325" type="curve" smooth="yes"/>
      <point x="529.4599999999999" y="1052.8049999999998" type="line" smooth="yes"/>
      <point x="529.4599999999999" y="1206.615"/>
      <point x="453.09499999999997" y="1296.915"/>
      <point x="307.13" y="1296.915" type="curve" smooth="yes"/>
      <point x="160.66500000000002" y="1296.915"/>
      <point x="84.33" y="1206.615"/>
      <point x="84.33" y="1052.8049999999998" type="curve" smooth="yes"/>
      <point x="84.33" y="903.325" type="line" smooth="yes"/>
      <point x="84.33" y="749.22"/>
      <point x="160.66500000000002" y="658.6850000000001"/>
    </contour>
    <contour>
      <point x="307.13" y="741.86" type="curve" smooth="yes"/>
      <point x="225.00500000000002" y="741.86"/>
      <point x="182.66500000000002" y="795.61"/>
      <point x="182.66500000000002" y="899.705" type="curve" smooth="yes"/>
      <point x="182.66500000000002" y="1056.16" type="line" smooth="yes"/>
      <point x="182.66500000000002" y="1159.2549999999999"/>
      <point x="224.50500000000002" y="1214.27"/>
      <point x="307.13" y="1214.27" type="curve" smooth="yes"/>
      <point x="389.02" y="1214.27"/>
      <point x="430.85999999999996" y="1159.2549999999999"/>
      <point x="430.85999999999996" y="1056.16" type="curve" smooth="yes"/>
      <point x="430.85999999999996" y="899.705" type="line" smooth="yes"/>
      <point x="430.85999999999996" y="795.61"/>
      <point x="389.255" y="741.86"/>
    </contour>
  </outline>
</glyph>
<glyph name="ampersand" format="2">
  <advance width="995.4699999999999"/>
  <unicode hex="0026"/>
  <outline>
    <contour>
      <point x="876.8249999999999" y="0.0" type="curve"/>
      <point x="1008.065" y="0.0" type="line"/>
      <point x="1008.065" y="8.33" type="line"/>
      <point x="938.165" y="95.355"/>
      <point x="836.8449999999999" y="227.375"/>
      <point x="769.24" y="308.865" type="curve"/>
      <point x="743.87" y="341.945" type="line"/>
      <point x="372.44" y="780.39" type="line" smooth="yes"/>
      <point x="306.88000000000005" y="860.125"/>
      <point x="276.765" y="921.03"/>
      <point x="276.765" y="1003.13" type="curve" smooth="yes"/>
      <point x="276.765" y="1011.685" type="line" smooth="yes"/>
      <point x="276.765" y="1121.855"/>
      <point x="331.405" y="1189.895"/>
      <point x="467.67499999999995" y="1189.895" type="curve" smooth="yes"/>
      <point x="571.785" y="1189.895"/>
      <point x="651.9050000000001" y="1156.6049999999998"/>
      <point x="715.995" y="1114.465" type="curve"/>
      <point x="705.49" y="1225.6299999999999" type="line"/>
      <point x="651.6899999999999" y="1263.4199999999998"/>
      <point x="566.51" y="1296.915"/>
      <point x="448.475" y="1296.915" type="curve" smooth="yes"/>
      <point x="249.4" y="1296.915"/>
      <point x="155.64499999999998" y="1189.555"/>
      <point x="155.64499999999998" y="1014.63" type="curve" smooth="yes"/>
      <point x="155.64499999999998" y="1005.515" type="line" smooth="yes"/>
      <point x="155.64499999999998" y="898.835"/>
      <point x="191.295" y="825.16"/>
      <point x="264.065" y="736.3299999999999" type="curve"/>
      <point x="283.725" y="709.43" type="line"/>
      <point x="680.79" y="244.205" type="line"/>
      <point x="696.09" y="224.17" type="line"/>
      <point x="729.795" y="185.61"/>
      <point x="839.4149999999998" y="44.295"/>
    </contour>
    <contour>
      <point x="413.555" y="-19.15" type="curve" smooth="yes"/>
      <point x="591.8399999999999" y="-19.15"/>
      <point x="688.96" y="64.72500000000001"/>
      <point x="764.765" y="219.475" type="curve"/>
      <point x="789.9350000000001" y="251.855" type="line"/>
      <point x="855.72" y="391.595"/>
      <point x="894.1949999999999" y="579.8349999999999"/>
      <point x="910.43" y="809.74" type="curve"/>
      <point x="794.5799999999999" y="809.74" type="line"/>
      <point x="781.76" y="617.645"/>
      <point x="756.7049999999999" y="459.60499999999996"/>
      <point x="710.7900000000001" y="333.495" type="curve"/>
      <point x="684.9449999999999" y="286.61" type="line"/>
      <point x="627.98" y="154.11499999999998"/>
      <point x="550.635" y="82.835"/>
      <point x="423.535" y="82.835" type="curve" smooth="yes"/>
      <point x="278.325" y="82.835"/>
      <point x="204.04500000000002" y="163.145"/>
      <point x="204.04500000000002" y="326.79" type="curve" smooth="yes"/>
      <point x="204.04500000000002" y="429.20000000000005" type="line" smooth="yes"/>
      <point x="204.04500000000002" y="552.0"/>
      <point x="238.29999999999998" y="627.7149999999999"/>
      <point x="333.16" y="683.205" type="curve"/>
      <point x="269.91" y="768.325" type="line"/>
      <point x="130.17000000000002" y="683.82"/>
      <point x="83.985" y="575.18"/>
      <point x="83.985" y="419.075" type="curve" smooth="yes"/>
      <point x="83.985" y="319.66499999999996" type="line" smooth="yes"/>
      <point x="83.985" y="98.83"/>
      <point x="192.525" y="-19.15"/>
    </contour>
  </outline>
</glyph>
<glyph name="quotesingle" format="2">
  <advance width="295.34"/>
  <unicode hex="0027"/>
  <outline>
    <contour>
      <point x="193.64499999999998" y="872.18" type="line"/>
      <point x="205.3" y="1328.85" type="line"/>
      <point x="90.03999999999999" y="1328.85" type="line"/>
      <point x="101.92999999999999" y="872.18" type="line"/>
    </contour>
  </outline>
</glyph>
<glyph name="parenleft" format="2">
  <advance width="477.515"/>
  <unicode hex="0028"/>
  <outline>
    <contour>
      <point x="240.32500000000002" y="654.8249999999999" type="line" smooth="yes"/>
      <point x="240.32500000000002" y="951.825"/>
      <point x="292.36" y="1150.785"/>
      <point x="431.595" y="1351.2649999999999" type="curve"/>
      <point x="311.03999999999996" y="1351.2649999999999" type="line"/>
      <point x="180.865" y="1163.025"/>
      <point x="128.39000000000001" y="966.8"/>
      <point x="128.39000000000001" y="659.885" type="curve" smooth="yes"/>
      <point x="128.39000000000001" y="451.025" type="line" smooth="yes"/>
      <point x="128.39000000000001" y="143.815"/>
      <point x="180.07" y="-52.379999999999995"/>
      <point x="310.51" y="-240.35500000000002" type="curve"/>
      <point x="431.595" y="-240.35500000000002" type="line"/>
      <point x="292.36" y="-39.64"/>
      <point x="240.32500000000002" y="158.82"/>
      <point x="240.32500000000002" y="456.85" type="curve" smooth="yes"/>
    </contour>
  </outline>
</glyph>
<glyph name="parenright" format="2">
  <advance width="478.04499999999996"/>
  <unicode hex="0029"/>
  <outline>
    <contour>
      <point x="237.72" y="654.8249999999999" type="curve" smooth="yes"/>
      <point x="237.72" y="456.85" type="line" smooth="yes"/>
      <point x="237.72" y="158.82"/>
      <point x="185.685" y="-39.64"/>
      <point x="46.45" y="-240.35500000000002" type="curve"/>
      <point x="167.53500000000003" y="-240.35500000000002" type="line"/>
      <point x="297.975" y="-52.379999999999995"/>
      <point x="349.655" y="143.815"/>
      <point x="349.655" y="451.025" type="curve" smooth="yes"/>
      <point x="349.655" y="659.885" type="line" smooth="yes"/>
      <point x="349.655" y="966.8"/>
      <point x="297.18" y="1163.025"/>
      <point x="167.00500000000002" y="1351.2649999999999" type="curve"/>
      <point x="46.45" y="1351.2649999999999" type="line"/>
      <point x="185.685" y="1150.785"/>
      <point x="237.72" y="951.825"/>
    </contour>
  </outline>
</glyph>
<glyph name="asterisk" format="2">
  <advance width="687.455"/>
  <unicode hex="002A"/>
  <outline>
    <contour>
      <point x="202.38" y="710.635" type="line"/>
      <point x="343.445" y="918.875" type="line"/>
      <point x="342.97999999999996" y="918.875" type="line"/>
      <point x="484.075" y="710.635" type="line"/>
      <point x="565.63" y="764.965" type="line"/>
      <point x="405.615" y="964.4350000000001" type="line"/>
      <point x="404.5" y="962.09" type="line"/>
      <point x="633.645" y="1018.28" type="line"/>
      <point x="610.3950000000001" y="1112.5800000000002" type="line"/>
      <point x="381.1" y="1034.465" type="line"/>
      <point x="383.535" y="1032.0" type="line"/>
      <point x="395.455" y="1278.0" type="line"/>
      <point x="292.235" y="1278.0" type="line"/>
      <point x="303.655" y="1032.0" type="line"/>
      <point x="305.62" y="1034.465" type="line"/>
      <point x="76.325" y="1112.5800000000002" type="line"/>
      <point x="53.81" y="1018.28" type="line"/>
      <point x="282.19" y="962.09" type="line"/>
      <point x="281.31" y="964.4350000000001" type="line"/>
      <point x="121.05999999999999" y="764.965" type="line"/>
    </contour>
  </outline>
</glyph>
<glyph name="plus" format="2">
  <advance width="819.61"/>
  <unicode hex="002B"/>
  <outline>
    <contour>
      <point x="460.635" y="258.67" type="line"/>
      <point x="460.635" y="1000.9449999999999" type="line"/>
      <point x="359.445" y="1000.9449999999999" type="line"/>
      <point x="359.445" y="258.67" type="line"/>
    </contour>
    <contour>
      <point x="83.875" y="581.905" type="line"/>
      <point x="735.735" y="581.905" type="line"/>
      <point x="735.735" y="677.71" type="line"/>
      <point x="83.875" y="677.71" type="line"/>
    </contour>
  </outline>
</glyph>
<glyph name="comma" format="2">
  <advance width="308.47"/>
  <unicode hex="002C"/>
  <outline>
    <contour>
      <point x="212.305" y="249.48000000000002" type="curve"/>
      <point x="100.86999999999999" y="249.48000000000002" type="line"/>
      <point x="105.83999999999999" y="209.77"/>
      <point x="108.54499999999999" y="171.035"/>
      <point x="108.54499999999999" y="129.385" type="curve" smooth="yes"/>
      <point x="108.54499999999999" y="-11.149999999999997"/>
      <point x="76.54499999999999" y="-124.27"/>
      <point x="13.519999999999998" y="-226.59500000000003" type="curve"/>
      <point x="91.49499999999999" y="-259.34" type="line"/>
      <point x="184.79999999999998" y="-140.04"/>
      <point x="221.57" y="-15.384999999999998"/>
      <point x="221.57" y="133.595" type="curve" smooth="yes"/>
      <point x="221.57" y="181.535"/>
      <point x="215.835" y="226.21"/>
    </contour>
  </outline>
</glyph>
<glyph name="hyphen" format="2">
  <advance width="704.3"/>
  <unicode hex="002D"/>
  <outline>
    <contour>
      <point x="115.775" y="478.72" type="line"/>
      <point x="588.76" y="478.72" type="line"/>
      <point x="588.76" y="575.8199999999999" type="line"/>
      <point x="115.775" y="575.8199999999999" type="line"/>
    </contour>
  </outline>
</glyph>
<glyph name="period" format="2">
  <advance width="303.705"/>
  <unicode hex="002E"/>
  <outline>
    <contour>
      <point x="151.5" y="-15.27" type="curve" smooth="yes"/>
      <point x="201.35" y="-15.27"/>
      <point x="225.30500000000004" y="16.745"/>
      <point x="225.30500000000004" y="76.65" type="curve" smooth="yes"/>
      <point x="225.30500000000004" y="90.385" type="line" smooth="yes"/>
      <point x="225.30500000000004" y="149.29"/>
      <point x="201.35" y="181.305"/>
      <point x="151.5" y="181.305" type="curve" smooth="yes"/>
      <point x="101.06" y="181.305"/>
      <point x="78.4" y="149.29"/>
      <point x="78.4" y="90.385" type="curve" smooth="yes"/>
      <point x="78.4" y="76.65" type="line" smooth="yes"/>
      <point x="78.4" y="16.745"/>
      <point x="101.06" y="-15.27"/>
    </contour>
  </outline>
</glyph>
<glyph name="slash" format="2">
  <advance width="654.785"/>
  <unicode hex="002F"/>
  <outline>
    <contour>
      <point x="40.86" y="-238.65" type="line"/>
      <point x="149.35000000000002" y="-238.65" type="line"/>
      <point x="613.925" y="1345.6200000000001" type="line"/>
      <point x="505.96500000000003" y="1345.6200000000001" type="line"/>
    </contour>
  </outline>
</glyph>
<glyph name="zero" format="2">
  <advance width="901.7450000000001"/>
  <unicode hex="0030"/>
  <outline>
    <contour>
      <point x="450.74000000000007" y="-19.680000000000003" type="curve" smooth="yes"/>
      <point x="683.155" y="-19.680000000000003"/>
      <point x="799.5550000000001" y="118.715"/>
      <point x="799.5550000000001" y="379.09499999999997" type="curve"/>
      <point x="799.5550000000001" y="898.1999999999999" type="line"/>
      <point x="799.5550000000001" y="1158.7849999999999"/>
      <point x="683.155" y="1297.68"/>
      <point x="450.74000000000007" y="1297.68" type="curve" smooth="yes"/>
      <point x="218.06000000000003" y="1297.68"/>
      <point x="102.19" y="1158.7849999999999"/>
      <point x="102.19" y="898.1999999999999" type="curve"/>
      <point x="102.19" y="379.09499999999997" type="line"/>
      <point x="102.19" y="118.715"/>
      <point x="218.325" y="-19.680000000000003"/>
    </contour>
    <contour>
      <point x="450.74000000000007" y="81.53999999999999" type="curve" smooth="yes"/>
      <point x="295.295" y="81.53999999999999"/>
      <point x="222.04500000000002" y="182.73"/>
      <point x="222.04500000000002" y="372.29499999999996" type="curve" smooth="yes"/>
      <point x="222.04500000000002" y="905.47" type="line" smooth="yes"/>
      <point x="222.04500000000002" y="1095.27"/>
      <point x="295.03" y="1196.725"/>
      <point x="450.74000000000007" y="1196.725" type="curve" smooth="yes"/>
      <point x="606.45" y="1196.725"/>
      <point x="679.6999999999999" y="1095.27"/>
      <point x="679.6999999999999" y="905.47" type="curve" smooth="yes"/>
      <point x="679.6999999999999" y="372.29499999999996" type="line" smooth="yes"/>
      <point x="679.6999999999999" y="182.73"/>
      <point x="606.45" y="81.53999999999999"/>
    </contour>
  </outline>
</glyph>
<glyph name="one" format="2">
  <advance width="556.105"/>
  <unicode hex="0031"/>
  <outline>
    <contour>
      <point x="305.595" y="0.0" type="line"/>
      <point x="423.595" y="0.0" type="line"/>
      <point x="423.595" y="1278.0" type="line"/>
      <point x="297.91" y="1278.0" type="line"/>
      <point x="41.67" y="1083.76" type="line"/>
      <point x="39.875" y="958.88" type="line"/>
      <point x="294.005" y="1151.485" type="line"/>
      <point x="305.595" y="1151.485" type="line"/>
    </contour>
  </outline>
</glyph>
<glyph name="two" format="2">
  <advance width="735.43"/>
  <unicode hex="0032"/>
  <outline>
    <contour>
      <point x="60.315000000000005" y="0.0" type="line"/>
      <point x="665.53" y="0.0" type="line"/>
      <point x="665.53" y="103.9" type="line"/>
      <point x="142.675" y="103.9" type="line"/>
      <point x="191.86" y="77.775" type="line"/>
      <point x="191.86" y="111.225" type="line"/>
      <point x="406.895" y="413.40500000000003" type="line" smooth="yes"/>
      <point x="560.9799999999999" y="629.5"/>
      <point x="650.9150000000001" y="758.4350000000001"/>
      <point x="650.9150000000001" y="944.1049999999999" type="curve" smooth="yes"/>
      <point x="650.9150000000001" y="973.715" type="line" smooth="yes"/>
      <point x="650.9150000000001" y="1179.785"/>
      <point x="549.9" y="1296.385"/>
      <point x="342.34000000000003" y="1296.385" type="curve" smooth="yes"/>
      <point x="221.57" y="1296.385"/>
      <point x="131.74" y="1252.625"/>
      <point x="75.735" y="1212.685" type="curve"/>
      <point x="64.965" y="1101.0200000000002" type="line"/>
      <point x="134.14000000000001" y="1149.485"/>
      <point x="217.29000000000002" y="1190.1599999999999"/>
      <point x="320.40500000000003" y="1190.1599999999999" type="curve" smooth="yes"/>
      <point x="465.01000000000005" y="1190.1599999999999"/>
      <point x="531.325" y="1108.8799999999999"/>
      <point x="531.325" y="961.7900000000001" type="curve" smooth="yes"/>
      <point x="531.325" y="932.7099999999999" type="line" smooth="yes"/>
      <point x="531.325" y="784.415"/>
      <point x="453.3399999999999" y="668.495"/>
      <point x="309.615" y="466.03000000000003" type="curve" smooth="yes"/>
      <point x="60.315000000000005" y="117.58" type="line"/>
    </contour>
  </outline>
</glyph>
<glyph name="three" format="2">
  <advance width="766.865"/>
  <unicode hex="0033"/>
  <outline>
    <contour>
      <point x="342.775" y="-18.619999999999997" type="curve" smooth="yes"/>
      <point x="579.395" y="-18.619999999999997"/>
      <point x="683.7049999999999" y="105.3"/>
      <point x="683.7049999999999" y="307.725" type="curve" smooth="yes"/>
      <point x="683.7049999999999" y="389.825" type="line" smooth="yes"/>
      <point x="683.7049999999999" y="548.79"/>
      <point x="619.415" y="646.485"/>
      <point x="449.92999999999995" y="666.585" type="curve"/>
      <point x="452.435" y="654.135" type="line"/>
      <point x="453.84499999999997" y="667.565" type="line"/>
      <point x="613.5" y="684.93"/>
      <point x="675.235" y="788.095"/>
      <point x="675.235" y="933.68" type="curve" smooth="yes"/>
      <point x="675.235" y="991.61" type="line" smooth="yes"/>
      <point x="675.235" y="1184.44"/>
      <point x="580.895" y="1296.65"/>
      <point x="359.37" y="1296.65" type="curve" smooth="yes"/>
      <point x="232.18499999999997" y="1296.65"/>
      <point x="136.975" y="1259.035"/>
      <point x="77.585" y="1217.8899999999999" type="curve"/>
      <point x="67.08" y="1109.58" type="line"/>
      <point x="136.965" y="1154.25"/>
      <point x="227.97000000000003" y="1191.72"/>
      <point x="338.465" y="1191.72" type="curve" smooth="yes"/>
      <point x="496.35999999999996" y="1191.72"/>
      <point x="556.175" y="1114.825"/>
      <point x="556.175" y="973.0600000000001" type="curve" smooth="yes"/>
      <point x="556.175" y="923.14" type="line" smooth="yes"/>
      <point x="556.175" y="791.515"/>
      <point x="497.59" y="713.505"/>
      <point x="329.93" y="709.71" type="curve" smooth="yes"/>
      <point x="183.905" y="706.65" type="line"/>
      <point x="183.905" y="609.87" type="line"/>
      <point x="327.05" y="607.3100000000001" type="line" smooth="yes"/>
      <point x="497.24" y="603.75"/>
      <point x="563.3199999999999" y="535.855"/>
      <point x="563.3199999999999" y="387.46999999999997" type="curve" smooth="yes"/>
      <point x="563.3199999999999" y="316.705" type="line" smooth="yes"/>
      <point x="563.3199999999999" y="171.91"/>
      <point x="496.51000000000005" y="88.43"/>
      <point x="329.525" y="88.43" type="curve" smooth="yes"/>
      <point x="221.465" y="88.43"/>
      <point x="129.20000000000002" y="124.635"/>
      <point x="59.285" y="170.485" type="curve"/>
      <point x="70.32" y="52.815000000000005" type="line"/>
      <point x="123.08999999999999" y="19.669999999999998"/>
      <point x="221.03500000000003" y="-18.619999999999997"/>
    </contour>
  </outline>
</glyph>
<glyph name="four" format="2">
  <advance width="826.22"/>
  <unicode hex="0034"/>
  <outline>
    <contour>
      <point x="542.855" y="0.0" type="line"/>
      <point x="655.8199999999999" y="0.0" type="line"/>
      <point x="655.8199999999999" y="1278.0" type="line"/>
      <point x="448.56999999999994" y="1278.0" type="line"/>
      <point x="47.114999999999995" y="366.91" type="line"/>
      <point x="47.114999999999995" y="246.32999999999998" type="line"/>
      <point x="796.985" y="246.32999999999998" type="line"/>
      <point x="796.985" y="348.14" type="line"/>
      <point x="112.80999999999999" y="348.14" type="line"/>
      <point x="160.905" y="304.88" type="line"/>
      <point x="160.905" y="358.995" type="line"/>
      <point x="523.655" y="1191.735" type="line"/>
      <point x="547.8" y="1191.735" type="line"/>
      <point x="542.855" y="909.615" type="line"/>
    </contour>
  </outline>
</glyph>
<glyph name="five" format="2">
  <advance width="820.96"/>
  <unicode hex="0035"/>
  <outline>
    <contour>
      <point x="393.36" y="-20.06" type="curve" smooth="yes"/>
      <point x="628.17" y="-20.06"/>
      <point x="732.5350000000001" y="108.925"/>
      <point x="732.5350000000001" y="328.89" type="curve" smooth="yes"/>
      <point x="732.5350000000001" y="480.23499999999996" type="line" smooth="yes"/>
      <point x="732.5350000000001" y="683.335"/>
      <point x="648.625" y="804.4599999999999"/>
      <point x="471.38499999999993" y="804.4599999999999" type="curve" smooth="yes"/>
      <point x="341.625" y="804.4599999999999"/>
      <point x="265.28000000000003" y="741.025"/>
      <point x="226.43" y="651.97" type="curve"/>
      <point x="224.51" y="649.62" type="line"/>
      <point x="228.01" y="838.95" type="line"/>
      <point x="228.01" y="1174.5700000000002" type="line"/>
      <point x="707.76" y="1174.5700000000002" type="line"/>
      <point x="707.76" y="1278.0" type="line"/>
      <point x="113.63000000000001" y="1278.0" type="line"/>
      <point x="113.63000000000001" y="572.74" type="line"/>
      <point x="219.065" y="557.495" type="line"/>
      <point x="262.02500000000003" y="650.9799999999999"/>
      <point x="326.51" y="704.505"/>
      <point x="429.84499999999997" y="704.505" type="curve" smooth="yes"/>
      <point x="559.315" y="704.505"/>
      <point x="614.27" y="618.615"/>
      <point x="614.27" y="475.44" type="curve" smooth="yes"/>
      <point x="614.27" y="329.92" type="line" smooth="yes"/>
      <point x="614.27" y="172.68"/>
      <point x="542.9" y="86.72500000000001"/>
      <point x="381.17" y="86.72500000000001" type="curve" smooth="yes"/>
      <point x="268.60999999999996" y="86.72500000000001"/>
      <point x="178.92499999999998" y="124.46000000000001"/>
      <point x="109.305" y="169.57500000000002" type="curve"/>
      <point x="120.83999999999999" y="52.699999999999996" type="line"/>
      <point x="173.14000000000001" y="19.290000000000003"/>
      <point x="265.795" y="-20.06"/>
    </contour>
  </outline>
</glyph>
<glyph name="six" format="2">
  <advance width="859.5300000000001"/>
  <unicode hex="0036"/>
  <outline>
    <contour>
      <point x="444.145" y="-21.12" type="curve" smooth="yes"/>
      <point x="664.41" y="-21.12"/>
      <point x="773.545" y="106.595"/>
      <point x="773.545" y="322.08500000000004" type="curve" smooth="yes"/>
      <point x="773.545" y="471.84499999999997" type="line" smooth="yes"/>
      <point x="773.545" y="685.155"/>
      <point x="681.515" y="809.0150000000001"/>
      <point x="494.97499999999997" y="809.0150000000001" type="curve" smooth="yes"/>
      <point x="329.695" y="809.0150000000001"/>
      <point x="241.06000000000003" y="714.155"/>
      <point x="215.965" y="582.865" type="curve"/>
      <point x="190.805" y="582.865" type="line"/>
      <point x="211.775" y="489.46500000000003" type="line"/>
      <point x="241.655" y="625.665"/>
      <point x="325.44" y="710.6500000000001"/>
      <point x="457.88" y="710.6500000000001" type="curve" smooth="yes"/>
      <point x="597.535" y="710.6500000000001"/>
      <point x="656.87" y="619.6099999999999"/>
      <point x="656.87" y="467.02000000000004" type="curve" smooth="yes"/>
      <point x="656.87" y="321.115" type="line" smooth="yes"/>
      <point x="656.87" y="171.435"/>
      <point x="590.12" y="79.865"/>
      <point x="445.46999999999997" y="79.865" type="curve" smooth="yes"/>
      <point x="296.7" y="79.865"/>
      <point x="216.57" y="174.88"/>
      <point x="216.57" y="363.21" type="curve"/>
      <point x="216.57" y="874.74" type="line" smooth="yes"/>
      <point x="216.57" y="1080.8500000000001"/>
      <point x="299.245" y="1190.1599999999999"/>
      <point x="483.735" y="1190.1599999999999" type="curve" smooth="yes"/>
      <point x="594.1800000000001" y="1190.1599999999999"/>
      <point x="666.39" y="1157.75"/>
      <point x="733.42" y="1114.225" type="curve"/>
      <point x="722.0600000000001" y="1224.8600000000001" type="line"/>
      <point x="666.79" y="1259.7700000000002"/>
      <point x="584.25" y="1296.1200000000001"/>
      <point x="463.86" y="1296.1200000000001" type="curve" smooth="yes"/>
      <point x="219.24" y="1296.1200000000001"/>
      <point x="99.63000000000001" y="1145.22"/>
      <point x="99.63000000000001" y="879.51" type="curve" smooth="yes"/>
      <point x="99.63000000000001" y="372.395" type="line" smooth="yes"/>
      <point x="99.63000000000001" y="112.57"/>
      <point x="220.91000000000003" y="-21.12"/>
    </contour>
  </outline>
</glyph>
<glyph name="seven" format="2">
  <advance width="716.5250000000001"/>
  <unicode hex="0037"/>
  <outline>
    <contour>
      <point x="169.125" y="0.0" type="line"/>
      <point x="295.16" y="0.0" type="line"/>
      <point x="667.41" y="1172.625" type="line"/>
      <point x="667.41" y="1278.0" type="line"/>
      <point x="49.17" y="1278.0" type="line"/>
      <point x="49.17" y="1174.305" type="line"/>
      <point x="545.73" y="1174.305" type="line"/>
    </contour>
  </outline>
</glyph>
<glyph name="eight" format="2">
  <advance width="877.9949999999999"/>
  <unicode hex="0038"/>
  <outline>
    <contour>
      <point x="438.615" y="-23.09" type="curve" smooth="yes"/>
      <point x="684.685" y="-23.09"/>
      <point x="791.63" y="97.16"/>
      <point x="791.63" y="300.98499999999996" type="curve" smooth="yes"/>
      <point x="791.63" y="374.28999999999996" type="line" smooth="yes"/>
      <point x="791.63" y="540.87"/>
      <point x="713.875" y="640.0749999999999"/>
      <point x="561.745" y="665.5" type="curve"/>
      <point x="561.745" y="667.39" type="line"/>
      <point x="705.7900000000001" y="687.49"/>
      <point x="778.9549999999999" y="781.93"/>
      <point x="778.9549999999999" y="933.4150000000001" type="curve" smooth="yes"/>
      <point x="778.9549999999999" y="992.9599999999999" type="line" smooth="yes"/>
      <point x="778.9549999999999" y="1188.405"/>
      <point x="671.005" y="1298.415"/>
      <point x="438.615" y="1298.415" type="curve" smooth="yes"/>
      <point x="207.28500000000003" y="1298.415"/>
      <point x="99.53999999999999" y="1188.405"/>
      <point x="99.53999999999999" y="992.9599999999999" type="curve" smooth="yes"/>
      <point x="99.53999999999999" y="933.4150000000001" type="line" smooth="yes"/>
      <point x="99.53999999999999" y="781.4"/>
      <point x="172.47" y="687.225"/>
      <point x="316.515" y="667.39" type="curve"/>
      <point x="316.515" y="665.5" type="line"/>
      <point x="164.885" y="640.34"/>
      <point x="86.63" y="541.135"/>
      <point x="86.63" y="374.28999999999996" type="curve" smooth="yes"/>
      <point x="86.63" y="300.98499999999996" type="line" smooth="yes"/>
      <point x="86.63" y="95.835"/>
      <point x="195.93" y="-23.09"/>
    </contour>
    <contour>
      <point x="439.41" y="77.895" type="curve" smooth="yes"/>
      <point x="279.465" y="77.895"/>
      <point x="204.925" y="160.735"/>
      <point x="204.925" y="305.66999999999996" type="curve" smooth="yes"/>
      <point x="204.925" y="382.59000000000003" type="line" smooth="yes"/>
      <point x="204.925" y="522.585"/>
      <point x="280.5" y="599.98"/>
      <point x="437.555" y="612.7" type="curve"/>
      <point x="596.1700000000001" y="600.51"/>
      <point x="673.1" y="523.38"/>
      <point x="673.1" y="382.59000000000003" type="curve" smooth="yes"/>
      <point x="673.1" y="305.66999999999996" type="line" smooth="yes"/>
      <point x="673.1" y="161.0"/>
      <point x="599.325" y="77.895"/>
    </contour>
    <contour>
      <point x="440.2049999999999" y="707.0" type="curve"/>
      <point x="293.77" y="716.8050000000001"/>
      <point x="217.01" y="788.14"/>
      <point x="217.01" y="925.88" type="curve" smooth="yes"/>
      <point x="217.01" y="985.8900000000001" type="line" smooth="yes"/>
      <point x="217.01" y="1122.915"/>
      <point x="286.67" y="1198.7549999999999"/>
      <point x="438.615" y="1198.7549999999999" type="curve" smooth="yes"/>
      <point x="591.855" y="1198.7549999999999"/>
      <point x="661.485" y="1122.915"/>
      <point x="661.485" y="985.8900000000001" type="curve" smooth="yes"/>
      <point x="661.485" y="925.88" type="line" smooth="yes"/>
      <point x="661.485" y="788.405"/>
      <point x="583.695" y="716.01"/>
    </contour>
  </outline>
</glyph>
<glyph name="nine" format="2">
  <advance width="858.5899999999999"/>
  <unicode hex="0039"/>
  <outline>
    <contour>
      <point x="417.06" y="1296.915" type="curve" smooth="yes"/>
      <point x="196.325" y="1296.915"/>
      <point x="85.985" y="1168.495"/>
      <point x="85.985" y="952.77" type="curve" smooth="yes"/>
      <point x="85.985" y="801.915" type="line" smooth="yes"/>
      <point x="85.985" y="590.725"/>
      <point x="177.10500000000002" y="465.72"/>
      <point x="370.495" y="465.72" type="curve" smooth="yes"/>
      <point x="531.8349999999999" y="465.72"/>
      <point x="618.5" y="560.58"/>
      <point x="643.5649999999999" y="691.635" type="curve"/>
      <point x="668.725" y="691.635" type="line"/>
      <point x="647.755" y="784.505" type="line"/>
      <point x="617.7" y="648.335"/>
      <point x="535.65" y="564.085"/>
      <point x="408.12" y="564.085" type="curve" smooth="yes"/>
      <point x="262.645" y="564.085"/>
      <point x="202.66" y="655.8299999999999"/>
      <point x="202.66" y="809.24" type="curve" smooth="yes"/>
      <point x="202.66" y="954.2099999999999" type="line" smooth="yes"/>
      <point x="202.66" y="1103.6550000000002"/>
      <point x="269.675" y="1195.9299999999998"/>
      <point x="415.73499999999996" y="1195.9299999999998" type="curve" smooth="yes"/>
      <point x="569.5949999999999" y="1195.9299999999998"/>
      <point x="642.02" y="1100.5049999999999"/>
      <point x="642.02" y="913.5899999999999" type="curve"/>
      <point x="642.02" y="398.96" type="line" smooth="yes"/>
      <point x="642.02" y="191.975"/>
      <point x="559.405" y="85.4"/>
      <point x="371.24" y="85.4" type="curve" smooth="yes"/>
      <point x="265.29" y="85.4"/>
      <point x="190.495" y="115.93"/>
      <point x="123.73" y="156.60500000000002" type="curve"/>
      <point x="135.59" y="41.26" type="line"/>
      <point x="188.625" y="10.525"/>
      <point x="270.01500000000004" y="-20.855"/>
      <point x="386.61" y="-20.855" type="curve" smooth="yes"/>
      <point x="639.025" y="-20.855"/>
      <point x="758.7249999999999" y="126.51499999999999"/>
      <point x="758.7249999999999" y="394.19" type="curve" smooth="yes"/>
      <point x="758.7249999999999" y="905.435" type="line" smooth="yes"/>
      <point x="758.7249999999999" y="1162.58"/>
      <point x="644.1800000000001" y="1296.915"/>
    </contour>
  </outline>
</glyph>
<glyph name="less" format="2">
  <advance width="855.1550000000001"/>
  <unicode hex="003C"/>
  <outline>
    <contour>
      <point x="169.11" y="637.91" type="line"/>
      <point x="735.735" y="806.49" type="line"/>
      <point x="735.735" y="908.18" type="line"/>
      <point x="83.875" y="709.345" type="line"/>
      <point x="83.875" y="550.005" type="line"/>
      <point x="735.735" y="351.17" type="line"/>
      <point x="735.735" y="452.86" type="line"/>
      <point x="169.11" y="621.4399999999999" type="line"/>
    </contour>
  </outline>
</glyph>
<glyph name="equal" format="2">
  <advance width="854.07"/>
  <unicode hex="003D"/>
  <outline>
    <contour>
      <point x="101.10499999999999" y="399.7" type="line"/>
      <point x="752.965" y="399.7" type="line"/>
      <point x="752.965" y="495.74" type="line"/>
      <point x="101.10499999999999" y="495.74" type="line"/>
    </contour>
    <contour>
      <point x="101.10499999999999" y="763.64" type="line"/>
      <point x="752.965" y="763.64" type="line"/>
      <point x="752.965" y="859.6800000000001" type="line"/>
      <point x="101.10499999999999" y="859.6800000000001" type="line"/>
    </contour>
  </outline>
</glyph>
<glyph name="greater" format="2">
  <advance width="855.1550000000001"/>
  <unicode hex="003E"/>
  <outline>
    <contour>
      <point x="686.045" y="637.91" type="line"/>
      <point x="686.045" y="621.4399999999999" type="line"/>
      <point x="119.42" y="452.86" type="line"/>
      <point x="119.42" y="351.17" type="line"/>
      <point x="771.28" y="550.005" type="line"/>
      <point x="771.28" y="709.345" type="line"/>
      <point x="119.42" y="908.18" type="line"/>
      <point x="119.42" y="806.49" type="line"/>
    </contour>
  </outline>
</glyph>
<glyph name="question" format="2">
  <advance width="683.08"/>
  <unicode hex="003F"/>
  <outline>
    <contour>
      <point x="195.79500000000002" y="338.58500000000004" type="line"/>
      <point x="300.49" y="338.58500000000004" type="line"/>
      <point x="300.49" y="594.63" type="line"/>
      <point x="229.41000000000003" y="549.76" type="line"/>
      <point x="307.13" y="559.23" type="line"/>
      <point x="521.085" y="598.72"/>
      <point x="597.07" y="695.75"/>
      <point x="597.07" y="884.115" type="curve" smooth="yes"/>
      <point x="597.07" y="1001.0699999999999" type="line" smooth="yes"/>
      <point x="597.07" y="1191.64"/>
      <point x="511.87999999999994" y="1296.15"/>
      <point x="312.685" y="1296.15" type="curve" smooth="yes"/>
      <point x="201.24" y="1296.15"/>
      <point x="111.29499999999999" y="1258.33"/>
      <point x="59.32" y="1223.95" type="curve"/>
      <point x="46.16499999999999" y="1121.115" type="line"/>
      <point x="111.05000000000001" y="1161.64"/>
      <point x="190.37" y="1194.105"/>
      <point x="285.92" y="1194.105" type="curve" smooth="yes"/>
      <point x="428.28499999999997" y="1194.105"/>
      <point x="481.1" y="1124.765"/>
      <point x="481.1" y="986.3199999999999" type="curve" smooth="yes"/>
      <point x="481.1" y="880.26" type="line" smooth="yes"/>
      <point x="481.1" y="742.2550000000001"/>
      <point x="429.31500000000005" y="664.56"/>
      <point x="266.8" y="634.0400000000001" type="curve" smooth="yes"/>
      <point x="195.79500000000002" y="625.895" type="line"/>
    </contour>
    <contour>
      <point x="247.245" y="-15.8" type="curve" smooth="yes"/>
      <point x="296.83" y="-15.8"/>
      <point x="320.785" y="16.215"/>
      <point x="320.785" y="75.59" type="curve" smooth="yes"/>
      <point x="320.785" y="88.59" type="line" smooth="yes"/>
      <point x="320.785" y="147.23"/>
      <point x="296.83" y="178.98000000000002"/>
      <point x="247.245" y="178.98000000000002" type="curve" smooth="yes"/>
      <point x="197.59999999999997" y="178.98000000000002"/>
      <point x="174.94" y="147.23"/>
      <point x="174.94" y="88.59" type="curve" smooth="yes"/>
      <point x="174.94" y="75.59" type="line" smooth="yes"/>
      <point x="174.94" y="16.215"/>
      <point x="197.59999999999997" y="-15.8"/>
    </contour>
  </outline>
</glyph>
<glyph name="at" format="2">
  <advance width="1426.605"/>
  <unicode hex="0040"/>
  <outline>
    <contour>
      <point x="633.03" y="72.025" type="curve" smooth="yes"/>
      <point x="754.91" y="72.025"/>
      <point x="820.605" y="142.22"/>
      <point x="850.0799999999999" y="250.29000000000002" type="curve"/>
      <point x="873.83" y="250.29000000000002" type="line"/>
      <point x="858.445" y="334.45500000000004" type="line"/>
      <point x="830.51" y="229.84"/>
      <point x="769.935" y="165.505"/>
      <point x="682.105" y="165.505" type="curve" smooth="yes"/>
      <point x="594.215" y="165.505"/>
      <point x="551.05" y="218.785"/>
      <point x="551.05" y="320.08500000000004" type="curve" smooth="yes"/>
      <point x="551.05" y="351.49"/>
      <point x="553.725" y="384.63"/>
      <point x="576.8700000000001" y="612.955" type="curve" smooth="yes"/>
      <point x="591.25" y="752.4549999999999"/>
      <point x="643.325" y="826.735"/>
      <point x="746.0400000000001" y="826.735" type="curve" smooth="yes"/>
      <point x="832.815" y="826.735"/>
      <point x="888.71" y="765.6899999999999"/>
      <point x="888.945" y="656.215" type="curve" smooth="yes"/>
      <point x="888.945" y="647.6850000000001"/>
      <point x="888.945" y="638.9200000000001"/>
      <point x="888.1800000000001" y="629.89" type="curve"/>
      <point x="924.4299999999998" y="728.5500000000001" type="line"/>
      <point x="897.5" y="728.5500000000001" type="line"/>
      <point x="894.7799999999999" y="843.465"/>
      <point x="834.4399999999999" y="917.86"/>
      <point x="716.33" y="917.86" type="curve" smooth="yes"/>
      <point x="562.875" y="917.86"/>
      <point x="486.16999999999996" y="811.1650000000001"/>
      <point x="464.78499999999997" y="600.855" type="curve" smooth="yes"/>
      <point x="441.875" y="372.38"/>
      <point x="438.96500000000003" y="338.83"/>
      <point x="438.96500000000003" y="301.51" type="curve" smooth="yes"/>
      <point x="438.96500000000003" y="152.73499999999999"/>
      <point x="505.99499999999995" y="72.025"/>
    </contour>
    <contour>
      <point x="830.415" y="83.76" type="line"/>
      <point x="933.5500000000001" y="90.295" type="line"/>
      <point x="1019.055" y="903.8299999999999" type="line"/>
      <point x="913.0649999999999" y="903.8299999999999" type="line"/>
      <point x="912.535" y="896.4150000000001" type="line"/>
      <point x="897.3" y="720.975" type="line"/>
      <point x="894.005" y="698.88" type="line"/>
      <point x="852.1800000000001" y="293.09999999999997" type="line"/>
      <point x="854.77" y="272.68" type="line"/>
    </contour>
    <contour>
      <point x="906.89" y="166.495" type="curve"/>
      <point x="830.415" y="83.76" type="line"/>
      <point x="870.57" y="76.2"/>
      <point x="906.7100000000002" y="73.17"/>
      <point x="956.2450000000001" y="73.965" type="curve" smooth="yes"/>
      <point x="1176.08" y="76.35000000000001"/>
      <point x="1278.1499999999999" y="181.85"/>
      <point x="1305.125" y="422.125" type="curve" smooth="yes"/>
      <point x="1319.92" y="556.325"/>
      <point x="1331.595" y="691.005"/>
      <point x="1336.565" y="757.01" type="curve" smooth="yes"/>
      <point x="1362.3549999999998" y="1132.0"/>
      <point x="1141.865" y="1331.855"/>
      <point x="773.565" y="1331.855" type="curve" smooth="yes"/>
      <point x="372.41499999999996" y="1331.855"/>
      <point x="176.92000000000002" y="1109.105"/>
      <point x="135.325" y="687.905" type="curve" smooth="yes"/>
      <point x="123.46999999999998" y="569.545"/>
      <point x="103.21" y="332.02"/>
      <point x="97.36000000000001" y="232.59500000000003" type="curve" smooth="yes"/>
      <point x="77.925" y="-137.99"/>
      <point x="297.115" y="-334.79"/>
      <point x="686.6" y="-334.79" type="curve" smooth="yes"/>
      <point x="898.8149999999999" y="-334.79"/>
      <point x="1056.255" y="-282.265"/>
      <point x="1167.255" y="-208.54500000000002" type="curve"/>
      <point x="1182.7350000000001" y="-107.69000000000001" type="line"/>
      <point x="1078.205" y="-183.675"/>
      <point x="909.135" y="-247.2"/>
      <point x="694.43" y="-247.2" type="curve" smooth="yes"/>
      <point x="354.775" y="-247.2"/>
      <point x="180.23000000000002" y="-74.14999999999999"/>
      <point x="196.19500000000002" y="236.335" type="curve" smooth="yes"/>
      <point x="201.34" y="330.14"/>
      <point x="222.775" y="559.92"/>
      <point x="235.69" y="693.35" type="curve" smooth="yes"/>
      <point x="268.75" y="1039.845"/>
      <point x="424.035" y="1245.325"/>
      <point x="768.65" y="1245.325" type="curve" smooth="yes"/>
      <point x="1092.655" y="1245.325"/>
      <point x="1263.135" y="1065.74"/>
      <point x="1238.73" y="757.48" type="curve" smooth="yes"/>
      <point x="1233.4950000000001" y="697.33"/>
      <point x="1220.26" y="549.7850000000001"/>
      <point x="1206.2900000000002" y="427.955" type="curve" smooth="yes"/>
      <point x="1184.585" y="235.42999999999998"/>
      <point x="1112.31" y="161.94"/>
      <point x="977.8899999999999" y="161.94" type="curve" smooth="yes"/>
      <point x="946.655" y="161.94"/>
      <point x="931.0400000000001" y="162.91"/>
    </contour>
  </outline>
</glyph>
<glyph name="A" format="2">
  <advance width="919.4100000000001"/>
  <unicode hex="0041"/>
  <anchor x="460.20500000000004" y="0.0" name="bottom"/>
  <anchor x="912.6250000000001" y="0.0" name="ogonek"/>
  <anchor x="460.20500000000004" y="1278.0" name="top"/>
  <outline>
    <contour>
      <point x="52.69" y="0.0" type="line"/>
      <point x="171.895" y="0.0" type="line"/>
      <point x="446.73499999999996" y="1193.03" type="line"/>
      <point x="470.47" y="1193.03" type="line"/>
      <point x="747.515" y="0.0" type="line"/>
      <point x="866.72" y="0.0" type="line"/>
      <point x="556.74" y="1278.0" type="line"/>
      <point x="360.465" y="1278.0" type="line"/>
    </contour>
    <contour>
      <point x="230.82" y="397.94" type="line"/>
      <point x="686.825" y="397.94" type="line"/>
      <point x="686.825" y="497.925" type="line"/>
      <point x="230.82" y="497.925" type="line"/>
    </contour>
  </outline>
</glyph>
<glyph name="B" format="2">
  <advance width="921.76"/>
  <unicode hex="0042"/>
  <anchor x="462.73499999999996" y="0.0" name="bottom"/>
  <anchor x="462.73499999999996" y="1278.0" name="top"/>
  <outline>
    <contour>
      <point x="215.255" y="0.0" type="line"/>
      <point x="522.88" y="0.0" type="line" smooth="yes"/>
      <point x="748.85" y="0.0"/>
      <point x="839.6299999999999" y="118.09"/>
      <point x="839.6299999999999" y="315.82" type="curve" smooth="yes"/>
      <point x="839.6299999999999" y="389.825" type="line" smooth="yes"/>
      <point x="839.6299999999999" y="555.5600000000001"/>
      <point x="777.3699999999999" y="653.26"/>
      <point x="609.415" y="674.975" type="curve"/>
      <point x="615.525" y="675.78" type="line"/>
      <point x="761.7800000000001" y="695.31"/>
      <point x="821.4250000000001" y="785.1850000000001"/>
      <point x="821.4250000000001" y="935.15" type="curve" smooth="yes"/>
      <point x="821.4250000000001" y="980.135" type="line" smooth="yes"/>
      <point x="821.4250000000001" y="1166.59"/>
      <point x="732.85" y="1278.0"/>
      <point x="508.34999999999997" y="1278.0" type="curve" smooth="yes"/>
      <point x="212.34" y="1278.0" type="line"/>
      <point x="212.34" y="1177.545" type="line"/>
      <point x="499.93" y="1177.545" type="line" smooth="yes"/>
      <point x="651.345" y="1177.545"/>
      <point x="702.925" y="1097.8"/>
      <point x="702.925" y="964.5600000000001" type="curve" smooth="yes"/>
      <point x="702.925" y="915.02" type="line" smooth="yes"/>
      <point x="702.925" y="786.865"/>
      <point x="649.375" y="706.0899999999999"/>
      <point x="497.40000000000003" y="706.0899999999999" type="curve" smooth="yes"/>
      <point x="218.95499999999998" y="706.0899999999999" type="line"/>
      <point x="218.95499999999998" y="609.7850000000001" type="line"/>
      <point x="496.49" y="609.7850000000001" type="line" smooth="yes"/>
      <point x="665.755" y="609.7850000000001"/>
      <point x="720.335" y="528.51"/>
      <point x="720.335" y="391.27000000000004" type="curve" smooth="yes"/>
      <point x="720.335" y="319.46999999999997" type="line" smooth="yes"/>
      <point x="720.335" y="183.465"/>
      <point x="665.99" y="100.985"/>
      <point x="511.545" y="100.985" type="curve" smooth="yes"/>
      <point x="215.255" y="100.985" type="line"/>
    </contour>
    <contour>
      <point x="135.51000000000002" y="0.0" type="line"/>
      <point x="253.21500000000003" y="0.0" type="line"/>
      <point x="253.21500000000003" y="1278.0" type="line"/>
      <point x="135.51000000000002" y="1278.0" type="line"/>
    </contour>
  </outline>
</glyph>
<glyph name="C" format="2">
  <advance width="787.0"/>
  <unicode hex="0043"/>
  <anchor x="429.81999999999994" y="0.0" name="bottom"/>
  <anchor x="429.81999999999994" y="1278.0" name="top"/>
  <outline>
    <contour>
      <point x="454.585" y="-19.415" type="curve" smooth="yes"/>
      <point x="570.41" y="-19.415"/>
      <point x="658.59" y="21.255000000000003"/>
      <point x="709.77" y="60.75000000000001" type="curve"/>
      <point x="719.775" y="177.655" type="line"/>
      <point x="657.925" y="128.25"/>
      <point x="580.78" y="90.49000000000001"/>
      <point x="476.78499999999997" y="90.49000000000001" type="curve" smooth="yes"/>
      <point x="300.89" y="90.49000000000001"/>
      <point x="220.07500000000002" y="202.095"/>
      <point x="220.07500000000002" y="397.66" type="curve" smooth="yes"/>
      <point x="220.07500000000002" y="882.4300000000001" type="line" smooth="yes"/>
      <point x="220.07500000000002" y="1079.4650000000001"/>
      <point x="299.39000000000004" y="1190.395"/>
      <point x="469.08" y="1190.395" type="curve" smooth="yes"/>
      <point x="573.605" y="1190.395"/>
      <point x="650.13" y="1150.9"/>
      <point x="711.275" y="1103.495" type="curve"/>
      <point x="701.035" y="1216.485" type="line"/>
      <point x="649.12" y="1257.245"/>
      <point x="563.7950000000001" y="1297.415"/>
      <point x="450.0" y="1297.415" type="curve" smooth="yes"/>
      <point x="213.47" y="1297.415"/>
      <point x="99.985" y="1150.285"/>
      <point x="99.985" y="886.67" type="curve" smooth="yes"/>
      <point x="99.985" y="393.15500000000003" type="line" smooth="yes"/>
      <point x="99.985" y="129.185"/>
      <point x="212.14499999999998" y="-19.415"/>
    </contour>
  </outline>
</glyph>
<glyph name="D" format="2">
  <advance width="949.23"/>
  <unicode hex="0044"/>
  <anchor x="465.79" y="0.0" name="bottom"/>
  <anchor x="479.645" y="639.0" name="center"/>
  <anchor x="465.79" y="1278.0" name="top"/>
  <outline>
    <contour>
      <point x="209.31" y="0.0" type="line"/>
      <point x="457.065" y="0.0" type="line" smooth="yes"/>
      <point x="717.24" y="0.0"/>
      <point x="850.0699999999999" y="145.33"/>
      <point x="850.0699999999999" y="408.28499999999997" type="curve" smooth="yes"/>
      <point x="850.0699999999999" y="870.01" type="line" smooth="yes"/>
      <point x="850.0699999999999" y="1133.1699999999998"/>
      <point x="716.445" y="1278.0"/>
      <point x="457.065" y="1278.0" type="curve" smooth="yes"/>
      <point x="211.015" y="1278.0" type="line"/>
      <point x="211.015" y="1176.75" type="line"/>
      <point x="452.12000000000006" y="1176.75" type="line" smooth="yes"/>
      <point x="636.97" y="1176.75"/>
      <point x="730.51" y="1070.27"/>
      <point x="730.51" y="868.775" type="curve" smooth="yes"/>
      <point x="730.51" y="409.28499999999997" type="line" smooth="yes"/>
      <point x="730.51" y="209.025"/>
      <point x="636.97" y="102.04500000000002"/>
      <point x="452.12000000000006" y="102.04500000000002" type="curve" smooth="yes"/>
      <point x="209.31" y="102.04500000000002" type="line"/>
    </contour>
    <contour>
      <point x="135.51000000000002" y="0.0" type="line"/>
      <point x="253.48000000000002" y="0.0" type="line"/>
      <point x="253.48000000000002" y="1278.0" type="line"/>
      <point x="135.51000000000002" y="1278.0" type="line"/>
    </contour>
  </outline>
</glyph>
<glyph name="E" format="2">
  <advance width="814.04"/>
  <unicode hex="0045"/>
  <anchor x="437.16" y="0.0" name="bottom"/>
  <anchor x="771.24" y="0.0" name="ogonek"/>
  <anchor x="437.16" y="1278.0" name="top"/>
  <anchor x="21.41" y="1278.0" name="topleft"/>
  <outline>
    <contour>
      <point x="135.51000000000002" y="0.0" type="line"/>
      <point x="252.42000000000002" y="0.0" type="line"/>
      <point x="252.42000000000002" y="1278.0" type="line"/>
      <point x="135.51000000000002" y="1278.0" type="line"/>
    </contour>
    <contour>
      <point x="183.495" y="0.0" type="line"/>
      <point x="730.99" y="0.0" type="line"/>
      <point x="730.99" y="102.84" type="line"/>
      <point x="183.495" y="102.84" type="line"/>
    </contour>
    <contour>
      <point x="204.86" y="603.1949999999999" type="line"/>
      <point x="717.635" y="603.1949999999999" type="line"/>
      <point x="717.635" y="705.005" type="line"/>
      <point x="204.86" y="705.005" type="line"/>
    </contour>
    <contour>
      <point x="181.29000000000002" y="1175.425" type="line"/>
      <point x="727.96" y="1175.425" type="line"/>
      <point x="727.96" y="1278.0" type="line"/>
      <point x="181.29000000000002" y="1278.0" type="line"/>
    </contour>
  </outline>
</glyph>
<glyph name="F" format="2">
  <advance width="779.0649999999999"/>
  <unicode hex="0046"/>
  <anchor x="389.665" y="0.0" name="bottom"/>
  <anchor x="389.665" y="1278.0" name="top"/>
  <outline>
    <contour>
      <point x="135.51000000000002" y="0.0" type="line"/>
      <point x="254.27500000000003" y="0.0" type="line"/>
      <point x="254.27500000000003" y="1278.0" type="line"/>
      <point x="135.51000000000002" y="1278.0" type="line"/>
    </contour>
    <contour>
      <point x="204.86" y="565.9749999999999" type="line"/>
      <point x="699.63" y="565.9749999999999" type="line"/>
      <point x="699.63" y="669.3449999999999" type="line"/>
      <point x="204.86" y="669.3449999999999" type="line"/>
    </contour>
    <contour>
      <point x="181.29000000000002" y="1174.6299999999999" type="line"/>
      <point x="711.425" y="1174.6299999999999" type="line"/>
      <point x="711.425" y="1278.0" type="line"/>
      <point x="181.29000000000002" y="1278.0" type="line"/>
    </contour>
  </outline>
</glyph>
<glyph name="G" format="2">
  <advance width="926.995"/>
  <unicode hex="0047"/>
  <anchor x="461.735" y="0.0" name="bottom"/>
  <anchor x="461.735" y="1278.0" name="top"/>
  <outline>
    <contour>
      <point x="430.35" y="-19.680000000000003" type="curve" smooth="yes"/>
      <point x="601.405" y="-19.680000000000003"/>
      <point x="676.775" y="78.395"/>
      <point x="702.2750000000001" y="191.885" type="curve"/>
      <point x="814.75" y="190.21" type="line"/>
      <point x="814.75" y="710.1700000000001" type="line"/>
      <point x="485.38500000000005" y="710.1700000000001" type="line"/>
      <point x="485.38500000000005" y="608.565" type="line"/>
      <point x="724.35" y="608.565" type="line"/>
      <point x="700.135" y="657.865" type="line"/>
      <point x="700.135" y="276.82" type="line"/>
      <point x="673.8149999999999" y="172.14"/>
      <point x="601.74" y="85.22"/>
      <point x="466.44500000000005" y="85.22" type="curve" smooth="yes"/>
      <point x="299.56" y="85.22"/>
      <point x="220.07500000000002" y="190.585"/>
      <point x="220.07500000000002" y="380.585" type="curve" smooth="yes"/>
      <point x="220.07500000000002" y="860.875" type="line" smooth="yes"/>
      <point x="220.07500000000002" y="1074.97"/>
      <point x="311.04" y="1191.19"/>
      <point x="505.85999999999996" y="1191.19" type="curve" smooth="yes"/>
      <point x="631.005" y="1191.19"/>
      <point x="723.45" y="1148.105"/>
      <point x="794.5699999999999" y="1096.9050000000002" type="curve"/>
      <point x="783.2700000000001" y="1209.395" type="line"/>
      <point x="722.6750000000001" y="1253.685"/>
      <point x="623.46" y="1297.415"/>
      <point x="486.74999999999994" y="1297.415" type="curve" smooth="yes"/>
      <point x="229.12499999999997" y="1297.415"/>
      <point x="99.985" y="1144.375"/>
      <point x="99.985" y="862.995" type="curve" smooth="yes"/>
      <point x="99.985" y="381.205" type="line" smooth="yes"/>
      <point x="99.985" y="125.275"/>
      <point x="207.72000000000003" y="-19.680000000000003"/>
    </contour>
    <contour>
      <point x="706.52" y="233.85500000000002" type="line"/>
      <point x="700.165" y="0.0" type="line"/>
      <point x="814.75" y="0.0" type="line"/>
      <point x="814.75" y="233.85500000000002" type="line"/>
    </contour>
  </outline>
</glyph>
<glyph name="H" format="2">
  <advance width="992.0550000000001"/>
  <unicode hex="0048"/>
  <anchor x="496.14500000000004" y="0.0" name="bottom"/>
  <anchor x="496.14500000000004" y="639.0" name="center"/>
  <anchor x="496.14500000000004" y="1278.0" name="top"/>
  <anchor x="21.41" y="1278.0" name="topleft"/>
  <outline>
    <contour>
      <point x="254.805" y="0.0" type="line"/>
      <point x="254.805" y="1278.0" type="line"/>
      <point x="135.51000000000002" y="1278.0" type="line"/>
      <point x="135.51000000000002" y="0.0" type="line"/>
    </contour>
    <contour>
      <point x="856.545" y="0.0" type="line"/>
      <point x="856.545" y="1278.0" type="line"/>
      <point x="737.25" y="1278.0" type="line"/>
      <point x="737.25" y="0.0" type="line"/>
    </contour>
    <contour>
      <point x="207.065" y="711.21" type="line"/>
      <point x="207.065" y="609.4" type="line"/>
      <point x="784.66" y="609.4" type="line"/>
      <point x="784.66" y="711.21" type="line"/>
    </contour>
  </outline>
</glyph>
<glyph name="I" format="2">
  <advance width="394.19500000000005"/>
  <unicode hex="0049"/>
  <anchor x="197.20000000000002" y="0.0" name="bottom"/>
  <anchor x="302.825" y="0.0" name="ogonek"/>
  <anchor x="197.20000000000002" y="1278.0" name="top"/>
  <anchor x="21.41" y="1278.0" name="topleft"/>
  <outline>
    <contour>
      <point x="256.745" y="0.0" type="line"/>
      <point x="256.745" y="1278.0" type="line"/>
      <point x="137.45000000000002" y="1278.0" type="line"/>
      <point x="137.45000000000002" y="0.0" type="line"/>
    </contour>
  </outline>
</glyph>
<glyph name="J" format="2">
  <advance width="651.075"/>
  <unicode hex="004A"/>
  <anchor x="326.42" y="0.0" name="bottom"/>
  <anchor x="462.55" y="1278.0" name="top"/>
  <outline>
    <contour>
      <point x="241.145" y="-16.060000000000002" type="curve" smooth="yes"/>
      <point x="446.99500000000006" y="-16.060000000000002"/>
      <point x="522.8299999999999" y="91.985"/>
      <point x="522.8299999999999" y="289.31" type="curve" smooth="yes"/>
      <point x="522.8299999999999" y="1278.0" type="line"/>
      <point x="403.80000000000007" y="1278.0" type="line"/>
      <point x="403.80000000000007" y="293.19500000000005" type="line" smooth="yes"/>
      <point x="403.80000000000007" y="159.185"/>
      <point x="358.69" y="89.605"/>
      <point x="219.62" y="89.605" type="curve" smooth="yes"/>
      <point x="160.655" y="89.605"/>
      <point x="106.21999999999998" y="102.28"/>
      <point x="52.695" y="126.365" type="curve"/>
      <point x="62.199999999999996" y="18.525000000000002" type="line"/>
      <point x="111.525" y="-3.1799999999999997"/>
      <point x="175.85000000000002" y="-16.060000000000002"/>
    </contour>
  </outline>
</glyph>
<glyph name="K" format="2">
  <advance width="904.4150000000001"/>
  <unicode hex="004B"/>
  <anchor x="467.885" y="0.0" name="bottom"/>
  <anchor x="467.885" y="1278.0" name="top"/>
  <outline>
    <contour>
      <point x="731.015" y="0.0" type="line"/>
      <point x="864.64" y="0.0" type="line"/>
      <point x="457.785" y="679.22" type="line"/>
      <point x="459.285" y="645.055" type="line"/>
      <point x="854.08" y="1278.0" type="line"/>
      <point x="723.5450000000001" y="1278.0" type="line"/>
      <point x="367.04" y="703.095" type="line"/>
      <point x="241.09" y="703.095" type="line"/>
      <point x="241.09" y="603.6999999999999" type="line"/>
      <point x="367.51" y="603.6999999999999" type="line"/>
    </contour>
    <contour>
      <point x="135.51000000000002" y="0.0" type="line"/>
      <point x="252.95" y="0.0" type="line"/>
      <point x="252.95" y="1278.0" type="line"/>
      <point x="135.51000000000002" y="1278.0" type="line"/>
    </contour>
  </outline>
</glyph>
<glyph name="L" format="2">
  <advance width="764.7650000000001"/>
  <unicode hex="004C"/>
  <anchor x="420.27" y="0.0" name="bottom"/>
  <anchor x="359.67" y="654.435" name="center"/>
  <anchor x="195.52499999999998" y="1278.0" name="top"/>
  <anchor x="535.89" y="1278.0" name="topright"/>
  <outline>
    <contour>
      <point x="254.54" y="0.0" type="line"/>
      <point x="254.54" y="1278.0" type="line"/>
      <point x="135.51000000000002" y="1278.0" type="line"/>
      <point x="135.51000000000002" y="0.0" type="line"/>
    </contour>
    <contour>
      <point x="197.01" y="103.9" type="line"/>
      <point x="197.01" y="0.0" type="line"/>
      <point x="717.1800000000001" y="0.0" type="line"/>
      <point x="717.1800000000001" y="103.9" type="line"/>
    </contour>
  </outline>
</glyph>
<glyph name="M" format="2">
  <advance width="1209.815"/>
  <unicode hex="004D"/>
  <anchor x="605.54" y="0.0" name="bottom"/>
  <anchor x="605.54" y="1278.0" name="top"/>
  <outline>
    <contour>
      <point x="121.39499999999998" y="0.0" type="line"/>
      <point x="236.15500000000003" y="0.0" type="line"/>
      <point x="247.91499999999996" y="547.1299999999999" type="line"/>
      <point x="257.085" y="1148.275" type="line"/>
      <point x="272.14" y="1148.275" type="line"/>
      <point x="536.975" y="140.975" type="line"/>
      <point x="672.8399999999999" y="140.975" type="line"/>
      <point x="937.6750000000001" y="1148.275" type="line"/>
      <point x="952.965" y="1148.275" type="line"/>
      <point x="962.135" y="547.6299999999999" type="line"/>
      <point x="973.8950000000001" y="0.0" type="line"/>
      <point x="1088.4199999999998" y="0.0" type="line"/>
      <point x="1057.395" y="1278.0" type="line"/>
      <point x="867.57" y="1278.0" type="line"/>
      <point x="611.245" y="292.165" type="line"/>
      <point x="599.1" y="292.165" type="line"/>
      <point x="342.245" y="1278.0" type="line"/>
      <point x="152.655" y="1278.0" type="line"/>
    </contour>
  </outline>
</glyph>
<glyph name="N" format="2">
  <advance width="998.945"/>
  <unicode hex="004E"/>
  <anchor x="501.71" y="0.0" name="bottom"/>
  <anchor x="501.71" y="1278.0" name="top"/>
  <outline>
    <contour>
      <point x="319.22" y="1278.265" type="line"/>
      <point x="135.51000000000002" y="1278.265" type="line"/>
      <point x="135.51000000000002" y="0.0" type="line"/>
      <point x="250.29999999999998" y="0.0" type="line"/>
      <point x="250.29999999999998" y="552.88" type="line"/>
      <point x="242.795" y="1157.785" type="line"/>
      <point x="254.49999999999997" y="1157.785" type="line"/>
      <point x="681.345" y="0.0" type="line"/>
      <point x="863.4350000000001" y="0.0" type="line"/>
      <point x="863.4350000000001" y="1278.265" type="line"/>
      <point x="748.91" y="1278.265" type="line"/>
      <point x="748.91" y="712.835" type="line"/>
      <point x="756.15" y="126.01500000000001" type="line"/>
      <point x="744.4449999999999" y="126.01500000000001" type="line"/>
    </contour>
  </outline>
</glyph>
<glyph name="O" format="2">
  <advance width="953.09"/>
  <unicode hex="004F"/>
  <anchor x="476.53000000000003" y="0.0" name="bottom"/>
  <anchor x="476.53000000000003" y="639.0" name="center"/>
  <anchor x="676.4449999999999" y="6.175" name="ogonek"/>
  <anchor x="476.53000000000003" y="1278.0" name="top"/>
  <anchor x="13.235" y="1278.0" name="topleft"/>
  <anchor x="820.51" y="1278.0" name="topright"/>
  <outline>
    <contour>
      <point x="476.295" y="-19.680000000000003" type="curve" smooth="yes"/>
      <point x="723.6800000000001" y="-19.680000000000003"/>
      <point x="853.1049999999999" y="128.86"/>
      <point x="853.1049999999999" y="402.38" type="curve" smooth="yes"/>
      <point x="853.1049999999999" y="875.15" type="line" smooth="yes"/>
      <point x="853.1049999999999" y="1148.1399999999999"/>
      <point x="723.6800000000001" y="1297.68"/>
      <point x="476.295" y="1297.68" type="curve" smooth="yes"/>
      <point x="228.41000000000003" y="1297.68"/>
      <point x="99.985" y="1148.1399999999999"/>
      <point x="99.985" y="875.15" type="curve" smooth="yes"/>
      <point x="99.985" y="402.38" type="line" smooth="yes"/>
      <point x="99.985" y="128.86"/>
      <point x="228.41000000000003" y="-19.680000000000003"/>
    </contour>
    <contour>
      <point x="476.295" y="82.03999999999999" type="curve" smooth="yes"/>
      <point x="304.175" y="82.03999999999999"/>
      <point x="220.07500000000002" y="194.64"/>
      <point x="220.07500000000002" y="395.255" type="curve" smooth="yes"/>
      <point x="220.07500000000002" y="883.01" type="line" smooth="yes"/>
      <point x="220.07500000000002" y="1084.39"/>
      <point x="304.175" y="1195.96"/>
      <point x="476.295" y="1195.96" type="curve" smooth="yes"/>
      <point x="648.385" y="1195.96"/>
      <point x="732.75" y="1084.39"/>
      <point x="732.75" y="883.01" type="curve" smooth="yes"/>
      <point x="732.75" y="395.255" type="line" smooth="yes"/>
      <point x="732.75" y="194.64"/>
      <point x="648.385" y="82.03999999999999"/>
    </contour>
  </outline>
</glyph>
<glyph name="P" format="2">
  <advance width="887.675"/>
  <unicode hex="0050"/>
  <anchor x="442.96999999999997" y="0.0" name="bottom"/>
  <anchor x="442.96999999999997" y="1278.0" name="top"/>
  <outline>
    <contour>
      <point x="205.07" y="441.42999999999995" type="line"/>
      <point x="479.41" y="441.42999999999995" type="line" smooth="yes"/>
      <point x="706.97" y="441.42999999999995"/>
      <point x="809.16" y="568.0799999999999"/>
      <point x="809.16" y="780.0749999999999" type="curve" smooth="yes"/>
      <point x="809.16" y="942.0300000000001" type="line" smooth="yes"/>
      <point x="809.16" y="1150.9650000000001"/>
      <point x="707.47" y="1278.0"/>
      <point x="480.585" y="1278.0" type="curve" smooth="yes"/>
      <point x="206.775" y="1278.0" type="line"/>
      <point x="206.775" y="1177.5149999999999" type="line"/>
      <point x="476.73" y="1177.5149999999999" type="line" smooth="yes"/>
      <point x="627.2900000000001" y="1177.5149999999999"/>
      <point x="690.9250000000001" y="1089.3300000000002"/>
      <point x="690.9250000000001" y="938.705" type="curve" smooth="yes"/>
      <point x="690.9250000000001" y="783.135" type="line" smooth="yes"/>
      <point x="690.9250000000001" y="632.0999999999999"/>
      <point x="627.0550000000001" y="542.4150000000001"/>
      <point x="474.76" y="542.4150000000001" type="curve" smooth="yes"/>
      <point x="205.07" y="542.4150000000001" type="line"/>
    </contour>
    <contour>
      <point x="135.51000000000002" y="0.0" type="line"/>
      <point x="253.48000000000002" y="0.0" type="line"/>
      <point x="253.48000000000002" y="458.91" type="line"/>
      <point x="252.685" y="513.5699999999999" type="line"/>
      <point x="252.685" y="1278.0" type="line"/>
      <point x="135.51000000000002" y="1278.0" type="line"/>
    </contour>
  </outline>
</glyph>
<glyph name="Q" format="2">
  <advance width="955.355"/>
  <unicode hex="0051"/>
  <anchor x="478.06" y="0.0" name="bottom"/>
  <anchor x="478.06" y="1278.0" name="top"/>
  <outline>
    <contour>
      <point x="948.74" y="-28.95" type="line"/>
      <point x="948.74" y="75.80000000000001" type="line"/>
      <point x="613.595" y="69.65" type="line"/>
      <point x="619.94" y="73.53999999999999" type="line"/>
      <point x="756.4150000000001" y="101.04500000000002"/>
      <point x="853.1049999999999" y="202.89000000000001"/>
      <point x="853.1049999999999" y="424.345" type="curve" smooth="yes"/>
      <point x="853.1049999999999" y="872.5" type="line" smooth="yes"/>
      <point x="853.1049999999999" y="1148.58"/>
      <point x="723.385" y="1297.68"/>
      <point x="476.295" y="1297.68" type="curve" smooth="yes"/>
      <point x="228.70499999999998" y="1297.68"/>
      <point x="99.985" y="1148.58"/>
      <point x="99.985" y="872.5" type="curve" smooth="yes"/>
      <point x="99.985" y="407.73499999999996" type="line" smooth="yes"/>
      <point x="99.985" y="134.3"/>
      <point x="226.32" y="-11.56"/>
      <point x="521.1899999999999" y="-18.740000000000002" type="curve" smooth="yes"/>
    </contour>
    <contour>
      <point x="505.85" y="81.30499999999999" type="line" smooth="yes"/>
      <point x="317.94" y="83.69000000000001"/>
      <point x="220.07500000000002" y="196.14000000000001"/>
      <point x="220.07500000000002" y="399.315" type="curve" smooth="yes"/>
      <point x="220.07500000000002" y="879.83" type="line" smooth="yes"/>
      <point x="220.07500000000002" y="1085.125"/>
      <point x="304.705" y="1196.225"/>
      <point x="476.295" y="1196.225" type="curve" smooth="yes"/>
      <point x="647.855" y="1196.225"/>
      <point x="732.75" y="1085.125"/>
      <point x="732.75" y="879.83" type="curve" smooth="yes"/>
      <point x="732.75" y="402.82" type="line" smooth="yes"/>
      <point x="732.75" y="202.525"/>
      <point x="644.385" y="109.47999999999999"/>
      <point x="523.1750000000001" y="81.03999999999999" type="curve"/>
    </contour>
  </outline>
</glyph>
<glyph name="R" format="2">
  <advance width="913.85"/>
  <unicode hex="0052"/>
  <anchor x="468.67499999999995" y="0.0" name="bottom"/>
  <anchor x="457.97" y="1278.0" name="top"/>
  <outline>
    <contour>
      <point x="715.5100000000001" y="0.0" type="line"/>
      <point x="836.865" y="0.0" type="line"/>
      <point x="797.75" y="298.0" type="line" smooth="yes"/>
      <point x="773.5150000000001" y="479.04"/>
      <point x="732.25" y="585.975"/>
      <point x="548.975" y="606.415" type="curve"/>
      <point x="591.36" y="587.995" type="line"/>
      <point x="592.77" y="600.36" type="line"/>
      <point x="755.52" y="618.515"/>
      <point x="818.8950000000001" y="723.065"/>
      <point x="818.8950000000001" y="878.645" type="curve" smooth="yes"/>
      <point x="818.8950000000001" y="967.365" type="line" smooth="yes"/>
      <point x="818.8950000000001" y="1160.91"/>
      <point x="725.7900000000001" y="1278.0"/>
      <point x="500.78999999999996" y="1278.0" type="curve" smooth="yes"/>
      <point x="212.075" y="1278.0" type="line"/>
      <point x="212.075" y="1177.28" type="line"/>
      <point x="488.985" y="1177.28" type="line" smooth="yes"/>
      <point x="644.02" y="1177.28"/>
      <point x="700.1" y="1093.415"/>
      <point x="700.1" y="949.1400000000001" type="curve" smooth="yes"/>
      <point x="700.1" y="861.155" type="line" smooth="yes"/>
      <point x="700.1" y="721.175"/>
      <point x="644.695" y="633.46"/>
      <point x="486.60499999999996" y="632.96" type="curve" smooth="yes"/>
      <point x="219.22" y="631.96" type="line"/>
      <point x="219.22" y="536.155" type="line"/>
      <point x="463.87500000000006" y="535.89" type="line" smooth="yes"/>
      <point x="626.375" y="535.625"/>
      <point x="665.0200000000001" y="429.77"/>
      <point x="682.0450000000001" y="289.935" type="curve" smooth="yes"/>
    </contour>
    <contour>
      <point x="135.51000000000002" y="0.0" type="line"/>
      <point x="253.48000000000002" y="0.0" type="line"/>
      <point x="253.48000000000002" y="556.195" type="line"/>
      <point x="252.95" y="603.4350000000001" type="line"/>
      <point x="252.95" y="1278.0" type="line"/>
      <point x="135.51000000000002" y="1278.0" type="line"/>
    </contour>
  </outline>
</glyph>
<glyph name="S" format="2">
  <advance width="805.1850000000001"/>
  <unicode hex="0053"/>
  <anchor x="391.49" y="0.0" name="bottom"/>
  <anchor x="391.49" y="1278.0" name="top"/>
  <outline>
    <contour>
      <point x="381.685" y="-19.15" type="curve" smooth="yes"/>
      <point x="612.01" y="-19.15"/>
      <point x="723.29" y="96.005"/>
      <point x="723.29" y="303.405" type="curve" smooth="yes"/>
      <point x="723.29" y="348.715" type="line" smooth="yes"/>
      <point x="723.29" y="541.8399999999999"/>
      <point x="648.78" y="618.84"/>
      <point x="442.785" y="698.465" type="curve" smooth="yes"/>
      <point x="254.77499999999998" y="771.995"/>
      <point x="196.75" y="829.84"/>
      <point x="196.75" y="965.8100000000001" type="curve" smooth="yes"/>
      <point x="196.75" y="986.33" type="line" smooth="yes"/>
      <point x="196.75" y="1117.18"/>
      <point x="259.71" y="1191.22"/>
      <point x="415.72" y="1191.22" type="curve" smooth="yes"/>
      <point x="534.305" y="1191.22"/>
      <point x="623.22" y="1153.575"/>
      <point x="693.105" y="1105.225" type="curve"/>
      <point x="682.5699999999999" y="1218.51" type="line"/>
      <point x="623.2099999999999" y="1259.36"/>
      <point x="528.47" y="1296.915"/>
      <point x="397.58" y="1296.915" type="curve" smooth="yes"/>
      <point x="180.56" y="1296.915"/>
      <point x="77.19" y="1185.29"/>
      <point x="77.19" y="991.895" type="curve" smooth="yes"/>
      <point x="77.19" y="966.605" type="line" smooth="yes"/>
      <point x="77.19" y="782.155"/>
      <point x="157.38" y="696.5300000000001"/>
      <point x="369.315" y="614.465" type="curve" smooth="yes"/>
      <point x="542.675" y="549.465"/>
      <point x="603.73" y="492.625"/>
      <point x="603.73" y="349.07" type="curve" smooth="yes"/>
      <point x="603.73" y="306.84999999999997" type="line" smooth="yes"/>
      <point x="603.73" y="166.0"/>
      <point x="530.595" y="89.46000000000001"/>
      <point x="371.76" y="89.46000000000001" type="curve" smooth="yes"/>
      <point x="256.375" y="89.46000000000001"/>
      <point x="154.165" y="129.52"/>
      <point x="75.9" y="181.95499999999998" type="curve"/>
      <point x="86.935" y="61.66499999999999" type="line"/>
      <point x="146.205" y="22.11"/>
      <point x="249.97499999999997" y="-19.15"/>
    </contour>
  </outline>
</glyph>
<glyph name="T" format="2">
  <advance width="818.17"/>
  <unicode hex="0054"/>
  <anchor x="409.32" y="0.0" name="bottom"/>
  <anchor x="409.32" y="639.0" name="center"/>
  <anchor x="409.32" y="1278.0" name="top"/>
  <outline>
    <contour>
      <point x="349.57" y="0.0" type="line"/>
      <point x="468.86500000000007" y="0.0" type="line"/>
      <point x="468.86500000000007" y="1268.7250000000001" type="line"/>
      <point x="349.57" y="1268.7250000000001" type="line"/>
    </contour>
    <contour>
      <point x="50.699999999999996" y="1175.63" type="line"/>
      <point x="767.4699999999999" y="1175.63" type="line"/>
      <point x="767.4699999999999" y="1278.0" type="line"/>
      <point x="50.699999999999996" y="1278.0" type="line"/>
    </contour>
  </outline>
</glyph>
<glyph name="U" format="2">
  <advance width="976.23"/>
  <unicode hex="0055"/>
  <anchor x="488.115" y="0.0" name="bottom"/>
  <anchor x="684.8199999999999" y="6.175" name="ogonek"/>
  <anchor x="488.115" y="1278.0" name="top"/>
  <anchor x="954.505" y="1278.0" name="topright"/>
  <outline>
    <contour>
      <point x="488.115" y="-19.680000000000003" type="curve" smooth="yes"/>
      <point x="732.825" y="-19.680000000000003"/>
      <point x="849.455" y="120.535"/>
      <point x="849.455" y="382.38" type="curve" smooth="yes"/>
      <point x="849.455" y="1278.0" type="line"/>
      <point x="730.1600000000001" y="1278.0" type="line"/>
      <point x="730.1600000000001" y="376.815" type="line" smooth="yes"/>
      <point x="730.1600000000001" y="186.58"/>
      <point x="656.765" y="83.36500000000001"/>
      <point x="488.115" y="83.36500000000001" type="curve" smooth="yes"/>
      <point x="319.46500000000003" y="83.36500000000001"/>
      <point x="246.07000000000002" y="186.58"/>
      <point x="246.07000000000002" y="376.815" type="curve" smooth="yes"/>
      <point x="246.07000000000002" y="1278.0" type="line"/>
      <point x="126.775" y="1278.0" type="line"/>
      <point x="126.775" y="382.38" type="line" smooth="yes"/>
      <point x="126.775" y="120.535"/>
      <point x="243.43499999999997" y="-19.680000000000003"/>
    </contour>
  </outline>
</glyph>
<glyph name="V" format="2">
  <advance width="903.8849999999999"/>
  <unicode hex="0056"/>
  <anchor x="452.05999999999995" y="0.0" name="bottom"/>
  <anchor x="452.05999999999995" y="1278.0" name="top"/>
  <outline>
    <contour>
      <point x="352.76000000000005" y="0.0" type="line"/>
      <point x="551.625" y="0.0" type="line"/>
      <point x="853.135" y="1278.0" type="line"/>
      <point x="731.015" y="1278.0" type="line"/>
      <point x="462.79499999999996" y="89.97500000000001" type="line"/>
      <point x="440.59000000000003" y="89.97500000000001" type="line"/>
      <point x="172.87" y="1278.0" type="line"/>
      <point x="50.75" y="1278.0" type="line"/>
    </contour>
  </outline>
</glyph>
<glyph name="W" format="2">
  <advance width="1315.6399999999999"/>
  <unicode hex="0057"/>
  <anchor x="658.305" y="0.0" name="bottom"/>
  <anchor x="658.305" y="1278.0" name="top"/>
  <outline>
    <contour>
      <point x="273.46000000000004" y="0.0" type="line"/>
      <point x="467.09" y="0.0" type="line"/>
      <point x="594.545" y="766.715" type="line"/>
      <point x="651.3349999999999" y="1146.7250000000001" type="line"/>
      <point x="664.5699999999999" y="1146.7250000000001" type="line"/>
      <point x="721.5949999999999" y="766.715" type="line"/>
      <point x="849.55" y="0.0" type="line"/>
      <point x="1042.445" y="0.0" type="line"/>
      <point x="1250.48" y="1278.0" type="line"/>
      <point x="1130.42" y="1278.0" type="line"/>
      <point x="971.1550000000001" y="271.725" type="line"/>
      <point x="949.845" y="99.75000000000001" type="line"/>
      <point x="934.465" y="99.75000000000001" type="line"/>
      <point x="912.095" y="271.725" type="line"/>
      <point x="746.04" y="1244.74" type="line"/>
      <point x="569.865" y="1244.74" type="line"/>
      <point x="404.01500000000004" y="271.96000000000004" type="line"/>
      <point x="381.41" y="99.75000000000001" type="line"/>
      <point x="366.295" y="99.75000000000001" type="line"/>
      <point x="344.985" y="271.96000000000004" type="line"/>
      <point x="185.72" y="1278.0" type="line"/>
      <point x="65.16000000000001" y="1278.0" type="line"/>
    </contour>
  </outline>
</glyph>
<glyph name="X" format="2">
  <advance width="889.41"/>
  <unicode hex="0058"/>
  <anchor x="445.205" y="0.0" name="bottom"/>
  <anchor x="445.205" y="1278.0" name="top"/>
  <outline>
    <contour>
      <point x="53.895" y="0.0" type="line"/>
      <point x="179.36999999999998" y="0.0" type="line"/>
      <point x="439.64500000000004" y="594.1" type="line"/>
      <point x="450.26500000000004" y="594.1" type="line"/>
      <point x="710.275" y="0.0" type="line"/>
      <point x="835.5150000000001" y="0.0" type="line"/>
      <point x="530.77" y="680.0100000000001" type="line"/>
      <point x="530.77" y="646.64" type="line"/>
      <point x="829.425" y="1278.0" type="line"/>
      <point x="705.2750000000001" y="1278.0" type="line"/>
      <point x="450.26500000000004" y="725.2800000000001" type="line"/>
      <point x="439.91" y="725.2800000000001" type="line"/>
      <point x="184.4" y="1278.0" type="line"/>
      <point x="60.48500000000001" y="1278.0" type="line"/>
      <point x="359.14" y="646.64" type="line"/>
      <point x="359.14" y="680.0100000000001" type="line"/>
    </contour>
  </outline>
</glyph>
<glyph name="Y" format="2">
  <advance width="859.2650000000001"/>
  <unicode hex="0059"/>
  <anchor x="430.00000000000006" y="0.0" name="bottom"/>
  <anchor x="430.00000000000006" y="1278.0" name="top"/>
  <anchor x="21.41" y="1278.0" name="topleft"/>
  <outline>
    <contour>
      <point x="376.755" y="403.935" type="line"/>
      <point x="483.30499999999995" y="403.935" type="line"/>
      <point x="820.37" y="1278.0" type="line"/>
      <point x="697.75" y="1278.0" type="line"/>
      <point x="512.55" y="779.0300000000001" type="line"/>
      <point x="435.325" y="557.21" type="line"/>
      <point x="424.97" y="557.21" type="line"/>
      <point x="348.01" y="779.265" type="line"/>
      <point x="161.51500000000001" y="1278.0" type="line"/>
      <point x="38.895" y="1278.0" type="line"/>
    </contour>
    <contour>
      <point x="372.34000000000003" y="0.0" type="line"/>
      <point x="487.72" y="0.0" type="line"/>
      <point x="487.72" y="528.3050000000001" type="line"/>
      <point x="372.34000000000003" y="528.3050000000001" type="line"/>
    </contour>
  </outline>
</glyph>
<glyph name="Z" format="2">
  <advance width="811.6"/>
  <unicode hex="005A"/>
  <anchor x="406.315" y="0.0" name="bottom"/>
  <anchor x="406.315" y="639.0" name="center"/>
  <anchor x="406.315" y="1278.0" name="top"/>
  <outline>
    <contour>
      <point x="735.23" y="103.635" type="line"/>
      <point x="206.645" y="103.635" type="line"/>
      <point x="729.64" y="1184.165" type="line"/>
      <point x="729.64" y="1278.0" type="line"/>
      <point x="80.695" y="1278.0" type="line"/>
      <point x="80.695" y="1175.1299999999999" type="line"/>
      <point x="598.895" y="1175.1299999999999" type="line"/>
      <point x="76.36999999999999" y="94.86500000000001" type="line"/>
      <point x="76.36999999999999" y="0.0" type="line"/>
      <point x="735.23" y="0.0" type="line"/>
    </contour>
  </outline>
</glyph>
<glyph name="bracketleft" format="2">
  <advance width="513.5"/>
  <unicode hex="005B"/>
  <outline>
    <contour>
      <point x="137.275" y="-240.35500000000002" type="line"/>
      <point x="468.825" y="-240.35500000000002" type="line"/>
      <point x="468.825" y="-149.26" type="line"/>
      <point x="246.355" y="-149.26" type="line"/>
      <point x="246.355" y="1260.1699999999998" type="line"/>
      <point x="468.825" y="1260.1699999999998" type="line"/>
      <point x="468.825" y="1351.2649999999999" type="line"/>
      <point x="137.275" y="1351.2649999999999" type="line"/>
    </contour>
  </outline>
</glyph>
<glyph name="backslash" format="2">
  <advance width="654.785"/>
  <unicode hex="005C"/>
  <outline>
    <contour>
      <point x="613.925" y="-238.65" type="line"/>
      <point x="148.82" y="1345.6200000000001" type="line"/>
      <point x="40.86" y="1345.6200000000001" type="line"/>
      <point x="505.43499999999995" y="-238.65" type="line"/>
    </contour>
  </outline>
</glyph>
<glyph name="bracketright" format="2">
  <advance width="513.5"/>
  <unicode hex="005D"/>
  <outline>
    <contour>
      <point x="376.225" y="-240.35500000000002" type="line"/>
      <point x="376.225" y="1351.2649999999999" type="line"/>
      <point x="44.675000000000004" y="1351.2649999999999" type="line"/>
      <point x="44.675000000000004" y="1260.1699999999998" type="line"/>
      <point x="267.145" y="1260.1699999999998" type="line"/>
      <point x="267.145" y="-149.26" type="line"/>
      <point x="44.675000000000004" y="-149.26" type="line"/>
      <point x="44.675000000000004" y="-240.35500000000002" type="line"/>
    </contour>
  </outline>
</glyph>
<glyph name="asciicircum" format="2">
  <advance width="680.96"/>
  <unicode hex="005E"/>
  <outline>
    <contour>
      <point x="261.0" y="1278.0" type="line"/>
      <point x="57.54" y="619.85" type="line"/>
      <point x="157.54999999999998" y="619.85" type="line"/>
      <point x="334.495" y="1202.275" type="line"/>
      <point x="346.2" y="1202.275" type="line"/>
      <point x="523.4100000000001" y="619.85" type="line"/>
      <point x="623.42" y="619.85" type="line"/>
      <point x="419.69500000000005" y="1278.0" type="line"/>
    </contour>
  </outline>
</glyph>
<glyph name="underscore" format="2">
  <advance width="749.32"/>
  <unicode hex="005F"/>
  <outline>
    <contour>
      <point x="52.574999999999996" y="-176.1" type="line"/>
      <point x="696.745" y="-176.1" type="line"/>
      <point x="696.745" y="-84.94500000000001" type="line"/>
      <point x="52.574999999999996" y="-84.94500000000001" type="line"/>
    </contour>
  </outline>
</glyph>
<glyph name="grave" format="2">
  <advance width="483.45500000000004"/>
  <unicode hex="0060"/>
  <anchor x="336.57" y="984.475" name="_top"/>
  <anchor x="330.925" y="1304.555" name="top"/>
  <outline>
    <contour>
      <point x="225.555" y="1352.39" type="line"/>
      <point x="99.995" y="1352.39" type="line"/>
      <point x="99.995" y="1351.125" type="line"/>
      <point x="285.8" y="1100.49" type="line"/>
      <point x="385.4" y="1100.49" type="line"/>
      <point x="385.4" y="1101.52" type="line"/>
    </contour>
  </outline>
</glyph>
<glyph name="a" format="2">
  <advance width="797.175"/>
  <unicode hex="0061"/>
  <anchor x="389.415" y="0.0" name="bottom"/>
  <anchor x="729.7149999999999" y="0.0" name="ogonek"/>
  <anchor x="389.415" y="984.475" name="top"/>
  <outline>
    <contour>
      <point x="574.195" y="0.0" type="line"/>
      <point x="689.0749999999999" y="0.0" type="line"/>
      <point x="689.0749999999999" y="682.26" type="line" smooth="yes"/>
      <point x="689.0749999999999" y="886.49"/>
      <point x="601.48" y="1002.33"/>
      <point x="388.32" y="1002.33" type="curve" smooth="yes"/>
      <point x="263.93" y="1002.33"/>
      <point x="168.01" y="958.51"/>
      <point x="106.58999999999999" y="916.07" type="curve"/>
      <point x="96.28999999999999" y="811.295" type="line"/>
      <point x="169.325" y="859.995"/>
      <point x="263.535" y="902.64"/>
      <point x="370.565" y="902.64" type="curve" smooth="yes"/>
      <point x="512.615" y="902.64"/>
      <point x="574.695" y="828.8299999999999"/>
      <point x="574.695" y="678.905" type="curve"/>
      <point x="574.4300000000001" y="587.38" type="line"/>
      <point x="574.4300000000001" y="217.235" type="line"/>
      <point x="580.0500000000001" y="207.64000000000001" type="line"/>
    </contour>
    <contour>
      <point x="314.345" y="-17.06" type="curve" smooth="yes"/>
      <point x="479.695" y="-17.06"/>
      <point x="556.27" y="81.86500000000001"/>
      <point x="578.01" y="200.76" type="curve"/>
      <point x="600.3149999999999" y="200.76" type="line"/>
      <point x="578.4300000000001" y="287.045" type="line"/>
      <point x="557.0500000000001" y="168.96"/>
      <point x="482.68" y="80.33500000000001"/>
      <point x="352.205" y="80.33500000000001" type="curve" smooth="yes"/>
      <point x="237.145" y="80.33500000000001"/>
      <point x="183.985" y="144.29"/>
      <point x="183.985" y="260.435" type="curve" smooth="yes"/>
      <point x="183.985" y="297.805" type="line" smooth="yes"/>
      <point x="183.985" y="402.075"/>
      <point x="233.915" y="453.50500000000005"/>
      <point x="364.325" y="480.85" type="curve" smooth="yes"/>
      <point x="602.4399999999999" y="529.665" type="line"/>
      <point x="593.815" y="620.0799999999999" type="line"/>
      <point x="343.075" y="567.735" type="line" smooth="yes"/>
      <point x="146.62" y="525.47"/>
      <point x="69.33999999999999" y="449.35"/>
      <point x="69.33999999999999" y="292.035" type="curve" smooth="yes"/>
      <point x="69.33999999999999" y="245.185" type="line" smooth="yes"/>
      <point x="69.33999999999999" y="75.18"/>
      <point x="152.695" y="-17.06"/>
    </contour>
  </outline>
</glyph>
<glyph name="b" format="2">
  <advance width="870.965"/>
  <unicode hex="0062"/>
  <anchor x="439.1449999999999" y="0.0" name="bottom"/>
  <anchor x="439.1449999999999" y="1328.85" name="top"/>
  <outline>
    <contour>
      <point x="491.03499999999997" y="-17.06" type="curve" smooth="yes"/>
      <point x="684.805" y="-17.06"/>
      <point x="780.715" y="110.625"/>
      <point x="780.715" y="349.08500000000004" type="curve" smooth="yes"/>
      <point x="780.715" y="638.155" type="line" smooth="yes"/>
      <point x="780.715" y="874.8499999999999"/>
      <point x="685.54" y="1001.535"/>
      <point x="495.50500000000005" y="1001.535" type="curve" smooth="yes"/>
      <point x="337.245" y="1001.535"/>
      <point x="255.525" y="905.375"/>
      <point x="232.315" y="782.335" type="curve"/>
      <point x="201.325" y="782.335" type="line"/>
      <point x="229.245" y="696.5799999999999" type="line"/>
      <point x="252.59500000000003" y="818.84"/>
      <point x="331.55" y="906.26"/>
      <point x="456.31999999999994" y="906.26" type="curve" smooth="yes"/>
      <point x="596.555" y="906.26"/>
      <point x="665.01" y="815.75"/>
      <point x="665.01" y="646.165" type="curve" smooth="yes"/>
      <point x="665.01" y="343.52000000000004" type="line" smooth="yes"/>
      <point x="665.01" y="171.345"/>
      <point x="594.38" y="80.33500000000001"/>
      <point x="457.05499999999995" y="80.33500000000001" type="curve" smooth="yes"/>
      <point x="326.78000000000003" y="80.33500000000001"/>
      <point x="238.33" y="166.82"/>
      <point x="231.98" y="322.0" type="curve"/>
      <point x="192.965" y="213.655" type="line"/>
      <point x="230.75500000000002" y="213.655" type="line"/>
      <point x="247.27" y="77.595"/>
      <point x="338.34000000000003" y="-17.06"/>
    </contour>
    <contour>
      <point x="120.10000000000001" y="0.0" type="line"/>
      <point x="235.04" y="0.0" type="line"/>
      <point x="228.95000000000002" y="204.73" type="line"/>
      <point x="231.98" y="238.67999999999998" type="line"/>
      <point x="231.98" y="744.145" type="line"/>
      <point x="230.745" y="767.21" type="line"/>
      <point x="235.01000000000002" y="1023.96" type="line"/>
      <point x="235.01000000000002" y="1328.85" type="line"/>
      <point x="120.10000000000001" y="1328.85" type="line"/>
    </contour>
  </outline>
</glyph>
<glyph name="c" format="2">
  <advance width="688.62"/>
  <unicode hex="0063"/>
  <anchor x="383.725" y="0.0" name="bottom"/>
  <anchor x="383.725" y="984.475" name="top"/>
  <outline>
    <contour>
      <point x="405.145" y="-17.325" type="curve" smooth="yes"/>
      <point x="505.22999999999996" y="-17.325"/>
      <point x="579.03" y="16.435"/>
      <point x="625.005" y="54.050000000000004" type="curve"/>
      <point x="635.275" y="159.82500000000002" type="line"/>
      <point x="582.745" y="117.42"/>
      <point x="517.5699999999999" y="84.455"/>
      <point x="426.755" y="84.455" type="curve" smooth="yes"/>
      <point x="275.23999999999995" y="84.455"/>
      <point x="205.425" y="179.5"/>
      <point x="205.425" y="348.355" type="curve" smooth="yes"/>
      <point x="205.425" y="637.62" type="line" smooth="yes"/>
      <point x="205.425" y="808.095"/>
      <point x="274.15" y="902.375"/>
      <point x="424.225" y="902.375" type="curve" smooth="yes"/>
      <point x="514.365" y="902.375"/>
      <point x="578.2149999999999" y="869.88"/>
      <point x="628.95" y="827.4749999999999" type="curve"/>
      <point x="618.915" y="931.4549999999999" type="line"/>
      <point x="574.1750000000001" y="967.5699999999999"/>
      <point x="501.965" y="1002.065"/>
      <point x="404.84999999999997" y="1002.065" type="curve" smooth="yes"/>
      <point x="190.85000000000002" y="1002.065"/>
      <point x="89.72" y="870.6999999999999"/>
      <point x="89.72" y="639.21" type="curve" smooth="yes"/>
      <point x="89.72" y="345.265" type="line" smooth="yes"/>
      <point x="89.72" y="113.33500000000001"/>
      <point x="190.585" y="-17.325"/>
    </contour>
  </outline>
</glyph>
<glyph name="d" format="2">
  <advance width="870.965"/>
  <unicode hex="0064"/>
  <anchor x="432.05499999999995" y="0.0" name="bottom"/>
  <anchor x="432.05499999999995" y="492.62" name="center"/>
  <anchor x="432.05499999999995" y="1328.85" name="top"/>
  <anchor x="899.1600000000001" y="1328.85" name="topright"/>
  <outline>
    <contour>
      <point x="375.72499999999997" y="-17.06" type="curve" smooth="yes"/>
      <point x="533.37" y="-17.06"/>
      <point x="616.53" y="76.75"/>
      <point x="639.975" y="202.845" type="curve"/>
      <point x="670.5250000000001" y="202.845" type="line"/>
      <point x="641.72" y="290.485" type="line"/>
      <point x="617.9" y="164.465"/>
      <point x="537.77" y="80.33500000000001"/>
      <point x="414.91" y="80.33500000000001" type="curve" smooth="yes"/>
      <point x="274.41" y="80.33500000000001"/>
      <point x="205.955" y="171.315"/>
      <point x="205.955" y="341.34000000000003" type="curve" smooth="yes"/>
      <point x="205.955" y="643.635" type="line" smooth="yes"/>
      <point x="205.955" y="815.25"/>
      <point x="276.84999999999997" y="906.26"/>
      <point x="414.705" y="906.26" type="curve" smooth="yes"/>
      <point x="545.5100000000001" y="906.26"/>
      <point x="632.9000000000001" y="818.7149999999999"/>
      <point x="638.985" y="664.595" type="curve"/>
      <point x="675.03" y="770.8199999999999" type="line"/>
      <point x="638.885" y="770.8199999999999" type="line"/>
      <point x="622.37" y="906.88"/>
      <point x="532.33" y="1001.535"/>
      <point x="379.93" y="1001.535" type="curve" smooth="yes"/>
      <point x="185.895" y="1001.535"/>
      <point x="90.25" y="873.8499999999999"/>
      <point x="90.25" y="635.155" type="curve" smooth="yes"/>
      <point x="90.25" y="347.2" type="line" smooth="yes"/>
      <point x="90.25" y="109.83"/>
      <point x="185.69" y="-17.06"/>
    </contour>
    <contour>
      <point x="635.9250000000001" y="0.0" type="line"/>
      <point x="750.865" y="0.0" type="line"/>
      <point x="750.865" y="1328.85" type="line"/>
      <point x="635.955" y="1328.85" type="line"/>
      <point x="635.955" y="1023.96" type="line"/>
      <point x="640.22" y="767.8000000000001" type="line"/>
      <point x="638.985" y="743.205" type="line"/>
      <point x="638.985" y="231.97" type="line"/>
      <point x="642.015" y="208.255" type="line"/>
    </contour>
  </outline>
</glyph>
<glyph name="e" format="2">
  <advance width="802.38"/>
  <unicode hex="0065"/>
  <anchor x="418.615" y="0.0" name="bottom"/>
  <anchor x="654.6650000000001" y="8.295" name="ogonek"/>
  <anchor x="410.53" y="984.475" name="top"/>
  <outline>
    <contour>
      <point x="439.04" y="-17.325" type="curve" smooth="yes"/>
      <point x="546.695" y="-17.325"/>
      <point x="637.555" y="14.495000000000001"/>
      <point x="702.15" y="59.285000000000004" type="curve"/>
      <point x="712.4499999999999" y="165.03" type="line"/>
      <point x="639.27" y="115.18499999999999"/>
      <point x="555.5899999999999" y="83.13"/>
      <point x="457.76500000000004" y="83.13" type="curve" smooth="yes"/>
      <point x="289.145" y="83.13"/>
      <point x="204.365" y="173.17499999999998"/>
      <point x="204.365" y="333.235" type="curve" smooth="yes"/>
      <point x="204.365" y="472.675" type="line"/>
      <point x="204.1" y="491.185" type="line"/>
      <point x="204.1" y="657.195" type="line" smooth="yes"/>
      <point x="204.1" y="821.25"/>
      <point x="271.2" y="908.525"/>
      <point x="408.88" y="908.525" type="curve" smooth="yes"/>
      <point x="546.0600000000001" y="908.525"/>
      <point x="614.485" y="821.545"/>
      <point x="614.485" y="659.9" type="curve" smooth="yes"/>
      <point x="614.485" y="592.4000000000001"/>
      <point x="614.2199999999999" y="522.305"/>
      <point x="613.69" y="437.03000000000003" type="curve"/>
      <point x="718.74" y="437.03000000000003" type="line"/>
      <point x="724.36" y="485.385"/>
      <point x="725.95" y="527.8349999999999"/>
      <point x="725.95" y="573.4" type="curve" smooth="yes"/>
      <point x="725.95" y="652.45" type="line" smooth="yes"/>
      <point x="725.95" y="874.905"/>
      <point x="618.41" y="1004.3299999999999"/>
      <point x="408.88" y="1004.3299999999999" type="curve" smooth="yes"/>
      <point x="198.64499999999998" y="1004.3299999999999"/>
      <point x="89.72" y="878.525"/>
      <point x="89.72" y="647.39" type="curve" smooth="yes"/>
      <point x="89.72" y="343.1" type="line" smooth="yes"/>
      <point x="89.72" y="108.1"/>
      <point x="210.88" y="-17.325"/>
    </contour>
    <contour>
      <point x="153.89000000000001" y="437.03000000000003" type="line"/>
      <point x="691.1949999999999" y="437.03000000000003" type="line"/>
      <point x="691.1949999999999" y="528.0649999999999" type="line"/>
      <point x="153.89000000000001" y="528.0649999999999" type="line"/>
    </contour>
  </outline>
</glyph>
<glyph name="f" format="2">
  <advance width="618.93"/>
  <unicode hex="0066"/>
  <anchor x="311.03999999999996" y="0.0" name="bottom"/>
  <anchor x="311.03999999999996" y="1323.5" name="top"/>
  <outline>
    <contour>
      <point x="387.79499999999996" y="1351.09" type="curve" smooth="yes"/>
      <point x="216.225" y="1351.09"/>
      <point x="131.745" y="1265.915"/>
      <point x="131.745" y="1131.035" type="curve" smooth="yes"/>
      <point x="131.745" y="1126.035" type="line" smooth="yes"/>
      <point x="131.745" y="1053.56"/>
      <point x="160.755" y="993.9449999999999"/>
      <point x="191.01000000000002" y="958.51" type="curve"/>
      <point x="191.01000000000002" y="944.09" type="line"/>
      <point x="271.71" y="946.705" type="line"/>
      <point x="257.18" y="987.49"/>
      <point x="243.475" y="1034.4499999999998"/>
      <point x="243.475" y="1088.555" type="curve" smooth="yes"/>
      <point x="243.475" y="1093.4950000000001" type="line" smooth="yes"/>
      <point x="243.475" y="1193.8850000000002"/>
      <point x="296.055" y="1254.255"/>
      <point x="421.185" y="1254.255" type="curve" smooth="yes"/>
      <point x="489.88499999999993" y="1254.255"/>
      <point x="539.06" y="1238.875"/>
      <point x="590.32" y="1219.0549999999998" type="curve"/>
      <point x="579.49" y="1310.7649999999999" type="line"/>
      <point x="528.6650000000001" y="1333.53"/>
      <point x="467.89000000000004" y="1351.09"/>
    </contour>
    <contour>
      <point x="161.745" y="0.0" type="line"/>
      <point x="276.92" y="0.0" type="line"/>
      <point x="276.92" y="918.07" type="line"/>
      <point x="161.745" y="918.07" type="line"/>
    </contour>
    <contour>
      <point x="20.290000000000003" y="863.52" type="line"/>
      <point x="576.14" y="863.52" type="line"/>
      <point x="586.175" y="957.795" type="line"/>
      <point x="252.2" y="957.795" type="line"/>
      <point x="209.37" y="957.265" type="line"/>
      <point x="20.290000000000003" y="957.795" type="line"/>
    </contour>
  </outline>
</glyph>
<glyph name="g" format="2">
  <advance width="825.46"/>
  <unicode hex="0067"/>
  <anchor x="418.08" y="-348.325" name="bottom"/>
  <anchor x="415.875" y="985.5350000000001" name="top"/>
  <outline>
    <contour>
      <point x="412.405" y="258.105" type="curve"/>
      <point x="617.9599999999999" y="258.105"/>
      <point x="725.62" y="359.11"/>
      <point x="725.62" y="554.76" type="curve" smooth="yes"/>
      <point x="725.62" y="674.49" type="line" smooth="yes"/>
      <point x="725.62" y="807.98"/>
      <point x="673.71" y="897.755"/>
      <point x="537.16" y="920.82" type="curve"/>
      <point x="538.8050000000001" y="923.77" type="line"/>
      <point x="805.885" y="916.855" type="line"/>
      <point x="805.885" y="1010.6850000000001" type="line"/>
      <point x="416.44" y="998.505" type="line" smooth="yes"/>
      <point x="176.38" y="990.885"/>
      <point x="94.245" y="863.62"/>
      <point x="94.245" y="689.4549999999999" type="curve" smooth="yes"/>
      <point x="94.245" y="559.885" type="line" smooth="yes"/>
      <point x="94.245" y="362.22999999999996"/>
      <point x="211.705" y="258.105"/>
    </contour>
    <contour>
      <point x="409.96000000000004" y="-274.995" type="line" smooth="yes"/>
      <point x="262.97999999999996" y="-274.995"/>
      <point x="169.18" y="-233.355"/>
      <point x="169.18" y="-134.29" type="curve" smooth="yes"/>
      <point x="169.18" y="-131.585" type="line" smooth="yes"/>
      <point x="169.18" y="-39.405"/>
      <point x="241.86499999999998" y="4.940000000000001"/>
      <point x="356.185" y="25.084999999999997" type="curve"/>
      <point x="319.145" y="23.820000000000004" type="line"/>
      <point x="506.43" y="1.0799999999999985" type="line" smooth="yes"/>
      <point x="628.52" y="-15.504999999999999"/>
      <point x="675.0400000000001" y="-56.754999999999995"/>
      <point x="675.0400000000001" y="-134.76500000000001" type="curve" smooth="yes"/>
      <point x="675.0400000000001" y="-137.97" type="line" smooth="yes"/>
      <point x="675.0400000000001" y="-235.18"/>
      <point x="581.0649999999999" y="-274.995"/>
      <point x="432.84999999999997" y="-274.995" type="curve" smooth="yes"/>
    </contour>
    <contour>
      <point x="404.395" y="-369.18" type="curve" smooth="yes"/>
      <point x="430.2" y="-369.18" type="line" smooth="yes"/>
      <point x="645.2" y="-369.18"/>
      <point x="782.0600000000001" y="-297.55"/>
      <point x="782.0600000000001" y="-140.20999999999998" type="curve" smooth="yes"/>
      <point x="782.0600000000001" y="-134.88500000000002" type="line" smooth="yes"/>
      <point x="782.0600000000001" y="-6.450000000000001"/>
      <point x="711.405" y="64.085"/>
      <point x="533.805" y="90.705" type="curve" smooth="yes"/>
      <point x="359.46999999999997" y="114.62" type="line" smooth="yes"/>
      <point x="256.96500000000003" y="128.735"/>
      <point x="216.88500000000002" y="150.845"/>
      <point x="216.88500000000002" y="196.27499999999998" type="curve" smooth="yes"/>
      <point x="216.88500000000002" y="197.51" type="line" smooth="yes"/>
      <point x="216.88500000000002" y="241.76000000000002"/>
      <point x="251.61" y="264.695"/>
      <point x="334.34999999999997" y="265.42999999999995" type="curve"/>
      <point x="388.7" y="264.635" type="line"/>
      <point x="253.125" y="301.175" type="line"/>
      <point x="253.125" y="285.02" type="line"/>
      <point x="160.51" y="278.31"/>
      <point x="109.54000000000002" y="239.45499999999998"/>
      <point x="109.54000000000002" y="169.57" type="curve" smooth="yes"/>
      <point x="109.54000000000002" y="168.07" type="line" smooth="yes"/>
      <point x="109.54000000000002" y="96.54"/>
      <point x="162.76999999999998" y="54.655"/>
      <point x="268.305" y="38.035000000000004" type="curve"/>
      <point x="267.6" y="36.055" type="line"/>
      <point x="153.41" y="18.23"/>
      <point x="63.22" y="-37.21"/>
      <point x="63.22" y="-155.405" type="curve" smooth="yes"/>
      <point x="63.22" y="-159.405" type="line" smooth="yes"/>
      <point x="63.22" y="-307.46999999999997"/>
      <point x="195.99" y="-369.18"/>
    </contour>
    <contour>
      <point x="411.61" y="346.52" type="curve" smooth="yes"/>
      <point x="271.93" y="346.52"/>
      <point x="205.18" y="422.24"/>
      <point x="205.18" y="563.6800000000001" type="curve" smooth="yes"/>
      <point x="205.18" y="693.43" type="line" smooth="yes"/>
      <point x="205.18" y="826.815"/>
      <point x="265.52" y="909.325"/>
      <point x="410.61" y="909.325" type="curve" smooth="yes"/>
      <point x="416.46" y="909.325" type="line" smooth="yes"/>
      <point x="549.995" y="909.325"/>
      <point x="615.745" y="830.9300000000001"/>
      <point x="615.745" y="695.635" type="curve" smooth="yes"/>
      <point x="615.745" y="562.9749999999999" type="line" smooth="yes"/>
      <point x="615.745" y="422.00500000000005"/>
      <point x="548.025" y="346.52"/>
    </contour>
  </outline>
</glyph>
<glyph name="h" format="2">
  <advance width="869.585"/>
  <unicode hex="0068"/>
  <anchor x="435.675" y="0.0" name="bottom"/>
  <anchor x="435.675" y="662.0" name="center"/>
  <anchor x="178.05499999999998" y="1328.85" name="top"/>
  <outline>
    <contour>
      <point x="644.22" y="0.0" type="line"/>
      <point x="759.6600000000001" y="0.0" type="line"/>
      <point x="759.6600000000001" y="678.35" type="line" smooth="yes"/>
      <point x="759.6600000000001" y="886.33"/>
      <point x="683.98" y="1001.535"/>
      <point x="498.97999999999996" y="1001.535" type="curve" smooth="yes"/>
      <point x="338.37" y="1001.535"/>
      <point x="255.55499999999998" y="904.905"/>
      <point x="232.785" y="783.9799999999999" type="curve"/>
      <point x="197.735" y="783.9799999999999" type="line"/>
      <point x="231.57" y="696.635" type="line"/>
      <point x="253.715" y="816.015"/>
      <point x="326.935" y="904.14"/>
      <point x="455.75999999999993" y="904.14" type="curve" smooth="yes"/>
      <point x="594.35" y="904.14"/>
      <point x="644.22" y="815.805"/>
      <point x="644.22" y="665.75" type="curve" smooth="yes"/>
    </contour>
    <contour>
      <point x="120.10000000000001" y="0.0" type="line"/>
      <point x="235.54" y="0.0" type="line"/>
      <point x="235.54" y="754.4350000000001" type="line"/>
      <point x="230.745" y="766.975" type="line"/>
      <point x="235.01000000000002" y="1024.43" type="line"/>
      <point x="235.01000000000002" y="1328.85" type="line"/>
      <point x="120.10000000000001" y="1328.85" type="line"/>
    </contour>
  </outline>
</glyph>
<glyph name="i" format="2">
  <advance width="363.52"/>
  <unicode hex="0069"/>
  <anchor x="181.99499999999998" y="0.0" name="bottom"/>
  <anchor x="280.12" y="0.0" name="ogonek"/>
  <outline>
    <contour>
      <point x="124.03999999999998" y="0.0" type="line"/>
      <point x="239.48000000000002" y="0.0" type="line"/>
      <point x="239.48000000000002" y="984.475" type="line"/>
      <point x="124.03999999999998" y="984.475" type="line"/>
    </contour>
    <contour>
      <point x="181.99499999999998" y="1147.935" type="curve" smooth="yes"/>
      <point x="231.14000000000001" y="1147.935"/>
      <point x="253.82999999999998" y="1177.565"/>
      <point x="253.82999999999998" y="1231.9650000000001" type="curve" smooth="yes"/>
      <point x="253.82999999999998" y="1241.61" type="line" smooth="yes"/>
      <point x="253.82999999999998" y="1295.245"/>
      <point x="231.14000000000001" y="1324.905"/>
      <point x="181.99499999999998" y="1324.905" type="curve" smooth="yes"/>
      <point x="132.58499999999998" y="1324.905"/>
      <point x="109.69" y="1295.245"/>
      <point x="109.69" y="1241.61" type="curve" smooth="yes"/>
      <point x="109.69" y="1231.9650000000001" type="line" smooth="yes"/>
      <point x="109.69" y="1177.8300000000002"/>
      <point x="132.58499999999998" y="1147.935"/>
    </contour>
  </outline>
</glyph>
<glyph name="j" format="2">
  <advance width="382.045"/>
  <unicode hex="006A"/>
  <outline>
    <contour>
      <point x="142.565" y="153.835" type="line"/>
      <point x="258.005" y="153.60000000000002" type="line"/>
      <point x="258.005" y="984.475" type="line"/>
      <point x="142.565" y="984.475" type="line"/>
    </contour>
    <contour>
      <point x="200.52" y="1146.345" type="curve" smooth="yes"/>
      <point x="249.665" y="1146.345"/>
      <point x="272.355" y="1175.9750000000001"/>
      <point x="272.355" y="1230.375" type="curve" smooth="yes"/>
      <point x="272.355" y="1240.02" type="line" smooth="yes"/>
      <point x="272.355" y="1293.655"/>
      <point x="249.665" y="1323.315"/>
      <point x="200.52" y="1323.315" type="curve" smooth="yes"/>
      <point x="151.11" y="1323.315"/>
      <point x="128.215" y="1293.655"/>
      <point x="128.215" y="1240.02" type="curve" smooth="yes"/>
      <point x="128.215" y="1230.375" type="line" smooth="yes"/>
      <point x="128.215" y="1176.24"/>
      <point x="151.11" y="1146.345"/>
    </contour>
    <component base="jbottom"/>
  </outline>
</glyph>
<glyph name="k" format="2">
  <advance width="794.81"/>
  <unicode hex="006B"/>
  <anchor x="413.765" y="0.0" name="bottom"/>
  <anchor x="402.74" y="1328.85" name="top"/>
  <outline>
    <contour>
      <point x="633.465" y="0.0" type="line"/>
      <point x="764.2950000000001" y="0.0" type="line"/>
      <point x="393.41999999999996" y="545.565" type="line"/>
      <point x="393.41999999999996" y="511.2" type="line"/>
      <point x="747.71" y="984.475" type="line"/>
      <point x="618.235" y="984.475" type="line"/>
      <point x="308.20500000000004" y="572.915" type="line"/>
      <point x="220.745" y="572.915" type="line"/>
      <point x="220.745" y="477.14" type="line"/>
      <point x="306.615" y="477.14" type="line"/>
    </contour>
    <contour>
      <point x="120.10000000000001" y="0.0" type="line"/>
      <point x="235.27500000000003" y="0.0" type="line"/>
      <point x="235.27500000000003" y="1328.85" type="line"/>
      <point x="120.10000000000001" y="1328.85" type="line"/>
    </contour>
  </outline>
</glyph>
<glyph name="l" format="2">
  <advance width="364.99"/>
  <unicode hex="006C"/>
  <anchor x="183.26" y="0.0" name="bottom"/>
  <anchor x="183.26" y="662.0" name="center"/>
  <anchor x="183.26" y="1328.85" name="top"/>
  <anchor x="389.27500000000003" y="1328.85" name="topright"/>
  <outline>
    <contour>
      <point x="124.775" y="0.0" type="line"/>
      <point x="240.215" y="0.0" type="line"/>
      <point x="240.215" y="1328.85" type="line"/>
      <point x="124.775" y="1328.85" type="line"/>
    </contour>
  </outline>
</glyph>
<glyph name="m" format="2">
  <advance width="1324.835"/>
  <unicode hex="006D"/>
  <anchor x="662.27" y="0.0" name="bottom"/>
  <anchor x="662.27" y="984.475" name="top"/>
  <outline>
    <contour>
      <point x="1099.4699999999998" y="0.0" type="line"/>
      <point x="1214.9099999999999" y="0.0" type="line"/>
      <point x="1214.9099999999999" y="684.525" type="line" smooth="yes"/>
      <point x="1214.9099999999999" y="888.095"/>
      <point x="1144.1999999999998" y="1001.535"/>
      <point x="969.8149999999999" y="1001.535" type="curve" smooth="yes"/>
      <point x="811.9" y="1001.535"/>
      <point x="735.235" y="901.665"/>
      <point x="711.9350000000001" y="788.21" type="curve"/>
      <point x="697.075" y="788.21" type="line"/>
      <point x="719.02" y="699.4250000000001" type="line"/>
      <point x="739.43" y="816.7199999999999"/>
      <point x="808.9150000000001" y="904.14"/>
      <point x="928.155" y="904.14" type="curve" smooth="yes"/>
      <point x="1053.3349999999998" y="904.14"/>
      <point x="1099.4699999999998" y="817.57"/>
      <point x="1099.4699999999998" y="672.1049999999999" type="curve" smooth="yes"/>
    </contour>
    <contour>
      <point x="120.10000000000001" y="0.0" type="line"/>
      <point x="235.54" y="0.0" type="line"/>
      <point x="235.54" y="774.4499999999999" type="line"/>
      <point x="229.655" y="779.22" type="line"/>
      <point x="235.51" y="984.475" type="line"/>
      <point x="120.10000000000001" y="984.475" type="line"/>
    </contour>
    <contour>
      <point x="610.05" y="0.0" type="line"/>
      <point x="724.96" y="0.0" type="line"/>
      <point x="724.96" y="685.67" type="line" smooth="yes"/>
      <point x="724.96" y="715.2"/>
      <point x="722.135" y="743.205"/>
      <point x="717.075" y="768.41" type="curve"/>
      <point x="697.045" y="921.62"/>
      <point x="624.135" y="1001.535"/>
      <point x="481.1" y="1001.535" type="curve" smooth="yes"/>
      <point x="329.57500000000005" y="1001.535"/>
      <point x="253.73000000000002" y="904.4350000000001"/>
      <point x="231.45999999999998" y="783.275" type="curve"/>
      <point x="202.38500000000002" y="783.275" type="line"/>
      <point x="230.775" y="695.165" type="line"/>
      <point x="251.42" y="815.78"/>
      <point x="319.72999999999996" y="904.14"/>
      <point x="439.205" y="904.14" type="curve" smooth="yes"/>
      <point x="564.62" y="904.14"/>
      <point x="610.05" y="817.57"/>
      <point x="610.05" y="671.87" type="curve" smooth="yes"/>
    </contour>
  </outline>
</glyph>
<glyph name="n" format="2">
  <advance width="869.585"/>
  <unicode hex="006E"/>
  <anchor x="435.675" y="0.0" name="bottom"/>
  <anchor x="435.675" y="984.475" name="top"/>
  <outline>
    <contour>
      <point x="644.22" y="0.0" type="line"/>
      <point x="759.6600000000001" y="0.0" type="line"/>
      <point x="759.6600000000001" y="678.35" type="line" smooth="yes"/>
      <point x="759.6600000000001" y="886.33"/>
      <point x="683.98" y="1001.535"/>
      <point x="498.97999999999996" y="1001.535" type="curve" smooth="yes"/>
      <point x="338.13" y="1001.535"/>
      <point x="255.465" y="907.49"/>
      <point x="231.45999999999998" y="782.805" type="curve"/>
      <point x="203.56" y="782.805" type="line"/>
      <point x="230.775" y="695.195" type="line"/>
      <point x="253.85999999999999" y="819.3050000000001"/>
      <point x="328.785" y="904.14"/>
      <point x="456.0249999999999" y="904.14" type="curve" smooth="yes"/>
      <point x="594.35" y="904.14"/>
      <point x="644.22" y="815.805"/>
      <point x="644.22" y="665.75" type="curve" smooth="yes"/>
    </contour>
    <contour>
      <point x="120.10000000000001" y="0.0" type="line"/>
      <point x="235.54" y="0.0" type="line"/>
      <point x="235.54" y="775.86" type="line"/>
      <point x="229.655" y="780.895" type="line"/>
      <point x="235.51" y="984.475" type="line"/>
      <point x="120.10000000000001" y="984.475" type="line"/>
    </contour>
  </outline>
</glyph>
<glyph name="o" format="2">
  <advance width="845.6999999999999"/>
  <unicode hex="006F"/>
  <anchor x="423.11499999999995" y="0.0" name="bottom"/>
  <anchor x="426.55500000000006" y="426.70500000000004" name="center"/>
  <anchor x="611.2049999999999" y="2.6500000000000004" name="ogonek"/>
  <anchor x="423.11499999999995" y="984.475" name="top"/>
  <anchor x="748.5" y="984.475" name="topright"/>
  <outline>
    <contour>
      <point x="423.11499999999995" y="-19.59" type="curve" smooth="yes"/>
      <point x="641.76" y="-19.59"/>
      <point x="755.9799999999999" y="109.42000000000002"/>
      <point x="755.9799999999999" y="347.28999999999996" type="curve"/>
      <point x="755.9799999999999" y="638.715" type="line"/>
      <point x="755.9799999999999" y="876.085"/>
      <point x="641.76" y="1004.3299999999999"/>
      <point x="423.11499999999995" y="1004.3299999999999" type="curve" smooth="yes"/>
      <point x="204.205" y="1004.3299999999999"/>
      <point x="89.72" y="876.085"/>
      <point x="89.72" y="638.715" type="curve"/>
      <point x="89.72" y="347.28999999999996" type="line"/>
      <point x="89.72" y="109.655"/>
      <point x="203.97" y="-19.59"/>
    </contour>
    <contour>
      <point x="423.11499999999995" y="76.215" type="curve" smooth="yes"/>
      <point x="278.085" y="76.215"/>
      <point x="205.425" y="168.05"/>
      <point x="205.425" y="340.665" type="curve" smooth="yes"/>
      <point x="205.425" y="645.34" type="line" smooth="yes"/>
      <point x="205.425" y="816.9549999999999"/>
      <point x="278.085" y="908.525"/>
      <point x="423.11499999999995" y="908.525" type="curve" smooth="yes"/>
      <point x="567.88" y="908.525"/>
      <point x="640.54" y="816.9549999999999"/>
      <point x="640.54" y="645.34" type="curve" smooth="yes"/>
      <point x="640.54" y="340.665" type="line" smooth="yes"/>
      <point x="640.54" y="168.05"/>
      <point x="567.645" y="76.215"/>
    </contour>
  </outline>
</glyph>
<glyph name="q" format="2">
  <advance width="870.965"/>
  <unicode hex="0071"/>
  <anchor x="432.05499999999995" y="0.0" name="bottom"/>
  <anchor x="432.05499999999995" y="984.475" name="top"/>
  <outline>
    <contour>
      <point x="375.72499999999997" y="-17.06" type="curve" smooth="yes"/>
      <point x="532.575" y="-17.06"/>
      <point x="615.205" y="76.75"/>
      <point x="638.65" y="202.845" type="curve"/>
      <point x="668.465" y="202.845" type="line"/>
      <point x="641.72" y="290.485" type="line"/>
      <point x="617.9" y="164.465"/>
      <point x="537.77" y="80.33500000000001"/>
      <point x="414.90999999999997" y="80.33500000000001" type="curve" smooth="yes"/>
      <point x="274.41" y="80.33500000000001"/>
      <point x="205.955" y="171.315"/>
      <point x="205.955" y="341.60499999999996" type="curve" smooth="yes"/>
      <point x="205.955" y="642.8399999999999" type="line" smooth="yes"/>
      <point x="205.955" y="815.25"/>
      <point x="276.58500000000004" y="906.26"/>
      <point x="413.91" y="906.26" type="curve" smooth="yes"/>
      <point x="543.9499999999999" y="906.26"/>
      <point x="631.3399999999999" y="820.5699999999999"/>
      <point x="638.985" y="664.595" type="curve"/>
      <point x="674.0300000000001" y="770.8199999999999" type="line"/>
      <point x="640.21" y="770.8199999999999" type="line"/>
      <point x="623.46" y="906.88"/>
      <point x="533.42" y="1001.535"/>
      <point x="380.195" y="1001.535" type="curve" smooth="yes"/>
      <point x="186.42499999999998" y="1001.535"/>
      <point x="90.25" y="873.8499999999999"/>
      <point x="90.25" y="635.155" type="curve" smooth="yes"/>
      <point x="90.25" y="347.2" type="line" smooth="yes"/>
      <point x="90.25" y="109.83"/>
      <point x="185.69" y="-17.06"/>
    </contour>
    <contour>
      <point x="635.955" y="-347.0" type="line"/>
      <point x="750.865" y="-347.0" type="line"/>
      <point x="750.865" y="984.475" type="line"/>
      <point x="635.455" y="984.475" type="line"/>
      <point x="641.84" y="768.5550000000001" type="line"/>
      <point x="638.985" y="738.7" type="line"/>
      <point x="638.985" y="242.1" type="line"/>
      <point x="640.455" y="218.675" type="line"/>
      <point x="635.955" y="-25.460000000000004" type="line"/>
    </contour>
  </outline>
</glyph>
<glyph name="r" format="2">
  <advance width="594.4499999999999"/>
  <unicode hex="0072"/>
  <anchor x="178.55499999999998" y="0.0" name="bottom"/>
  <anchor x="331.69" y="984.475" name="top"/>
  <outline>
    <contour>
      <point x="230.775" y="627.65" type="line"/>
      <point x="263.83" y="792.5200000000001"/>
      <point x="360.67499999999995" y="878.295"/>
      <point x="487.195" y="878.295" type="curve" smooth="yes"/>
      <point x="521.34" y="878.295"/>
      <point x="550.25" y="872.855"/>
      <point x="572.925" y="865.6800000000001" type="curve"/>
      <point x="566.245" y="984.655" type="line"/>
      <point x="546.805" y="990.8000000000001"/>
      <point x="523.105" y="995.975"/>
      <point x="492.935" y="995.975" type="curve" smooth="yes"/>
      <point x="344.56" y="995.975"/>
      <point x="255.01999999999998" y="893.8199999999999"/>
      <point x="228.07500000000002" y="730.88" type="curve"/>
      <point x="199.79" y="728.765" type="line"/>
    </contour>
    <contour>
      <point x="120.10000000000001" y="0.0" type="line"/>
      <point x="235.54" y="0.0" type="line"/>
      <point x="235.54" y="703.29" type="line"/>
      <point x="224.97500000000002" y="719.0350000000001" type="line"/>
      <point x="232.36" y="984.475" type="line"/>
      <point x="120.10000000000001" y="984.475" type="line"/>
    </contour>
  </outline>
</glyph>
<glyph name="s" format="2">
  <advance width="694.895"/>
  <unicode hex="0073"/>
  <anchor x="344.08000000000004" y="0.0" name="bottom"/>
  <anchor x="343.285" y="984.475" name="top"/>
  <outline>
    <contour>
      <point x="336.60499999999996" y="-17.325" type="curve" smooth="yes"/>
      <point x="529.725" y="-17.325"/>
      <point x="632.38" y="75.00500000000001"/>
      <point x="632.38" y="240.905" type="curve" smooth="yes"/>
      <point x="632.38" y="270.25" type="line" smooth="yes"/>
      <point x="632.38" y="417.76"/>
      <point x="569.37" y="482.70000000000005"/>
      <point x="381.58000000000004" y="545.585" type="curve" smooth="yes"/>
      <point x="227.45000000000002" y="597.495"/>
      <point x="178.365" y="639.135"/>
      <point x="178.365" y="740.28" type="curve" smooth="yes"/>
      <point x="178.365" y="755.2750000000001" type="line" smooth="yes"/>
      <point x="178.365" y="848.07"/>
      <point x="232.645" y="903.465"/>
      <point x="358.715" y="903.465" type="curve" smooth="yes"/>
      <point x="463.98" y="903.465"/>
      <point x="542.105" y="869.29"/>
      <point x="611.225" y="822.355" type="curve"/>
      <point x="600.6899999999999" y="926.63" type="line"/>
      <point x="545.89" y="966.51"/>
      <point x="462.5" y="1001.83"/>
      <point x="346.2" y="1001.83" type="curve" smooth="yes"/>
      <point x="159.5" y="1001.83"/>
      <point x="65.045" y="914.295"/>
      <point x="65.045" y="758.985" type="curve" smooth="yes"/>
      <point x="65.045" y="741.8399999999999" type="line" smooth="yes"/>
      <point x="65.045" y="596.665"/>
      <point x="126.4" y="528.155"/>
      <point x="312.105" y="465.975" type="curve" smooth="yes"/>
      <point x="484.705" y="405.56500000000005"/>
      <point x="518.7950000000001" y="358.17"/>
      <point x="518.7950000000001" y="267.25" type="curve" smooth="yes"/>
      <point x="518.7950000000001" y="242.76" type="line" smooth="yes"/>
      <point x="518.7950000000001" y="140.025"/>
      <point x="453.43000000000006" y="83.66"/>
      <point x="328.3" y="83.66" type="curve" smooth="yes"/>
      <point x="220.825" y="83.66"/>
      <point x="136.76" y="118.925"/>
      <point x="61.08" y="166.48000000000002" type="curve"/>
      <point x="71.615" y="54.61000000000001" type="line"/>
      <point x="128.975" y="18.965"/>
      <point x="218.77499999999998" y="-17.325"/>
    </contour>
  </outline>
</glyph>
<glyph name="t" format="2">
  <advance width="634.345"/>
  <unicode hex="0074"/>
  <anchor x="370.27000000000004" y="0.0" name="bottom"/>
  <anchor x="318.6" y="492.62" name="center"/>
  <anchor x="216.64499999999998" y="1222.1699999999998" name="top"/>
  <anchor x="474.88" y="1410.7450000000001" name="topright"/>
  <outline>
    <contour>
      <point x="401.895" y="-15.559999999999999" type="curve" smooth="yes"/>
      <point x="471.255" y="-15.559999999999999"/>
      <point x="539.08" y="0.6150000000000002"/>
      <point x="586.495" y="25.820000000000004" type="curve"/>
      <point x="596.53" y="129.18500000000003" type="line"/>
      <point x="547.065" y="102.985"/>
      <point x="491.04" y="88.075"/>
      <point x="430.955" y="88.075" type="curve" smooth="yes"/>
      <point x="314.855" y="88.075"/>
      <point x="269.95" y="138.29999999999998"/>
      <point x="269.95" y="252.725" type="curve" smooth="yes"/>
      <point x="269.95" y="933.495" type="line"/>
      <point x="155.835" y="933.495" type="line"/>
      <point x="155.835" y="233.91499999999996" type="line" smooth="yes"/>
      <point x="155.835" y="67.80499999999999"/>
      <point x="228.93" y="-15.559999999999999"/>
    </contour>
    <contour>
      <point x="17.29" y="875.06" type="line"/>
      <point x="570.47" y="875.06" type="line"/>
      <point x="580.505" y="968.8050000000001" type="line"/>
      <point x="17.29" y="968.8050000000001" type="line"/>
    </contour>
    <contour>
      <point x="156.895" y="955.155" type="line"/>
      <point x="266.59499999999997" y="955.155" type="line"/>
      <point x="271.98" y="1246.7050000000002" type="line"/>
      <point x="156.63" y="1226.67" type="line"/>
    </contour>
  </outline>
</glyph>
<glyph name="u" format="2">
  <advance width="869.585"/>
  <unicode hex="0075"/>
  <anchor x="434.265" y="0.0" name="bottom"/>
  <anchor x="788.715" y="0.0" name="ogonek"/>
  <anchor x="434.265" y="984.475" name="top"/>
  <anchor x="850.6499999999999" y="984.475" name="topright"/>
  <outline>
    <contour>
      <point x="225.365" y="984.475" type="line"/>
      <point x="109.92499999999998" y="984.475" type="line"/>
      <point x="109.92499999999998" y="306.125" type="line" smooth="yes"/>
      <point x="109.92499999999998" y="98.14500000000001"/>
      <point x="185.605" y="-17.06"/>
      <point x="370.605" y="-17.06" type="curve" smooth="yes"/>
      <point x="531.4549999999999" y="-17.06"/>
      <point x="614.12" y="76.985"/>
      <point x="638.125" y="201.67" type="curve"/>
      <point x="666.0250000000001" y="201.67" type="line"/>
      <point x="638.81" y="289.28000000000003" type="line"/>
      <point x="615.7249999999999" y="165.17000000000002"/>
      <point x="540.8" y="80.33500000000001"/>
      <point x="413.56" y="80.33500000000001" type="curve" smooth="yes"/>
      <point x="275.235" y="80.33500000000001"/>
      <point x="225.365" y="168.67"/>
      <point x="225.365" y="318.725" type="curve" smooth="yes"/>
    </contour>
    <contour>
      <point x="749.4849999999999" y="984.475" type="line"/>
      <point x="634.045" y="984.475" type="line"/>
      <point x="634.045" y="208.615" type="line"/>
      <point x="639.93" y="203.58" type="line"/>
      <point x="634.0749999999999" y="0.0" type="line"/>
      <point x="749.4849999999999" y="0.0" type="line"/>
    </contour>
  </outline>
</glyph>
<glyph name="v" format="2">
  <advance width="802.025"/>
  <unicode hex="0076"/>
  <anchor x="401.38" y="0.0" name="bottom"/>
  <anchor x="401.38" y="984.475" name="top"/>
  <outline>
    <contour>
      <point x="410.645" y="82.28999999999999" type="line"/>
      <point x="391.615" y="82.28999999999999" type="line"/>
      <point x="167.22" y="984.475" type="line"/>
      <point x="48.25" y="984.475" type="line"/>
      <point x="304.195" y="0.0" type="line"/>
      <point x="498.06499999999994" y="0.0" type="line"/>
      <point x="753.7750000000001" y="984.475" type="line"/>
      <point x="634.8050000000001" y="984.475" type="line"/>
    </contour>
  </outline>
</glyph>
<glyph name="w" format="2">
  <advance width="1232.685"/>
  <unicode hex="0077"/>
  <anchor x="616.475" y="0.0" name="bottom"/>
  <anchor x="616.475" y="984.475" name="top"/>
  <outline>
    <contour>
      <point x="255.25500000000002" y="0.0" type="line"/>
      <point x="439.555" y="0.0" type="line"/>
      <point x="579.1850000000001" y="687.525" type="line"/>
      <point x="610.6800000000001" y="870.62" type="line"/>
      <point x="622.3000000000001" y="870.62" type="line"/>
      <point x="654.295" y="687.76" type="line"/>
      <point x="794.16" y="0.0" type="line"/>
      <point x="977.6949999999999" y="0.0" type="line"/>
      <point x="1175.26" y="984.475" type="line"/>
      <point x="1058.9399999999998" y="984.475" type="line"/>
      <point x="891.1" y="86.26500000000001" type="line"/>
      <point x="875.19" y="86.26500000000001" type="line"/>
      <point x="699.3249999999999" y="957.3599999999999" type="line"/>
      <point x="533.89" y="957.3599999999999" type="line"/>
      <point x="358.26" y="86.26500000000001" type="line"/>
      <point x="342.08500000000004" y="86.26500000000001" type="line"/>
      <point x="175.335" y="984.475" type="line"/>
      <point x="57.425000000000004" y="984.475" type="line"/>
    </contour>
  </outline>
</glyph>
<glyph name="x" format="2">
  <advance width="779.8"/>
  <unicode hex="0078"/>
  <anchor x="390.15" y="0.0" name="bottom"/>
  <anchor x="390.15" y="984.475" name="top"/>
  <outline>
    <contour>
      <point x="52.834999999999994" y="0.0" type="line"/>
      <point x="175.395" y="0.0" type="line"/>
      <point x="385.09" y="452.02" type="line"/>
      <point x="395.74" y="452.02" type="line"/>
      <point x="604.64" y="0.0" type="line"/>
      <point x="726.965" y="0.0" type="line"/>
      <point x="474.245" y="533.9849999999999" type="line"/>
      <point x="474.245" y="494.255" type="line"/>
      <point x="722.1999999999999" y="984.475" type="line"/>
      <point x="600.375" y="984.475" type="line"/>
      <point x="395.74" y="566.125" type="line"/>
      <point x="385.09" y="566.125" type="line"/>
      <point x="179.66" y="984.475" type="line"/>
      <point x="57.835" y="984.475" type="line"/>
      <point x="305.79" y="494.02000000000004" type="line"/>
      <point x="305.79" y="533.75" type="line"/>
    </contour>
  </outline>
</glyph>
<glyph name="y" format="2">
  <advance width="802.025"/>
  <unicode hex="0079"/>
  <anchor x="581.4200000000001" y="-33.47" name="bottom"/>
  <anchor x="401.41" y="984.475" name="top"/>
  <outline>
    <contour>
      <point x="457.065" y="124.965" type="line"/>
      <point x="388.7" y="124.965" type="line"/>
      <point x="167.22" y="984.475" type="line"/>
      <point x="48.25" y="984.475" type="line"/>
      <point x="304.99" y="41.615" type="line"/>
      <point x="442.41" y="41.615" type="line"/>
      <point x="390.895" y="84.35" type="line"/>
      <point x="271.925" y="-347.0" type="line"/>
      <point x="386.745" y="-347.0" type="line"/>
      <point x="753.775" y="984.475" type="line"/>
      <point x="635.3349999999999" y="984.475" type="line"/>
      <point x="400.02" y="105.63000000000001" type="line"/>
    </contour>
  </outline>
</glyph>
<glyph name="z" format="2">
  <advance width="716.865"/>
  <unicode hex="007A"/>
  <anchor x="357.815" y="0.0" name="bottom"/>
  <anchor x="359.05" y="492.62" name="center"/>
  <anchor x="357.815" y="984.475" name="top"/>
  <outline>
    <contour>
      <point x="643.935" y="98.72" type="line"/>
      <point x="200.91" y="98.72" type="line"/>
      <point x="641.375" y="894.615" type="line"/>
      <point x="641.375" y="984.475" type="line"/>
      <point x="73.75500000000001" y="984.475" type="line"/>
      <point x="73.75500000000001" y="886.7850000000001" type="line"/>
      <point x="512.16" y="886.7850000000001" type="line"/>
      <point x="71.96000000000001" y="90.89" type="line"/>
      <point x="71.96000000000001" y="0.0" type="line"/>
      <point x="643.935" y="0.0" type="line"/>
    </contour>
  </outline>
</glyph>
<glyph name="braceleft" format="2">
  <advance width="577.64"/>
  <unicode hex="007B"/>
  <outline>
    <contour>
      <point x="531.615" y="1332.355" type="line"/>
      <point x="493.58000000000004" y="1345.3549999999998"/>
      <point x="451.13500000000005" y="1354.09"/>
      <point x="403.605" y="1354.09" type="curve" smooth="yes"/>
      <point x="258.05" y="1354.09"/>
      <point x="189.83" y="1279.73"/>
      <point x="189.83" y="1115.645" type="curve" smooth="yes"/>
      <point x="189.83" y="1017.7800000000001"/>
      <point x="204.065" y="867.315"/>
      <point x="204.065" y="783.595" type="curve" smooth="yes"/>
      <point x="204.065" y="675.875"/>
      <point x="172.33" y="621.355"/>
      <point x="60.05" y="611.475" type="curve"/>
      <point x="60.05" y="504.60999999999996" type="line"/>
      <point x="172.33" y="493.76"/>
      <point x="204.065" y="439.47499999999997"/>
      <point x="204.065" y="331.02" type="curve" smooth="yes"/>
      <point x="204.065" y="249.035"/>
      <point x="189.83" y="95.86500000000001"/>
      <point x="189.83" y="-5.234999999999999" type="curve" smooth="yes"/>
      <point x="189.83" y="-168.85"/>
      <point x="258.75500000000005" y="-243.71"/>
      <point x="403.605" y="-243.71" type="curve" smooth="yes"/>
      <point x="451.13500000000005" y="-243.71"/>
      <point x="493.58000000000004" y="-234.975"/>
      <point x="531.615" y="-221.505" type="curve"/>
      <point x="531.615" y="-131.32500000000002" type="line"/>
      <point x="505.23499999999996" y="-141.94"/>
      <point x="470.77" y="-150.555"/>
      <point x="430.28" y="-150.555" type="curve" smooth="yes"/>
      <point x="339.995" y="-150.555"/>
      <point x="301.79499999999996" y="-103.91499999999999"/>
      <point x="301.79499999999996" y="4.950000000000003" type="curve" smooth="yes"/>
      <point x="301.79499999999996" y="91.19500000000001"/>
      <point x="315.53" y="242.30499999999998"/>
      <point x="315.53" y="334.345" type="curve" smooth="yes"/>
      <point x="315.53" y="461.10999999999996"/>
      <point x="277.97499999999997" y="538.995"/>
      <point x="151.205" y="556.82" type="curve"/>
      <point x="157.67999999999998" y="540.605" type="line"/>
      <point x="157.67999999999998" y="561.2950000000001" type="line"/>
      <point x="276.23999999999995" y="580.445"/>
      <point x="315.53" y="653.505"/>
      <point x="315.53" y="780.27" type="curve" smooth="yes"/>
      <point x="315.53" y="870.8100000000001"/>
      <point x="301.79499999999996" y="1020.42"/>
      <point x="301.79499999999996" y="1105.96" type="curve" smooth="yes"/>
      <point x="301.79499999999996" y="1214.325"/>
      <point x="339.995" y="1260.965"/>
      <point x="429.75" y="1260.965" type="curve" smooth="yes"/>
      <point x="470.505" y="1260.965"/>
      <point x="505.23499999999996" y="1252.585"/>
      <point x="531.615" y="1242.2350000000001" type="curve"/>
    </contour>
  </outline>
</glyph>
<glyph name="bar" format="2">
  <advance width="417.385"/>
  <unicode hex="007C"/>
  <outline>
    <contour>
      <point x="260.23" y="-433.96" type="line"/>
      <point x="260.23" y="1423.5" type="line"/>
      <point x="157.155" y="1423.5" type="line"/>
      <point x="157.155" y="-433.96" type="line"/>
    </contour>
  </outline>
</glyph>
<glyph name="braceright" format="2">
  <advance width="577.64"/>
  <unicode hex="007D"/>
  <outline>
    <contour>
      <point x="46.025" y="1332.355" type="curve"/>
      <point x="46.025" y="1242.2350000000001" type="line"/>
      <point x="72.405" y="1252.585"/>
      <point x="107.13499999999999" y="1260.965"/>
      <point x="147.89" y="1260.965" type="curve" smooth="yes"/>
      <point x="237.64500000000004" y="1260.965"/>
      <point x="275.845" y="1214.325"/>
      <point x="275.845" y="1105.96" type="curve" smooth="yes"/>
      <point x="275.845" y="1020.42"/>
      <point x="262.11" y="870.8100000000001"/>
      <point x="262.11" y="780.27" type="curve" smooth="yes"/>
      <point x="262.11" y="653.505"/>
      <point x="301.40000000000003" y="580.445"/>
      <point x="419.96" y="561.2950000000001" type="curve"/>
      <point x="419.96" y="540.605" type="line"/>
      <point x="426.435" y="556.82" type="line"/>
      <point x="299.665" y="538.995"/>
      <point x="262.11" y="461.10999999999996"/>
      <point x="262.11" y="334.345" type="curve" smooth="yes"/>
      <point x="262.11" y="242.30499999999998"/>
      <point x="275.845" y="91.19500000000001"/>
      <point x="275.845" y="4.950000000000003" type="curve" smooth="yes"/>
      <point x="275.845" y="-103.91499999999999"/>
      <point x="237.64500000000004" y="-150.555"/>
      <point x="147.35999999999999" y="-150.555" type="curve" smooth="yes"/>
      <point x="106.86999999999999" y="-150.555"/>
      <point x="72.405" y="-141.94"/>
      <point x="46.025" y="-131.32500000000002" type="curve"/>
      <point x="46.025" y="-221.505" type="line"/>
      <point x="84.06" y="-234.975"/>
      <point x="126.505" y="-243.71"/>
      <point x="174.035" y="-243.71" type="curve" smooth="yes"/>
      <point x="318.885" y="-243.71"/>
      <point x="387.81" y="-168.85"/>
      <point x="387.81" y="-5.234999999999999" type="curve" smooth="yes"/>
      <point x="387.81" y="95.86500000000001"/>
      <point x="373.575" y="249.035"/>
      <point x="373.575" y="331.02" type="curve" smooth="yes"/>
      <point x="373.575" y="439.47499999999997"/>
      <point x="405.31" y="493.76"/>
      <point x="517.5899999999999" y="504.60999999999996" type="curve"/>
      <point x="517.5899999999999" y="611.475" type="line"/>
      <point x="405.31" y="621.355"/>
      <point x="373.575" y="675.875"/>
      <point x="373.575" y="783.595" type="curve" smooth="yes"/>
      <point x="373.575" y="867.315"/>
      <point x="387.81" y="1017.7800000000001"/>
      <point x="387.81" y="1115.645" type="curve" smooth="yes"/>
      <point x="387.81" y="1279.73"/>
      <point x="319.59" y="1354.09"/>
      <point x="174.035" y="1354.09" type="curve" smooth="yes"/>
      <point x="126.505" y="1354.09"/>
      <point x="84.06" y="1345.3549999999998"/>
    </contour>
  </outline>
</glyph>
<glyph name="asciitilde" format="2">
  <advance width="919.79"/>
  <unicode hex="007E"/>
  <outline>
    <contour>
      <point x="634.925" y="511.81" type="curve" smooth="yes"/>
      <point x="753.305" y="511.81"/>
      <point x="802.84" y="580.8"/>
      <point x="802.84" y="707.03" type="curve" smooth="yes"/>
      <point x="802.84" y="737.98" type="line"/>
      <point x="713.75" y="737.98" type="line"/>
      <point x="713.75" y="719.07" type="line" smooth="yes"/>
      <point x="713.75" y="648.32"/>
      <point x="689.23" y="610.795"/>
      <point x="627.9449999999999" y="610.795" type="curve" smooth="yes"/>
      <point x="527.4300000000001" y="610.795"/>
      <point x="410.45500000000004" y="719.305"/>
      <point x="284.835" y="719.305" type="curve" smooth="yes"/>
      <point x="165.95499999999998" y="719.305"/>
      <point x="116.68499999999999" y="648.4599999999999"/>
      <point x="116.68499999999999" y="522.35" type="curve" smooth="yes"/>
      <point x="116.68499999999999" y="492.195" type="line"/>
      <point x="204.805" y="492.195" type="line"/>
      <point x="204.805" y="510.515" type="line" smooth="yes"/>
      <point x="204.805" y="580.94"/>
      <point x="230.32500000000002" y="620.29"/>
      <point x="291.315" y="620.29" type="curve" smooth="yes"/>
      <point x="392.95" y="620.29"/>
      <point x="507.4549999999999" y="511.81"/>
    </contour>
  </outline>
</glyph>
<glyph name="exclamdown" format="2">
  <advance width="396.505"/>
  <unicode hex="00A1"/>
  <outline>
    <contour>
      <point x="245.2" y="607.485" type="line"/>
      <point x="151.305" y="607.485" type="line"/>
      <point x="136.295" y="-293.52500000000003" type="line"/>
      <point x="259.975" y="-293.52500000000003" type="line"/>
    </contour>
    <contour>
      <point x="198.43" y="999.745" type="curve" smooth="yes"/>
      <point x="147.99" y="999.745"/>
      <point x="125.33" y="967.73"/>
      <point x="125.33" y="907.825" type="curve" smooth="yes"/>
      <point x="125.33" y="894.56" type="line" smooth="yes"/>
      <point x="125.33" y="835.655"/>
      <point x="147.99" y="803.64"/>
      <point x="198.43" y="803.64" type="curve" smooth="yes"/>
      <point x="248.28" y="803.64"/>
      <point x="272.235" y="835.655"/>
      <point x="272.235" y="894.56" type="curve" smooth="yes"/>
      <point x="272.235" y="907.825" type="line" smooth="yes"/>
      <point x="272.235" y="967.73"/>
      <point x="248.28" y="999.745"/>
    </contour>
  </outline>
</glyph>
<glyph name="cent" format="2">
  <advance width="688.62"/>
  <unicode hex="00A2"/>
  <anchor x="383.725" y="0.0" name="bottom"/>
  <anchor x="383.725" y="984.475" name="top"/>
  <outline>
    <contour>
      <point x="444.62" y="952.62" type="line"/>
      <point x="444.62" y="1176.82" type="line"/>
      <point x="343.90000000000003" y="1176.82" type="line"/>
      <point x="343.90000000000003" y="952.62" type="line"/>
    </contour>
    <contour>
      <point x="444.62" y="-200.14000000000001" type="line"/>
      <point x="444.62" y="36.655" type="line"/>
      <point x="343.90000000000003" y="36.655" type="line"/>
      <point x="343.90000000000003" y="-200.14000000000001" type="line"/>
    </contour>
    <component base="c"/>
  </outline>
</glyph>
<glyph name="sterling" format="2">
  <advance width="843.9100000000001"/>
  <unicode hex="00A3"/>
  <outline>
    <contour>
      <point x="70.58" y="611.795" type="line"/>
      <point x="696.92" y="611.795" type="line"/>
      <point x="705.04" y="705.155" type="line"/>
      <point x="78.7" y="705.155" type="line"/>
    </contour>
    <contour>
      <point x="204.07500000000002" y="103.9" type="line"/>
      <point x="206.425" y="106.965" type="line"/>
      <point x="306.45000000000005" y="167.98"/>
      <point x="355.28000000000003" y="268.04"/>
      <point x="355.28000000000003" y="446.105" type="curve" smooth="yes"/>
      <point x="355.28000000000003" y="608.54"/>
      <point x="299.16499999999996" y="799.41"/>
      <point x="299.16499999999996" y="961.53" type="curve" smooth="yes"/>
      <point x="299.16499999999996" y="1115.855"/>
      <point x="369.975" y="1192.7800000000002"/>
      <point x="522.345" y="1192.7800000000002" type="curve" smooth="yes"/>
      <point x="597.105" y="1192.7800000000002"/>
      <point x="667.925" y="1178.3700000000001"/>
      <point x="739.775" y="1147.0800000000002" type="curve"/>
      <point x="730.005" y="1250.77" type="line"/>
      <point x="670.5" y="1277.0049999999999"/>
      <point x="585.35" y="1297.15"/>
      <point x="499.965" y="1297.15" type="curve" smooth="yes"/>
      <point x="278.79" y="1297.15"/>
      <point x="178.27999999999997" y="1188.675"/>
      <point x="178.27999999999997" y="974.015" type="curve" smooth="yes"/>
      <point x="178.27999999999997" y="800.8050000000001"/>
      <point x="235.925" y="615.87"/>
      <point x="235.425" y="441.13" type="curve" smooth="yes"/>
      <point x="235.18999999999997" y="264.96"/>
      <point x="194.635" y="163.16"/>
      <point x="90.28999999999999" y="103.4" type="curve" smooth="yes"/>
      <point x="75.99499999999999" y="99.4" type="line"/>
      <point x="75.99499999999999" y="0.0" type="line"/>
      <point x="782.1550000000001" y="0.0" type="line"/>
      <point x="782.1550000000001" y="103.9" type="line"/>
    </contour>
  </outline>
</glyph>
<glyph name="currency" format="2">
  <advance width="840.6700000000001"/>
  <unicode hex="00A4"/>
  <outline>
    <contour>
      <point x="420.07000000000005" y="264.74999999999994" type="curve" smooth="yes"/>
      <point x="608.39" y="264.74999999999994"/>
      <point x="710.46" y="375.965"/>
      <point x="710.46" y="581.1850000000001" type="curve" smooth="yes"/>
      <point x="710.46" y="655.8149999999999" type="line" smooth="yes"/>
      <point x="710.46" y="860.27"/>
      <point x="608.89" y="971.25"/>
      <point x="420.57000000000005" y="971.25" type="curve" smooth="yes"/>
      <point x="232.25" y="971.25"/>
      <point x="130.18" y="860.27"/>
      <point x="130.18" y="655.8149999999999" type="curve" smooth="yes"/>
      <point x="130.18" y="581.1850000000001" type="line" smooth="yes"/>
      <point x="130.18" y="375.965"/>
      <point x="231.75" y="264.74999999999994"/>
    </contour>
    <contour>
      <point x="420.57000000000005" y="353.9" type="curve" smooth="yes"/>
      <point x="298.77" y="353.9"/>
      <point x="234.75499999999997" y="431.11999999999995"/>
      <point x="234.75499999999997" y="578.8" type="curve" smooth="yes"/>
      <point x="234.75499999999997" y="658.2" type="line" smooth="yes"/>
      <point x="234.75499999999997" y="805.645"/>
      <point x="298.77" y="882.3649999999999"/>
      <point x="420.57000000000005" y="882.3649999999999" type="curve" smooth="yes"/>
      <point x="541.6350000000001" y="882.3649999999999"/>
      <point x="605.09" y="805.38"/>
      <point x="605.355" y="658.2" type="curve" smooth="yes"/>
      <point x="605.885" y="578.8" type="line" smooth="yes"/>
      <point x="606.15" y="431.11999999999995"/>
      <point x="541.6350000000001" y="353.9"/>
    </contour>
    <contour>
      <point x="627.985" y="395.155" type="line"/>
      <point x="560.675" y="333.495" type="line"/>
      <point x="710.985" y="138.75" type="line"/>
      <point x="781.945" y="194.02499999999998" type="line"/>
    </contour>
    <contour>
      <point x="282.055" y="337.02500000000003" type="line"/>
      <point x="215.185" y="397.33" type="line"/>
      <point x="58.99" y="194.02499999999998" type="line"/>
      <point x="129.92" y="138.75" type="line"/>
    </contour>
    <contour>
      <point x="210.035" y="841.935" type="line"/>
      <point x="279.465" y="899.24" type="line"/>
      <point x="129.18499999999997" y="1094.6599999999999" type="line"/>
      <point x="58.99" y="1039.62" type="line"/>
    </contour>
    <contour>
      <point x="558.085" y="895.09" type="line"/>
      <point x="625.365" y="834.37" type="line"/>
      <point x="781.4150000000001" y="1039.62" type="line"/>
      <point x="711.22" y="1094.6599999999999" type="line"/>
    </contour>
  </outline>
</glyph>
<glyph name="yen" format="2">
  <advance width="902.63"/>
  <unicode hex="00A5"/>
  <anchor x="448.64000000000004" y="0.0" name="bottom"/>
  <anchor x="448.64000000000004" y="1278.0" name="top"/>
  <anchor x="40.05" y="1278.0" name="topleft"/>
  <outline>
    <contour>
      <point x="515.665" y="564.665" type="line"/>
      <point x="791.3449999999999" y="564.665" type="line"/>
      <point x="800.495" y="655.76" type="line"/>
      <point x="538.91" y="655.76" type="line"/>
    </contour>
    <contour>
      <point x="113.84500000000001" y="352.39" type="line"/>
      <point x="104.46000000000001" y="262.35499999999996" type="line"/>
      <point x="791.3449999999999" y="262.35499999999996" type="line"/>
      <point x="800.495" y="352.39" type="line"/>
    </contour>
    <contour>
      <point x="357.30499999999995" y="655.76" type="line"/>
      <point x="113.84500000000001" y="655.76" type="line"/>
      <point x="104.46000000000001" y="564.665" type="line"/>
      <point x="382.05" y="564.665" type="line"/>
    </contour>
    <component base="Y" xOffset="18.639999999999997"/>
  </outline>
</glyph>
<glyph name="brokenbar" format="2">
  <advance width="417.385"/>
  <unicode hex="00A6"/>
  <outline>
    <contour>
      <point x="260.23" y="589.465" type="line"/>
      <point x="260.23" y="1423.5" type="line"/>
      <point x="157.155" y="1423.5" type="line"/>
      <point x="157.155" y="589.465" type="line"/>
    </contour>
    <contour>
      <point x="260.23" y="-433.96" type="line"/>
      <point x="260.23" y="402.40000000000003" type="line"/>
      <point x="157.155" y="402.40000000000003" type="line"/>
      <point x="157.155" y="-433.96" type="line"/>
    </contour>
  </outline>
</glyph>
<glyph name="section" format="2">
  <advance width="758.4150000000001"/>
  <unicode hex="00A7"/>
  <outline>
    <contour>
      <point x="431.13" y="381.04" type="curve"/>
      <point x="506.78999999999996" y="335.16499999999996" type="line"/>
      <point x="506.525" y="361.265" type="line"/>
      <point x="604.6999999999999" y="389.325"/>
      <point x="660.52" y="465.27"/>
      <point x="660.52" y="570.585" type="curve" smooth="yes"/>
      <point x="660.52" y="601.8000000000001" type="line" smooth="yes"/>
      <point x="660.52" y="745.015"/>
      <point x="593.565" y="806.215"/>
      <point x="407.1" y="872.4549999999999" type="curve" smooth="yes"/>
      <point x="257.18" y="924.57"/>
      <point x="208.89" y="963.62"/>
      <point x="208.89" y="1051.565" type="curve" smooth="yes"/>
      <point x="208.89" y="1063.24" type="line" smooth="yes"/>
      <point x="208.89" y="1149.595"/>
      <point x="263.14" y="1199.0800000000002"/>
      <point x="388.18" y="1199.0800000000002" type="curve" smooth="yes"/>
      <point x="493.71000000000004" y="1199.0800000000002"/>
      <point x="572.365" y="1164.905"/>
      <point x="639.63" y="1117.7050000000002" type="curve"/>
      <point x="629.0949999999999" y="1221.185" type="line"/>
      <point x="574.5600000000001" y="1260.535"/>
      <point x="490.90500000000003" y="1296.65"/>
      <point x="373.81" y="1296.65" type="curve" smooth="yes"/>
      <point x="189.73000000000002" y="1296.65"/>
      <point x="95.30499999999999" y="1214.76"/>
      <point x="95.30499999999999" y="1066.685" type="curve" smooth="yes"/>
      <point x="95.30499999999999" y="1054.45" type="line" smooth="yes"/>
      <point x="95.30499999999999" y="925.775"/>
      <point x="157.83499999999998" y="857.32"/>
      <point x="344.25" y="793.345" type="curve" smooth="yes"/>
      <point x="514.2" y="734.0849999999999"/>
      <point x="551.7049999999999" y="686.25"/>
      <point x="551.7049999999999" y="583.43" type="curve" smooth="yes"/>
      <point x="551.7049999999999" y="547.265" type="line" smooth="yes"/>
      <point x="551.7049999999999" y="471.85"/>
      <point x="515.3349999999999" y="408.125"/>
    </contour>
    <contour>
      <point x="323.665" y="809.835" type="curve"/>
      <point x="249.065" y="853.1500000000001" type="line"/>
      <point x="249.59500000000003" y="827.755" type="line"/>
      <point x="149.27" y="796.25"/>
      <point x="95.57" y="725.0749999999999"/>
      <point x="95.57" y="618.9649999999999" type="curve" smooth="yes"/>
      <point x="95.57" y="592.0450000000001" type="line" smooth="yes"/>
      <point x="95.57" y="452.40000000000003"/>
      <point x="160.635" y="386.165"/>
      <point x="345.545" y="318.185" type="curve" smooth="yes"/>
      <point x="507.10499999999996" y="261.13"/>
      <point x="547.2" y="219.025"/>
      <point x="547.2" y="130.28" type="curve" smooth="yes"/>
      <point x="547.2" y="116.96000000000001" type="line" smooth="yes"/>
      <point x="547.2" y="22.905000000000005"/>
      <point x="482.57000000000005" y="-32.285"/>
      <point x="357.235" y="-32.285" type="curve" smooth="yes"/>
      <point x="248.96499999999997" y="-32.285"/>
      <point x="163.87" y="2.9800000000000058"/>
      <point x="90.84" y="50.27" type="curve"/>
      <point x="101.11" y="-59.480000000000004" type="line"/>
      <point x="158.20499999999998" y="-95.655"/>
      <point x="248.23999999999998" y="-132.475"/>
      <point x="366.07" y="-132.475" type="curve" smooth="yes"/>
      <point x="558.865" y="-132.475"/>
      <point x="660.52" y="-43.44"/>
      <point x="660.52" y="113.515" type="curve" smooth="yes"/>
      <point x="660.52" y="130.425" type="line" smooth="yes"/>
      <point x="660.52" y="266.165"/>
      <point x="599.1899999999999" y="329.11"/>
      <point x="411.04499999999996" y="395.705" type="curve" smooth="yes"/>
      <point x="253.76500000000001" y="451.56"/>
      <point x="204.38500000000002" y="498.08"/>
      <point x="204.38500000000002" y="610.5649999999999" type="curve" smooth="yes"/>
      <point x="204.38500000000002" y="644.14" type="line"/>
      <point x="204.38500000000002" y="721.94"/>
      <point x="241.28500000000003" y="782.75"/>
    </contour>
  </outline>
</glyph>
<glyph name="copyright" format="2">
  <advance width="1230.68"/>
  <unicode hex="00A9"/>
  <outline>
    <contour>
      <point x="615.34" y="-19.415000000000003" type="curve" smooth="yes"/>
      <point x="942.39" y="-19.415000000000003"/>
      <point x="1130.695" y="169.975"/>
      <point x="1130.695" y="499.35" type="curve" smooth="yes"/>
      <point x="1130.695" y="779.77" type="line" smooth="yes"/>
      <point x="1130.695" y="1108.5849999999998"/>
      <point x="942.39" y="1297.415"/>
      <point x="615.34" y="1297.415" type="curve" smooth="yes"/>
      <point x="287.76" y="1297.415"/>
      <point x="99.985" y="1108.5849999999998"/>
      <point x="99.985" y="779.77" type="curve" smooth="yes"/>
      <point x="99.985" y="499.35" type="line" smooth="yes"/>
      <point x="99.985" y="169.975"/>
      <point x="287.76" y="-19.415000000000003"/>
    </contour>
    <contour>
      <point x="645.495" y="310.175" type="curve" smooth="yes"/>
      <point x="717.58" y="310.175"/>
      <point x="770.4350000000001" y="333.935"/>
      <point x="803.025" y="361.52000000000004" type="curve"/>
      <point x="809.94" y="441.27" type="line"/>
      <point x="772.295" y="410.59999999999997"/>
      <point x="726.9449999999999" y="386.87"/>
      <point x="662.5999999999999" y="386.87" type="curve" smooth="yes"/>
      <point x="557.76" y="386.87"/>
      <point x="510.265" y="452.475"/>
      <point x="510.265" y="568.51" type="curve" smooth="yes"/>
      <point x="510.265" y="713.58" type="line" smooth="yes"/>
      <point x="510.265" y="829.6149999999999"/>
      <point x="556.14" y="894.485"/>
      <point x="659.51" y="894.485" type="curve" smooth="yes"/>
      <point x="723.915" y="894.485"/>
      <point x="768.735" y="871.255"/>
      <point x="805.88" y="840.8199999999999" type="curve"/>
      <point x="798.4649999999999" y="919.54" type="line"/>
      <point x="766.845" y="945.86"/>
      <point x="715.315" y="969.855"/>
      <point x="645.435" y="969.855" type="curve" smooth="yes"/>
      <point x="494.47999999999996" y="969.855"/>
      <point x="423.885" y="876.615"/>
      <point x="423.885" y="712.0200000000001" type="curve" smooth="yes"/>
      <point x="423.885" y="567.805" type="line" smooth="yes"/>
      <point x="423.885" y="402.68"/>
      <point x="493.97999999999996" y="310.175"/>
    </contour>
    <contour>
      <point x="615.34" y="53.6" type="curve" smooth="yes"/>
      <point x="343.415" y="53.6"/>
      <point x="184.215" y="214.59"/>
      <point x="184.215" y="492.75499999999994" type="curve" smooth="yes"/>
      <point x="184.215" y="787.1" type="line" smooth="yes"/>
      <point x="184.215" y="1064.205"/>
      <point x="343.415" y="1224.4"/>
      <point x="615.34" y="1224.4" type="curve" smooth="yes"/>
      <point x="886.735" y="1224.4"/>
      <point x="1046.465" y="1064.205"/>
      <point x="1046.465" y="787.1" type="curve" smooth="yes"/>
      <point x="1046.465" y="492.75499999999994" type="line" smooth="yes"/>
      <point x="1046.465" y="214.59"/>
      <point x="886.735" y="53.6"/>
    </contour>
  </outline>
</glyph>
<glyph name="ordfeminine" format="2">
  <advance width="540.52"/>
  <unicode hex="00AA"/>
  <outline>
    <contour>
      <point x="371.745" y="641.235" type="line"/>
      <point x="457.625" y="641.235" type="line"/>
      <point x="457.625" y="1081.16" type="line" smooth="yes"/>
      <point x="457.625" y="1211.135"/>
      <point x="404.36" y="1290.295"/>
      <point x="263.625" y="1290.295" type="curve" smooth="yes"/>
      <point x="187.77" y="1290.295"/>
      <point x="125.56" y="1263.945"/>
      <point x="83.25999999999999" y="1235.0049999999999" type="curve"/>
      <point x="76.02" y="1156.635" type="line"/>
      <point x="123.525" y="1188.9850000000001"/>
      <point x="184.555" y="1216.425"/>
      <point x="251.55500000000004" y="1216.425" type="curve" smooth="yes"/>
      <point x="340.135" y="1216.425"/>
      <point x="373.6" y="1167.32"/>
      <point x="373.6" y="1082.25" type="curve"/>
      <point x="373.6" y="1017.1999999999999" type="line"/>
      <point x="373.6" y="780.6500000000001" type="line"/>
      <point x="376.335" y="776.265" type="line"/>
    </contour>
    <contour>
      <point x="214.83999999999997" y="630.2049999999999" type="curve" smooth="yes"/>
      <point x="315.95" y="630.2049999999999"/>
      <point x="361.90999999999997" y="688.81"/>
      <point x="375.915" y="764.21" type="curve"/>
      <point x="392.03999999999996" y="764.21" type="line"/>
      <point x="375.6" y="822.155" type="line"/>
      <point x="362.63" y="755.205"/>
      <point x="316.725" y="703.575"/>
      <point x="243.835" y="703.575" type="curve" smooth="yes"/>
      <point x="172.68" y="703.575"/>
      <point x="143.6" y="745.62"/>
      <point x="143.6" y="808.66" type="curve" smooth="yes"/>
      <point x="143.6" y="836.715" type="line" smooth="yes"/>
      <point x="143.6" y="900.67"/>
      <point x="170.8" y="933.3950000000001"/>
      <point x="252.56999999999996" y="951.8599999999999" type="curve" smooth="yes"/>
      <point x="392.96" y="982.5600000000001" type="line"/>
      <point x="386.22" y="1048.51" type="line"/>
      <point x="231.81999999999996" y="1014.78" type="line" smooth="yes"/>
      <point x="104.05000000000001" y="986.045"/>
      <point x="58.51500000000001" y="932.78"/>
      <point x="58.51500000000001" y="832.8000000000001" type="curve" smooth="yes"/>
      <point x="58.51500000000001" y="801.125" type="line" smooth="yes"/>
      <point x="58.51500000000001" y="690.885"/>
      <point x="111.51499999999999" y="630.2049999999999"/>
    </contour>
  </outline>
</glyph>
<glyph name="logicalnot" format="2">
  <advance width="845.95"/>
  <unicode hex="00AC"/>
  <outline>
    <contour>
      <point x="736.0" y="258.67" type="line"/>
      <point x="736.0" y="637.185" type="line"/>
      <point x="635.545" y="637.185" type="line"/>
      <point x="635.545" y="258.67" type="line"/>
    </contour>
    <contour>
      <point x="83.875" y="581.935" type="line"/>
      <point x="736.0" y="581.935" type="line"/>
      <point x="736.0" y="677.71" type="line"/>
      <point x="83.875" y="677.71" type="line"/>
    </contour>
  </outline>
</glyph>
<glyph name="registered" format="2">
  <advance width="720.4350000000001"/>
  <unicode hex="00AE"/>
  <outline>
    <contour>
      <point x="360.335" y="559.8" type="curve" smooth="yes"/>
      <point x="547.735" y="559.8"/>
      <point x="649.185" y="670.4"/>
      <point x="649.185" y="859.32" type="curve" smooth="yes"/>
      <point x="649.185" y="994.13" type="line" smooth="yes"/>
      <point x="649.185" y="1183.755"/>
      <point x="547.735" y="1293.385"/>
      <point x="360.335" y="1293.385" type="curve" smooth="yes"/>
      <point x="172.67000000000002" y="1293.385"/>
      <point x="71.48499999999999" y="1183.49"/>
      <point x="71.48499999999999" y="994.13" type="curve" smooth="yes"/>
      <point x="71.48499999999999" y="859.32" type="line" smooth="yes"/>
      <point x="71.48499999999999" y="670.4"/>
      <point x="172.67000000000002" y="559.8"/>
    </contour>
    <contour>
      <point x="360.335" y="612.5600000000001" type="curve" smooth="yes"/>
      <point x="207.63000000000002" y="612.5600000000001"/>
      <point x="130.98499999999999" y="696.5899999999999"/>
      <point x="130.98499999999999" y="856.9350000000001" type="curve" smooth="yes"/>
      <point x="130.98499999999999" y="997.045" type="line" smooth="yes"/>
      <point x="130.98499999999999" y="1156.3600000000001"/>
      <point x="207.63000000000002" y="1240.3899999999999"/>
      <point x="360.335" y="1240.3899999999999" type="curve" smooth="yes"/>
      <point x="512.51" y="1240.3899999999999"/>
      <point x="589.4200000000001" y="1156.3600000000001"/>
      <point x="589.4200000000001" y="997.045" type="curve" smooth="yes"/>
      <point x="589.4200000000001" y="856.9350000000001" type="line" smooth="yes"/>
      <point x="589.4200000000001" y="696.5899999999999"/>
      <point x="512.51" y="612.5600000000001"/>
    </contour>
    <contour>
      <point x="434.175" y="736.4350000000001" type="line"/>
      <point x="490.73" y="736.4350000000001" type="line"/>
      <point x="478.05499999999995" y="816.755" type="line" smooth="yes"/>
      <point x="467.84999999999997" y="882.43"/>
      <point x="451.34999999999997" y="913.61"/>
      <point x="396.935" y="919.345" type="curve"/>
      <point x="405.265" y="911.0799999999999" type="line"/>
      <point x="408.085" y="918.495" type="line"/>
      <point x="462.64" y="923.495"/>
      <point x="483.22999999999996" y="956.345"/>
      <point x="483.22999999999996" y="1003.9350000000001" type="curve" smooth="yes"/>
      <point x="483.22999999999996" y="1023.1049999999999" type="line" smooth="yes"/>
      <point x="483.22999999999996" y="1091.0200000000002"/>
      <point x="449.05" y="1125.14"/>
      <point x="375.57" y="1125.14" type="curve" smooth="yes"/>
      <point x="293.87" y="1125.14" type="line"/>
      <point x="293.87" y="1078.09" type="line"/>
      <point x="371.92" y="1078.09" type="line" smooth="yes"/>
      <point x="413.46999999999997" y="1078.09"/>
      <point x="427.94000000000005" y="1053.6550000000002"/>
      <point x="427.94000000000005" y="1015.805" type="curve" smooth="yes"/>
      <point x="427.94000000000005" y="996.165" type="line" smooth="yes"/>
      <point x="427.94000000000005" y="955.14"/>
      <point x="411.09000000000003" y="933.585"/>
      <point x="369.685" y="933.32" type="curve" smooth="yes"/>
      <point x="296.07500000000005" y="933.0550000000001" type="line"/>
      <point x="296.07500000000005" y="886.535" type="line"/>
      <point x="359.745" y="886.535" type="line" smooth="yes"/>
      <point x="398.09499999999997" y="886.535"/>
      <point x="415.62" y="870.24"/>
      <point x="423.765" y="812.075" type="curve" smooth="yes"/>
    </contour>
    <contour>
      <point x="256.41" y="736.4350000000001" type="line"/>
      <point x="311.435" y="736.4350000000001" type="line"/>
      <point x="311.435" y="898.775" type="line"/>
      <point x="311.435" y="917.9300000000001" type="line"/>
      <point x="311.435" y="1125.14" type="line"/>
      <point x="256.41" y="1125.14" type="line"/>
    </contour>
  </outline>
</glyph>
<glyph name="degree" format="2">
  <advance width="570.34"/>
  <unicode hex="00B0"/>
  <outline>
    <contour>
      <point x="285.185" y="815.8249999999999" type="curve" smooth="yes"/>
      <point x="417.28999999999996" y="815.8249999999999"/>
      <point x="490.97499999999997" y="902.27"/>
      <point x="490.97499999999997" y="1049.81" type="curve" smooth="yes"/>
      <point x="490.97499999999997" y="1064.195" type="line" smooth="yes"/>
      <point x="490.97499999999997" y="1211.47"/>
      <point x="417.28999999999996" y="1297.68"/>
      <point x="285.185" y="1297.68" type="curve" smooth="yes"/>
      <point x="153.05" y="1297.68"/>
      <point x="79.36500000000001" y="1211.47"/>
      <point x="79.36500000000001" y="1064.195" type="curve" smooth="yes"/>
      <point x="79.36500000000001" y="1049.81" type="line" smooth="yes"/>
      <point x="79.36500000000001" y="902.505"/>
      <point x="153.05" y="815.8249999999999"/>
    </contour>
    <contour>
      <point x="285.185" y="895.495" type="curve" smooth="yes"/>
      <point x="208.97" y="895.495"/>
      <point x="168.925" y="951.95"/>
      <point x="168.925" y="1048.5749999999998" type="curve" smooth="yes"/>
      <point x="168.925" y="1065.165" type="line" smooth="yes"/>
      <point x="168.925" y="1161.525"/>
      <point x="208.73499999999999" y="1218.01"/>
      <point x="285.185" y="1218.01" type="curve" smooth="yes"/>
      <point x="362.135" y="1218.01"/>
      <point x="401.18" y="1161.525"/>
      <point x="401.18" y="1065.165" type="curve" smooth="yes"/>
      <point x="401.18" y="1048.5749999999998" type="line" smooth="yes"/>
      <point x="401.18" y="951.715"/>
      <point x="362.135" y="895.495"/>
    </contour>
  </outline>
</glyph>
<glyph name="plusminus" format="2">
  <advance width="853.8050000000001"/>
  <unicode hex="00B1"/>
  <outline>
    <contour>
      <point x="101.10499999999999" y="197.69" type="line"/>
      <point x="752.7" y="197.69" type="line"/>
      <point x="752.7" y="291.64" type="line"/>
      <point x="101.10499999999999" y="291.64" type="line"/>
    </contour>
    <contour>
      <point x="477.12999999999994" y="420.71000000000004" type="line"/>
      <point x="477.12999999999994" y="1039.31" type="line"/>
      <point x="376.44" y="1039.31" type="line"/>
      <point x="376.44" y="420.71000000000004" type="line"/>
    </contour>
    <contour>
      <point x="101.10499999999999" y="682.77" type="line"/>
      <point x="752.7" y="682.77" type="line"/>
      <point x="752.7" y="777.25" type="line"/>
      <point x="101.10499999999999" y="777.25" type="line"/>
    </contour>
  </outline>
</glyph>
<glyph name="twosuperior" format="2">
  <advance width="463.315"/>
  <unicode hex="00B2"/>
  <outline>
    <contour>
      <point x="36.17" y="712.765" type="line"/>
      <point x="421.265" y="712.765" type="line"/>
      <point x="421.265" y="787.755" type="line"/>
      <point x="104.36999999999999" y="787.755" type="line"/>
      <point x="140.07000000000002" y="771.19" type="line"/>
      <point x="140.07000000000002" y="792.58" type="line"/>
      <point x="261.225" y="927.935" type="line" smooth="yes"/>
      <point x="362.065" y="1043.47"/>
      <point x="413.15000000000003" y="1113.205"/>
      <point x="413.15000000000003" y="1211.73" type="curve" smooth="yes"/>
      <point x="413.15000000000003" y="1226.17" type="line" smooth="yes"/>
      <point x="413.15000000000003" y="1338.555"/>
      <point x="348.17" y="1404.385"/>
      <point x="220.83" y="1404.385" type="curve" smooth="yes"/>
      <point x="153.24" y="1404.385"/>
      <point x="90.85499999999999" y="1381.655"/>
      <point x="52.38" y="1357.215" type="curve"/>
      <point x="44.934999999999995" y="1279.02" type="line"/>
      <point x="90.99000000000001" y="1305.425"/>
      <point x="142.9" y="1327.835"/>
      <point x="205.69500000000002" y="1327.835" type="curve" smooth="yes"/>
      <point x="287.07000000000005" y="1327.835"/>
      <point x="324.06" y="1288.52"/>
      <point x="324.06" y="1215.895" type="curve" smooth="yes"/>
      <point x="324.06" y="1203.81" type="line" smooth="yes"/>
      <point x="324.06" y="1126.125"/>
      <point x="279.505" y="1066.925"/>
      <point x="190.465" y="964.3349999999999" type="curve" smooth="yes"/>
      <point x="36.17" y="793.43" type="line"/>
    </contour>
  </outline>
</glyph>
<glyph name="threesuperior" format="2">
  <advance width="478.58"/>
  <unicode hex="00B3"/>
  <outline>
    <contour>
      <point x="213.50500000000002" y="700.41" type="curve" smooth="yes"/>
      <point x="372.075" y="700.41"/>
      <point x="427.05999999999995" y="783.32"/>
      <point x="427.05999999999995" y="881.2149999999999" type="curve" smooth="yes"/>
      <point x="427.05999999999995" y="916.115" type="line" smooth="yes"/>
      <point x="427.05999999999995" y="1004.265"/>
      <point x="387.325" y="1057.4950000000001"/>
      <point x="295.65500000000003" y="1067.0" type="curve"/>
      <point x="297.19" y="1059.73" type="line"/>
      <point x="298.835" y="1068.445" type="line"/>
      <point x="387.56" y="1078.7150000000001"/>
      <point x="422.09000000000003" y="1135.5900000000001"/>
      <point x="422.09000000000003" y="1211.71" type="curve" smooth="yes"/>
      <point x="422.09000000000003" y="1239.23" type="line" smooth="yes"/>
      <point x="422.09000000000003" y="1343.0600000000002"/>
      <point x="360.815" y="1403.885"/>
      <point x="222.42000000000002" y="1403.885" type="curve" smooth="yes"/>
      <point x="145.625" y="1403.885"/>
      <point x="86.17999999999999" y="1383.0049999999999"/>
      <point x="48.88" y="1360.24" type="curve"/>
      <point x="40.905" y="1285.755" type="line"/>
      <point x="82.17" y="1308.31"/>
      <point x="137.525" y="1330.2199999999998"/>
      <point x="206.40500000000003" y="1330.2199999999998" type="curve" smooth="yes"/>
      <point x="298.805" y="1330.2199999999998"/>
      <point x="333.56" y="1291.29"/>
      <point x="333.56" y="1226.925" type="curve" smooth="yes"/>
      <point x="333.56" y="1201.405" type="line" smooth="yes"/>
      <point x="333.56" y="1128.335"/>
      <point x="291.125" y="1099.5800000000002"/>
      <point x="207.96" y="1098.0500000000002" type="curve" smooth="yes"/>
      <point x="112.13999999999999" y="1096.2549999999999" type="line"/>
      <point x="112.13999999999999" y="1029.33" type="line"/>
      <point x="212.87" y="1027.27" type="line" smooth="yes"/>
      <point x="304.095" y="1025.4750000000001"/>
      <point x="336.97" y="987.455"/>
      <point x="336.97" y="922.15" type="curve" smooth="yes"/>
      <point x="336.97" y="890.34" type="line" smooth="yes"/>
      <point x="336.97" y="825.71"/>
      <point x="305.39" y="775.93"/>
      <point x="202.78500000000003" y="775.93" type="curve" smooth="yes"/>
      <point x="137.17000000000002" y="775.93"/>
      <point x="77.82" y="797.045"/>
      <point x="36.17" y="819.425" type="curve"/>
      <point x="44.145" y="739.965" type="line"/>
      <point x="77.58999999999999" y="721.73"/>
      <point x="137.45000000000002" y="700.41"/>
    </contour>
  </outline>
</glyph>
<glyph name="micro" format="2">
  <advance width="880.0249999999999"/>
  <unicode hex="00B5"/>
  <outline>
    <contour>
      <point x="759.925" y="984.475" type="line"/>
      <point x="644.485" y="984.475" type="line"/>
      <point x="644.485" y="208.085" type="line"/>
      <point x="649.84" y="202.52" type="line"/>
      <point x="643.985" y="0.0" type="line"/>
      <point x="759.925" y="0.0" type="line"/>
    </contour>
    <contour>
      <point x="236.04" y="318.15" type="curve" smooth="yes"/>
      <point x="236.04" y="984.475" type="line"/>
      <point x="120.10000000000001" y="984.475" type="line"/>
      <point x="120.10000000000001" y="-347.0" type="line"/>
      <point x="232.35999999999999" y="-347.0" type="line"/>
      <point x="232.35999999999999" y="-160.21" type="line"/>
      <point x="222.12" y="133.69500000000002" type="line"/>
      <point x="224.89" y="133.69500000000002" type="line"/>
      <point x="249.01" y="46.14999999999999"/>
      <point x="308.055" y="-16.264999999999997"/>
      <point x="426.10999999999996" y="-16.264999999999997" type="curve" smooth="yes"/>
      <point x="553.26" y="-16.264999999999997"/>
      <point x="625.855" y="66.11999999999999"/>
      <point x="648.0350000000001" y="199.285" type="curve"/>
      <point x="675.405" y="199.285" type="line"/>
      <point x="648.72" y="290.34000000000003" type="line"/>
      <point x="626.635" y="166.23000000000002"/>
      <point x="552.505" y="81.39500000000001"/>
      <point x="435.40999999999997" y="81.39500000000001" type="curve" smooth="yes"/>
      <point x="298.60999999999996" y="81.39500000000001"/>
      <point x="236.04" y="171.10999999999999"/>
    </contour>
  </outline>
</glyph>
<glyph name="paragraph" format="2">
  <advance width="602.54"/>
  <unicode hex="00B6"/>
  <outline>
    <contour>
      <point x="314.13" y="665.37" type="curve"/>
      <point x="386.145" y="665.37" type="line"/>
      <point x="385.88" y="1278.0" type="line"/>
      <point x="313.425" y="1278.0" type="line" smooth="yes"/>
      <point x="155.315" y="1278.0"/>
      <point x="82.19" y="1183.645"/>
      <point x="82.19" y="1028.9250000000002" type="curve" smooth="yes"/>
      <point x="82.19" y="915.9150000000001" type="line" smooth="yes"/>
      <point x="82.19" y="758.9"/>
      <point x="155.315" y="665.37"/>
    </contour>
    <contour>
      <point x="467.03000000000003" y="0.0" type="line"/>
      <point x="467.03000000000003" y="1278.0" type="line"/>
      <point x="351.18" y="1278.0" type="line"/>
      <point x="350.91499999999996" y="0.0" type="line"/>
    </contour>
  </outline>
</glyph>
<glyph name="onesuperior" format="2">
  <advance width="353.935"/>
  <unicode hex="00B9"/>
  <outline>
    <contour>
      <point x="190.51" y="712.765" type="line"/>
      <point x="275.42" y="712.765" type="line"/>
      <point x="275.42" y="1393.53" type="line"/>
      <point x="189.2" y="1393.53" type="line"/>
      <point x="27.380000000000003" y="1281.075" type="line"/>
      <point x="25.025" y="1193.02" type="line"/>
      <point x="183.92" y="1303.29" type="line"/>
      <point x="190.245" y="1303.29" type="line"/>
    </contour>
  </outline>
</glyph>
<glyph name="ordmasculine" format="2">
  <advance width="577.1650000000001"/>
  <unicode hex="00BA"/>
  <outline>
    <contour>
      <point x="288.45" y="630.2049999999999" type="curve" smooth="yes"/>
      <point x="431.55499999999995" y="630.2049999999999"/>
      <point x="507.00499999999994" y="715.535"/>
      <point x="507.00499999999994" y="875.1049999999999" type="curve" smooth="yes"/>
      <point x="507.00499999999994" y="1048.57" type="line" smooth="yes"/>
      <point x="507.00499999999994" y="1207.875"/>
      <point x="432.08500000000004" y="1292.47"/>
      <point x="288.45" y="1292.47" type="curve" smooth="yes"/>
      <point x="145.845" y="1292.47"/>
      <point x="70.16" y="1207.875"/>
      <point x="70.16" y="1048.57" type="curve" smooth="yes"/>
      <point x="70.16" y="875.1049999999999" type="line" smooth="yes"/>
      <point x="70.16" y="715.035"/>
      <point x="145.61" y="630.2049999999999"/>
    </contour>
    <contour>
      <point x="288.715" y="704.34" type="curve" smooth="yes"/>
      <point x="202.03" y="704.34"/>
      <point x="159.16" y="761.9449999999999"/>
      <point x="159.16" y="868.04" type="curve" smooth="yes"/>
      <point x="159.16" y="1055.93" type="line" smooth="yes"/>
      <point x="159.16" y="1161.73"/>
      <point x="202.03" y="1218.335"/>
      <point x="288.715" y="1218.335" type="curve" smooth="yes"/>
      <point x="375.135" y="1218.335"/>
      <point x="417.77" y="1162.2"/>
      <point x="417.77" y="1055.93" type="curve" smooth="yes"/>
      <point x="417.77" y="868.04" type="line" smooth="yes"/>
      <point x="417.77" y="760.9449999999999"/>
      <point x="374.635" y="704.34"/>
    </contour>
  </outline>
</glyph>
<glyph name="guillemetright" format="2">
  <advance width="831.595"/>
  <unicode hex="00BB"/>
  <outline>
    <contour>
      <point x="292.43" y="491.65000000000003" type="line"/>
      <point x="60.85999999999999" y="99.64" type="line"/>
      <point x="173.175" y="99.64" type="line"/>
      <point x="396.77500000000003" y="472.5" type="line"/>
      <point x="396.77500000000003" y="511.065" type="line"/>
      <point x="173.175" y="882.335" type="line"/>
      <point x="60.85999999999999" y="882.335" type="line"/>
    </contour>
    <contour>
      <point x="650.125" y="491.65000000000003" type="line"/>
      <point x="418.555" y="99.64" type="line"/>
      <point x="530.87" y="99.64" type="line"/>
      <point x="754.47" y="472.5" type="line"/>
      <point x="754.47" y="511.065" type="line"/>
      <point x="530.87" y="882.335" type="line"/>
      <point x="418.555" y="882.335" type="line"/>
    </contour>
  </outline>
</glyph>
<glyph name="questiondown" format="2">
  <advance width="684.27"/>
  <unicode hex="00BF"/>
  <outline>
    <contour>
      <point x="473.0799999999999" y="613.885" type="line"/>
      <point x="390.585" y="582.94" type="line" smooth="yes"/>
      <point x="182.85" y="507.82500000000005"/>
      <point x="86.01" y="403.585"/>
      <point x="86.01" y="179.625" type="curve" smooth="yes"/>
      <point x="86.01" y="4.164999999999999" type="line" smooth="yes"/>
      <point x="86.01" y="-200.255"/>
      <point x="172.085" y="-311.94"/>
      <point x="372.52000000000004" y="-311.94" type="curve" smooth="yes"/>
      <point x="481.705" y="-311.94"/>
      <point x="572.65" y="-274.62"/>
      <point x="624.685" y="-239.975" type="curve"/>
      <point x="638.105" y="-134.285" type="line"/>
      <point x="572.865" y="-175.34"/>
      <point x="490.8949999999999" y="-209.13"/>
      <point x="396.87" y="-209.13" type="curve" smooth="yes"/>
      <point x="255.38500000000002" y="-209.13"/>
      <point x="202.215" y="-132.115"/>
      <point x="202.215" y="16.795" type="curve" smooth="yes"/>
      <point x="202.215" y="181.685" type="line" smooth="yes"/>
      <point x="202.215" y="345.125"/>
      <point x="263.405" y="422.72999999999996"/>
      <point x="418.57000000000005" y="482.07" type="curve" smooth="yes"/>
      <point x="473.0799999999999" y="502.1" type="line"/>
    </contour>
    <contour>
      <point x="424.99000000000007" y="999.745" type="curve" smooth="yes"/>
      <point x="375.14000000000004" y="999.745"/>
      <point x="351.18499999999995" y="967.73"/>
      <point x="351.18499999999995" y="907.825" type="curve" smooth="yes"/>
      <point x="351.18499999999995" y="894.56" type="line" smooth="yes"/>
      <point x="351.18499999999995" y="835.655"/>
      <point x="375.14000000000004" y="803.64"/>
      <point x="424.99000000000007" y="803.64" type="curve" smooth="yes"/>
      <point x="475.43" y="803.64"/>
      <point x="498.09" y="835.655"/>
      <point x="498.09" y="894.56" type="curve" smooth="yes"/>
      <point x="498.09" y="907.825" type="line" smooth="yes"/>
      <point x="498.09" y="967.73"/>
      <point x="475.43" y="999.745"/>
    </contour>
  </outline>
</glyph>
<glyph name="AE" format="2">
  <advance width="1346.015"/>
  <unicode hex="00C6"/>
  <anchor x="672.42" y="0.0" name="bottom"/>
  <anchor x="672.42" y="1278.0" name="top"/>
  <outline>
    <contour>
      <point x="51.16" y="0.0" type="line"/>
      <point x="173.22" y="0.0" type="line"/>
      <point x="615.61" y="1193.03" type="line"/>
      <point x="684.85" y="1193.03" type="line"/>
      <point x="684.85" y="1278.0" type="line"/>
      <point x="531.4" y="1278.0" type="line"/>
    </contour>
    <contour>
      <point x="277.85999999999996" y="397.94" type="line"/>
      <point x="704.7750000000001" y="397.94" type="line"/>
      <point x="704.7750000000001" y="497.925" type="line"/>
      <point x="277.85999999999996" y="497.925" type="line"/>
    </contour>
    <contour>
      <point x="715.47" y="0.0" type="line"/>
      <point x="1262.9650000000001" y="0.0" type="line"/>
      <point x="1262.9650000000001" y="102.84" type="line"/>
      <point x="715.47" y="102.84" type="line"/>
    </contour>
    <contour>
      <point x="667.485" y="0.0" type="line"/>
      <point x="784.395" y="0.0" type="line"/>
      <point x="784.395" y="1278.0" type="line"/>
      <point x="667.485" y="1278.0" type="line"/>
    </contour>
    <contour>
      <point x="736.835" y="603.1949999999999" type="line"/>
      <point x="1249.61" y="603.1949999999999" type="line"/>
      <point x="1249.61" y="705.005" type="line"/>
      <point x="736.835" y="705.005" type="line"/>
    </contour>
    <contour>
      <point x="713.265" y="1175.425" type="line"/>
      <point x="1259.935" y="1175.425" type="line"/>
      <point x="1259.935" y="1278.0" type="line"/>
      <point x="713.265" y="1278.0" type="line"/>
    </contour>
  </outline>
</glyph>
<glyph name="Eth" format="2">
  <advance width="949.23"/>
  <unicode hex="00D0"/>
  <anchor x="465.79" y="0.0" name="bottom"/>
  <anchor x="479.645" y="639.0" name="center"/>
  <anchor x="465.79" y="1278.0" name="top"/>
  <outline>
    <contour>
      <point x="12.965" y="614.375" type="line"/>
      <point x="503.23" y="614.375" type="line"/>
      <point x="503.23" y="706.145" type="line"/>
      <point x="12.965" y="706.145" type="line"/>
    </contour>
    <component base="D"/>
  </outline>
</glyph>
<glyph name="multiply" format="2">
  <advance width="792.66"/>
  <unicode hex="00D7"/>
  <outline>
    <contour>
      <point x="703.92" y="358.90500000000003" type="line"/>
      <point x="164.815" y="959.9" type="line"/>
      <point x="95.385" y="900.71" type="line"/>
      <point x="634.0200000000001" y="298.95" type="line"/>
    </contour>
    <contour>
      <point x="88.74" y="358.90500000000003" type="line"/>
      <point x="158.64000000000001" y="298.95" type="line"/>
      <point x="697.275" y="900.71" type="line"/>
      <point x="627.845" y="959.9" type="line"/>
    </contour>
  </outline>
</glyph>
<glyph name="Oslash" format="2">
  <advance width="953.09"/>
  <unicode hex="00D8"/>
  <anchor x="476.53000000000003" y="0.0" name="bottom"/>
  <anchor x="476.53000000000003" y="639.265" name="center"/>
  <anchor x="863.0250000000001" y="10.264999999999999" name="ogonek"/>
  <anchor x="476.53000000000003" y="1278.0" name="top"/>
  <anchor x="13.235" y="1278.2649999999999" name="topleft"/>
  <anchor x="939.325" y="1278.2649999999999" name="topright"/>
  <outline>
    <contour>
      <point x="476.82500000000005" y="-19.680000000000003" type="curve" smooth="yes"/>
      <point x="723.1500000000001" y="-19.680000000000003"/>
      <point x="853.1049999999999" y="129.125"/>
      <point x="853.1049999999999" y="405.03" type="curve" smooth="yes"/>
      <point x="853.1049999999999" y="871.97" type="line" smooth="yes"/>
      <point x="853.1049999999999" y="1143.665"/>
      <point x="717.615" y="1297.68"/>
      <point x="475.76500000000004" y="1297.68" type="curve" smooth="yes"/>
      <point x="228.94000000000003" y="1297.68"/>
      <point x="99.985" y="1147.875"/>
      <point x="99.985" y="872.5" type="curve" smooth="yes"/>
      <point x="99.985" y="405.56" type="line" smooth="yes"/>
      <point x="99.985" y="133.6"/>
      <point x="234.47499999999997" y="-19.680000000000003"/>
    </contour>
    <contour>
      <point x="133.36" y="-74.205" type="line"/>
      <point x="235.135" y="-74.205" type="line"/>
      <point x="300.03" y="73.815" type="line"/>
      <point x="308.15000000000003" y="95.675" type="line"/>
      <point x="712.9250000000001" y="1127.6200000000001" type="line"/>
      <point x="734.765" y="1169.4099999999999" type="line"/>
      <point x="819.73" y="1351.7350000000001" type="line"/>
      <point x="717.72" y="1351.7350000000001" type="line"/>
      <point x="660.745" y="1222.56" type="line"/>
      <point x="650.035" y="1189.66" type="line"/>
      <point x="243.875" y="154.5" type="line"/>
      <point x="220.415" y="115.685" type="line"/>
    </contour>
    <contour>
      <point x="476.295" y="81.50999999999999" type="curve" smooth="yes"/>
      <point x="301.495" y="81.50999999999999"/>
      <point x="218.485" y="194.875"/>
      <point x="218.485" y="383.59499999999997" type="curve" smooth="yes"/>
      <point x="218.485" y="878.77" type="line" smooth="yes"/>
      <point x="218.485" y="1084.39"/>
      <point x="303.38" y="1196.49"/>
      <point x="476.295" y="1196.49" type="curve" smooth="yes"/>
      <point x="651.33" y="1196.49"/>
      <point x="734.605" y="1084.1550000000002"/>
      <point x="734.605" y="894.6700000000001" type="curve" smooth="yes"/>
      <point x="734.605" y="399.49499999999995" type="line" smooth="yes"/>
      <point x="734.605" y="194.375"/>
      <point x="649.18" y="81.50999999999999"/>
    </contour>
  </outline>
</glyph>
<glyph name="Thorn" format="2">
  <advance width="887.675"/>
  <unicode hex="00DE"/>
  <anchor x="443.23499999999996" y="0.0" name="bottom"/>
  <anchor x="443.23499999999996" y="1278.0" name="top"/>
  <outline>
    <contour>
      <point x="205.07" y="223.30499999999998" type="line"/>
      <point x="479.41" y="223.30499999999998" type="line" smooth="yes"/>
      <point x="706.97" y="223.30499999999998"/>
      <point x="809.16" y="349.95500000000004"/>
      <point x="809.16" y="561.9499999999999" type="curve" smooth="yes"/>
      <point x="809.16" y="723.905" type="line" smooth="yes"/>
      <point x="809.16" y="932.84"/>
      <point x="707.47" y="1059.875"/>
      <point x="480.585" y="1059.875" type="curve" smooth="yes"/>
      <point x="206.775" y="1059.875" type="line"/>
      <point x="206.775" y="959.39" type="line"/>
      <point x="476.73" y="959.39" type="line" smooth="yes"/>
      <point x="627.2900000000001" y="959.39"/>
      <point x="690.9250000000001" y="871.205"/>
      <point x="690.9250000000001" y="720.58" type="curve" smooth="yes"/>
      <point x="690.9250000000001" y="565.01" type="line" smooth="yes"/>
      <point x="690.9250000000001" y="413.97499999999997"/>
      <point x="627.0550000000001" y="324.29"/>
      <point x="474.76" y="324.29" type="curve" smooth="yes"/>
      <point x="205.07" y="324.29" type="line"/>
    </contour>
    <contour>
      <point x="135.51000000000002" y="0.0" type="line"/>
      <point x="252.685" y="0.0" type="line"/>
      <point x="252.685" y="256.68" type="line"/>
      <point x="252.42" y="288.29" type="line"/>
      <point x="252.42" y="991.825" type="line"/>
      <point x="252.685" y="1038.98" type="line"/>
      <point x="252.685" y="1278.0" type="line"/>
      <point x="135.51000000000002" y="1278.0" type="line"/>
    </contour>
  </outline>
</glyph>
<glyph name="germandbls" format="2">
  <advance width="939.685"/>
  <unicode hex="00DF"/>
  <anchor x="448.74000000000007" y="0.0" name="bottom"/>
  <anchor x="448.74000000000007" y="984.475" name="top"/>
  <outline>
    <contour>
      <point x="120.10000000000001" y="1029.975" type="curve" smooth="yes"/>
      <point x="120.10000000000001" y="0.0" type="line"/>
      <point x="233.42000000000002" y="0.0" type="line"/>
      <point x="233.42000000000002" y="1025.03" type="line" smooth="yes"/>
      <point x="233.42000000000002" y="1173.92"/>
      <point x="285.235" y="1256.375"/>
      <point x="439.11499999999995" y="1256.375" type="curve" smooth="yes"/>
      <point x="578.73" y="1256.375"/>
      <point x="630.87" y="1189.13"/>
      <point x="630.87" y="1106.7649999999999" type="curve" smooth="yes"/>
      <point x="630.87" y="959.4749999999999"/>
      <point x="407.695" y="892.845"/>
      <point x="407.695" y="702.855" type="curve" smooth="yes"/>
      <point x="407.695" y="695.855" type="line" smooth="yes"/>
      <point x="407.695" y="576.82"/>
      <point x="459.815" y="527.525"/>
      <point x="599.575" y="461.665" type="curve" smooth="yes"/>
      <point x="726.47" y="401.165"/>
      <point x="752.675" y="350.445"/>
      <point x="752.675" y="260.32" type="curve" smooth="yes"/>
      <point x="752.675" y="238.68" type="line" smooth="yes"/>
      <point x="752.675" y="140.295"/>
      <point x="697.745" y="84.19"/>
      <point x="587.73" y="84.19" type="curve" smooth="yes"/>
      <point x="515.03" y="84.19"/>
      <point x="457.02500000000003" y="105.455"/>
      <point x="396.85" y="137.54" type="curve"/>
      <point x="406.85499999999996" y="27.495" type="line"/>
      <point x="453.00500000000005" y="5.085"/>
      <point x="514.625" y="-16.795"/>
      <point x="601.2750000000001" y="-16.795" type="curve" smooth="yes"/>
      <point x="768.005" y="-16.795"/>
      <point x="865.995" y="72.685"/>
      <point x="865.995" y="236.265" type="curve" smooth="yes"/>
      <point x="865.995" y="261.82000000000005" type="line" smooth="yes"/>
      <point x="865.995" y="404.825"/>
      <point x="812.0749999999999" y="468.175"/>
      <point x="672.7299999999999" y="533.855" type="curve" smooth="yes"/>
      <point x="561.66" y="586.0"/>
      <point x="520.545" y="620.3199999999999"/>
      <point x="520.545" y="700.9499999999999" type="curve" smooth="yes"/>
      <point x="520.545" y="708.4200000000001" type="line" smooth="yes"/>
      <point x="520.545" y="856.59"/>
      <point x="745.78" y="922.125"/>
      <point x="745.78" y="1111.005" type="curve"/>
      <point x="745.78" y="1255.03"/>
      <point x="644.755" y="1351.09"/>
      <point x="440.705" y="1351.09" type="curve" smooth="yes"/>
      <point x="211.585" y="1351.09"/>
      <point x="120.10000000000001" y="1238.35"/>
    </contour>
  </outline>
</glyph>
<glyph name="ae" format="2">
  <advance width="1287.0900000000001"/>
  <unicode hex="00E6"/>
  <anchor x="642.735" y="0.0" name="bottom"/>
  <anchor x="642.735" y="984.475" name="top"/>
  <outline>
    <contour>
      <point x="923.75" y="-17.325" type="curve" smooth="yes"/>
      <point x="1031.4050000000002" y="-17.325"/>
      <point x="1122.2649999999999" y="14.495000000000001"/>
      <point x="1186.86" y="59.285000000000004" type="curve"/>
      <point x="1197.16" y="165.03" type="line"/>
      <point x="1123.98" y="115.18499999999999"/>
      <point x="1040.3" y="83.13"/>
      <point x="942.475" y="83.13" type="curve" smooth="yes"/>
      <point x="773.855" y="83.13"/>
      <point x="689.075" y="174.235"/>
      <point x="689.075" y="335.885" type="curve" smooth="yes"/>
      <point x="689.075" y="470.765" type="line"/>
      <point x="689.075" y="489.27500000000003" type="line"/>
      <point x="689.075" y="656.9599999999999" type="line" smooth="yes"/>
      <point x="689.075" y="819.925"/>
      <point x="756.675" y="908.525"/>
      <point x="894.5900000000001" y="908.525" type="curve" smooth="yes"/>
      <point x="1031.27" y="908.525"/>
      <point x="1099.1950000000002" y="821.545"/>
      <point x="1099.1950000000002" y="659.9" type="curve" smooth="yes"/>
      <point x="1099.1950000000002" y="593.725"/>
      <point x="1098.9299999999998" y="523.365"/>
      <point x="1098.3999999999999" y="437.03000000000003" type="curve"/>
      <point x="1203.45" y="437.03000000000003" type="line"/>
      <point x="1209.07" y="485.385"/>
      <point x="1210.66" y="527.8349999999999"/>
      <point x="1210.66" y="573.4" type="curve" smooth="yes"/>
      <point x="1210.66" y="652.45" type="line" smooth="yes"/>
      <point x="1210.66" y="874.905"/>
      <point x="1107.33" y="1004.3299999999999"/>
      <point x="906.2199999999999" y="1004.3299999999999" type="curve" smooth="yes"/>
      <point x="755.275" y="1004.3299999999999"/>
      <point x="659.9799999999999" y="927.6"/>
      <point x="629.65" y="795.795" type="curve"/>
      <point x="629.9649999999999" y="795.795" type="line"/>
      <point x="605.045" y="926.9549999999999"/>
      <point x="525.25" y="1002.33"/>
      <point x="376.98499999999996" y="1002.33" type="curve" smooth="yes"/>
      <point x="259.72" y="1002.33"/>
      <point x="165.89000000000001" y="958.51"/>
      <point x="106.58999999999999" y="916.07" type="curve"/>
      <point x="96.28999999999999" y="811.295" type="line"/>
      <point x="169.06" y="859.995"/>
      <point x="263.035" y="902.64"/>
      <point x="370.09499999999997" y="902.64" type="curve" smooth="yes"/>
      <point x="508.66999999999996" y="902.64"/>
      <point x="574.695" y="825.775"/>
      <point x="574.695" y="670.445" type="curve"/>
      <point x="574.4300000000001" y="517.73" type="line"/>
      <point x="574.1650000000001" y="428.47499999999997"/>
      <point x="574.9300000000001" y="349.705"/>
      <point x="578.225" y="263.81" type="curve"/>
      <point x="587.94" y="244.895" type="line"/>
      <point x="616.6600000000001" y="77.815"/>
      <point x="731.0550000000001" y="-17.325"/>
    </contour>
    <contour>
      <point x="320.11499999999995" y="-17.06" type="curve" smooth="yes"/>
      <point x="488.85" y="-17.06"/>
      <point x="570.285" y="77.57"/>
      <point x="599.44" y="202.35" type="curve"/>
      <point x="619.4799999999999" y="202.35" type="line"/>
      <point x="581.8149999999999" y="283.07" type="line"/>
      <point x="558.845" y="166.84"/>
      <point x="484.21000000000004" y="80.33500000000001"/>
      <point x="352.675" y="80.33500000000001" type="curve" smooth="yes"/>
      <point x="237.38" y="80.33500000000001"/>
      <point x="183.985" y="144.29"/>
      <point x="183.985" y="260.435" type="curve" smooth="yes"/>
      <point x="183.985" y="297.805" type="line" smooth="yes"/>
      <point x="183.985" y="402.075"/>
      <point x="233.915" y="453.50500000000005"/>
      <point x="364.325" y="480.85" type="curve" smooth="yes"/>
      <point x="602.4399999999999" y="529.665" type="line"/>
      <point x="593.815" y="620.0799999999999" type="line"/>
      <point x="343.075" y="567.735" type="line" smooth="yes"/>
      <point x="147.15" y="525.47"/>
      <point x="69.33999999999999" y="449.35"/>
      <point x="69.33999999999999" y="292.035" type="curve" smooth="yes"/>
      <point x="69.33999999999999" y="245.185" type="line" smooth="yes"/>
      <point x="69.33999999999999" y="75.975"/>
      <point x="152.135" y="-17.06"/>
    </contour>
    <contour>
      <point x="635.95" y="437.03000000000003" type="line"/>
      <point x="1173.285" y="437.03000000000003" type="line"/>
      <point x="1173.285" y="528.3299999999999" type="line"/>
      <point x="635.95" y="528.3299999999999" type="line"/>
    </contour>
  </outline>
</glyph>
<glyph name="eth" format="2">
  <advance width="838.935"/>
  <unicode hex="00F0"/>
  <outline>
    <contour>
      <point x="420.1449999999999" y="-19.59" type="curve" smooth="yes"/>
      <point x="636.26" y="-19.59"/>
      <point x="749.2149999999999" y="108.95"/>
      <point x="749.2149999999999" y="345.645" type="curve"/>
      <point x="749.2149999999999" y="604.36" type="line"/>
      <point x="749.2149999999999" y="903.625"/>
      <point x="619.77" y="1045.32"/>
      <point x="338.17499999999995" y="1328.85" type="curve"/>
      <point x="199.66500000000002" y="1328.85" type="line"/>
      <point x="199.66500000000002" y="1328.585" type="line"/>
      <point x="488.57000000000005" y="1045.07"/>
      <point x="614.135" y="915.475"/>
      <point x="635.69" y="711.3199999999999" type="curve"/>
      <point x="634.72" y="687.01"/>
      <point x="634.395" y="670.18"/>
      <point x="634.3649999999999" y="644.5450000000001" type="curve"/>
      <point x="634.3649999999999" y="539.7399999999999"/>
      <point x="634.3649999999999" y="440.235"/>
      <point x="634.3649999999999" y="338.08000000000004" type="curve" smooth="yes"/>
      <point x="634.3649999999999" y="167.58"/>
      <point x="561.97" y="76.215"/>
      <point x="420.1449999999999" y="76.215" type="curve" smooth="yes"/>
      <point x="277.585" y="76.215"/>
      <point x="205.425" y="167.58"/>
      <point x="205.425" y="338.08000000000004" type="curve" smooth="yes"/>
      <point x="205.425" y="560.505" type="line" smooth="yes"/>
      <point x="205.425" y="732.62"/>
      <point x="275.115" y="825.395"/>
      <point x="414.03" y="825.395" type="curve" smooth="yes"/>
      <point x="546.25" y="825.395"/>
      <point x="629.3399999999999" y="735.82"/>
      <point x="634.3649999999999" y="576.845" type="curve"/>
      <point x="656.9250000000001" y="711.615" type="line"/>
      <point x="626.7" y="713.0749999999999" type="line"/>
      <point x="605.355" y="838.0600000000001"/>
      <point x="521.4699999999999" y="919.875"/>
      <point x="383.055" y="919.875" type="curve" smooth="yes"/>
      <point x="192.255" y="919.875"/>
      <point x="89.72" y="788.835"/>
      <point x="89.72" y="554.91" type="curve" smooth="yes"/>
      <point x="89.72" y="345.40999999999997" type="line" smooth="yes"/>
      <point x="89.72" y="109.185"/>
      <point x="202.73499999999999" y="-19.59"/>
    </contour>
    <contour>
      <point x="176.2" y="1009.5" type="line"/>
      <point x="716.125" y="1183.755" type="line"/>
      <point x="716.125" y="1265.305" type="line"/>
      <point x="176.2" y="1090.55" type="line"/>
    </contour>
  </outline>
</glyph>
<glyph name="divide" format="2">
  <advance width="819.875"/>
  <unicode hex="00F7"/>
  <outline>
    <contour>
      <point x="83.875" y="581.375" type="line"/>
      <point x="736.0" y="581.375" type="line"/>
      <point x="736.0" y="678.24" type="line"/>
      <point x="83.875" y="678.24" type="line"/>
    </contour>
    <contour>
      <point x="413.98499999999996" y="240.46" type="curve" smooth="yes"/>
      <point x="459.065" y="240.46"/>
      <point x="480.63500000000005" y="269.56"/>
      <point x="480.63500000000005" y="324.43" type="curve" smooth="yes"/>
      <point x="480.63500000000005" y="337.105" type="line" smooth="yes"/>
      <point x="480.63500000000005" y="390.71"/>
      <point x="459.065" y="420.075"/>
      <point x="413.98499999999996" y="420.075" type="curve" smooth="yes"/>
      <point x="368.315" y="420.075"/>
      <point x="347.77500000000003" y="390.71"/>
      <point x="347.77500000000003" y="337.105" type="curve" smooth="yes"/>
      <point x="347.77500000000003" y="324.43" type="line" smooth="yes"/>
      <point x="347.77500000000003" y="269.56"/>
      <point x="368.315" y="240.46"/>
    </contour>
    <contour>
      <point x="413.98499999999996" y="840.9799999999999" type="curve" smooth="yes"/>
      <point x="459.065" y="840.9799999999999"/>
      <point x="480.63500000000005" y="870.08"/>
      <point x="480.63500000000005" y="924.9499999999999" type="curve" smooth="yes"/>
      <point x="480.63500000000005" y="937.625" type="line" smooth="yes"/>
      <point x="480.63500000000005" y="991.2299999999999"/>
      <point x="459.065" y="1020.5949999999999"/>
      <point x="413.98499999999996" y="1020.5949999999999" type="curve" smooth="yes"/>
      <point x="368.315" y="1020.5949999999999"/>
      <point x="347.77500000000003" y="991.2299999999999"/>
      <point x="347.77500000000003" y="937.625" type="curve" smooth="yes"/>
      <point x="347.77500000000003" y="924.9499999999999" type="line" smooth="yes"/>
      <point x="347.77500000000003" y="870.08"/>
      <point x="368.315" y="840.9799999999999"/>
    </contour>
  </outline>
</glyph>
<glyph name="oslash" format="2">
  <advance width="845.6999999999999"/>
  <unicode hex="00F8"/>
  <anchor x="422.84999999999997" y="0.0" name="bottom"/>
  <anchor x="422.84999999999997" y="492.62" name="center"/>
  <anchor x="761.225" y="10.0" name="ogonek"/>
  <anchor x="422.84999999999997" y="984.475" name="top"/>
  <anchor x="825.76" y="984.475" name="topright"/>
  <outline>
    <contour>
      <point x="423.11499999999995" y="-19.59" type="curve" smooth="yes"/>
      <point x="642.29" y="-19.59"/>
      <point x="755.9799999999999" y="109.95"/>
      <point x="755.9799999999999" y="351.0" type="curve"/>
      <point x="755.9799999999999" y="635.005" type="line"/>
      <point x="755.9799999999999" y="874.76"/>
      <point x="640.435" y="1004.3299999999999"/>
      <point x="423.11499999999995" y="1004.3299999999999" type="curve" smooth="yes"/>
      <point x="203.675" y="1004.3299999999999"/>
      <point x="89.72" y="875.555"/>
      <point x="89.72" y="635.005" type="curve"/>
      <point x="89.72" y="351.0" type="line"/>
      <point x="89.72" y="111.245"/>
      <point x="205.295" y="-19.59"/>
    </contour>
    <contour>
      <point x="127.565" y="-74.205" type="line"/>
      <point x="222.54" y="-74.205" type="line"/>
      <point x="275.4" y="42.54" type="line"/>
      <point x="290.88" y="79.09" type="line"/>
      <point x="620.125" y="864.5699999999999" type="line"/>
      <point x="645.5" y="905.5999999999999" type="line"/>
      <point x="718.135" y="1058.6799999999998" type="line"/>
      <point x="623.6600000000001" y="1058.6799999999998" type="line"/>
      <point x="573.7149999999999" y="946.7650000000001" type="line"/>
      <point x="560.03" y="915.6" type="line"/>
      <point x="229.51999999999998" y="128.945" type="line"/>
      <point x="204.20499999999998" y="88.80000000000001" type="line"/>
    </contour>
    <contour>
      <point x="423.11499999999995" y="75.685" type="curve" smooth="yes"/>
      <point x="276.495" y="75.685"/>
      <point x="203.305" y="168.84500000000003"/>
      <point x="203.305" y="343.315" type="curve" smooth="yes"/>
      <point x="203.305" y="642.1600000000001" type="line" smooth="yes"/>
      <point x="203.305" y="816.425"/>
      <point x="276.495" y="909.3199999999999"/>
      <point x="423.11499999999995" y="909.3199999999999" type="curve" smooth="yes"/>
      <point x="569.47" y="909.3199999999999"/>
      <point x="642.66" y="816.6899999999999"/>
      <point x="642.66" y="642.955" type="curve" smooth="yes"/>
      <point x="642.66" y="343.845" type="line" smooth="yes"/>
      <point x="642.66" y="168.58"/>
      <point x="569.235" y="75.685"/>
    </contour>
  </outline>
</glyph>
